<?xml version="1.0" encoding="utf-8"?>
<!-- Generator: Adobe Illustrator 27.5.0, SVG Export Plug-In . SVG Version: 6.00 Build 0)  -->
<svg xmlns="http://www.w3.org/2000/svg" xmlns:xlink="http://www.w3.org/1999/xlink" version="1.1" id="_x31_" x="0px" y="0px" viewBox="0 0 420 400" style="enable-;background-color:transparent;" xml:space="preserve">
<g>
	<g>
		<path style="fill:#DADFFA;" d="M101.159,345.463c0,0-40.552-8.416-42.847-53.559c-2.295-45.142,30.547-56.901,43.612-79.573    c13.065-22.672-15.302-76.512,9.947-118.594c25.249-42.082,99.466-42.082,144.608-9.181s66.566,22.189,88.754,61.975    c22.189,39.786-11.477,91.05-10.712,117.064c0.765,26.014,39.021,58.915,19.893,81.103L101.159,345.463z"/>
		<g>
			<path style="fill:#DADFFA;" d="M341.672,128.524c4.361,6.911,9.086,13.172,12.24,20.809c3.201,7.75,3.753,15.455,5.572,23.504     c0.295,1.305,2.017,0.845,2.155-0.292c0.968-8.025-2.036-17.206-5.166-24.492c-3.178-7.4-7.771-15.116-14.287-20.042     C341.879,127.78,341.483,128.224,341.672,128.524L341.672,128.524z"/>
			<path style="fill:#DADFFA;" d="M96.03,150.438c-1.239-16.384-1.98-32.279,4.169-47.923c5.369-13.66,14.77-23.193,26.07-32.119     c0.627-0.495-0.053-1.659-0.794-1.363c-13.082,5.231-22.688,18.293-27.92,30.94c-6.409,15.492-7.771,34.571-2.465,50.593     C95.252,151.05,96.073,151.004,96.03,150.438L96.03,150.438z"/>
			<path style="fill:#DADFFA;" d="M106.627,74.599c3.163-3.235,5.804-6.592,9.777-8.932c3.925-2.311,8.197-3.118,12.533-4.273     c1.095-0.292,0.76-1.754-0.252-1.86c-8.877-0.93-20.207,5.921-23.406,14.281C104.983,74.59,106.094,75.144,106.627,74.599     L106.627,74.599z"/>
			<path style="fill:#DADFFA;" d="M50.544,301.09c-1.101,12.37,7.854,27.979,18.682,33.846c0.944,0.512,2.065-0.78,1.193-1.546     c-4.977-4.369-9.512-8.305-12.823-14.199c-3.306-5.886-4.239-11.83-5.56-18.303C51.853,299.996,50.615,300.291,50.544,301.09     L50.544,301.09z"/>
		</g>
	</g>
	<path style="fill:#7378C0;" d="M385.02,345.457c0,2.302-73.307,6.536-163.736,6.536c-90.429,0-163.737-3.482-163.737-6.536   c0-3.054,73.307-6.536,163.737-6.536C311.713,338.921,385.02,343.155,385.02,345.457z"/>
	<g>
		<path style="fill:#50426E;" d="M287.056,343.896h-84.523c-10.045,0-18.189-8.143-18.189-18.189V102.094    c0-10.045,8.143-18.189,18.189-18.189h84.523c10.045,0,18.189,8.143,18.189,18.189v223.613    C305.244,335.752,297.101,343.896,287.056,343.896z"/>
		<path style="opacity:0.3;fill:#50426E;" d="M287.056,343.896h-84.523c-10.045,0-18.189-8.143-18.189-18.189V102.094    c0-10.045,8.143-18.189,18.189-18.189h84.523c10.045,0,18.189,8.143,18.189,18.189v223.613    C305.244,335.752,297.101,343.896,287.056,343.896z"/>
		<path style="fill:#50426E;" d="M279.923,343.896h-84.523c-10.045,0-18.189-8.143-18.189-18.189V102.094    c0-10.045,8.143-18.189,18.189-18.189h84.523c10.045,0,18.189,8.143,18.189,18.189v223.613    C298.111,335.752,289.968,343.896,279.923,343.896z"/>
		<g>
			<path style="fill:#E25998;" d="M280.595,333.952h-85.868c-10.747,0-13.237-7.843-13.237-17.518V105.652     c0-9.675,3.562-17.518,13.237-17.518h85.868c9.675,0,13.237,7.843,13.237,17.518v210.782     C293.832,326.109,291.341,333.952,280.595,333.952z"/>
			<path style="fill:#50426E;" d="M222.951,88.022c8.469,0,4.498,9.276,12.747,9.276c8.249,0,4.638-9.276,12.93-9.276     c0,0-6.417-2.136-12.93-2.136S222.951,88.022,222.951,88.022z"/>
			<path style="fill:#E25998;" d="M238.865,91.458c0,1.699-1.377,3.076-3.076,3.076s-3.076-1.377-3.076-3.076     c0-1.699,1.377-3.076,3.076-3.076S238.865,89.759,238.865,91.458z"/>
		</g>
		<path style="fill:none;" d="M181.49,121.123v195.319c0.001,9.671,2.493,17.51,13.237,17.51h85.868    c10.746,0,13.237-7.843,13.237-17.518V121.123H181.49z"/>
		<rect x="181.49" y="310.543" style="fill:#E25998;" width="112.341" height="3.525"/>
		<g>
			<g>
				<g>
					<path style="fill:#E25998;" d="M227.087,197.921h55.501c2.329,0,4.217-1.888,4.217-4.217v-20.702       c0-2.329-1.888-4.217-4.217-4.217h-55.501c-2.329,0-4.217,1.888-4.217,4.217v20.702       C222.87,196.033,224.758,197.921,227.087,197.921z"/>
					<polygon style="fill:#E25998;" points="280.416,196.899 280.416,203.671 272.749,196.899      "/>
				</g>
				<g>
					<path style="fill:none;" d="M279.109,178.906h-48.542c-0.611,0-1.106-0.495-1.106-1.106s0.495-1.106,1.106-1.106h48.542       c0.611,0,1.106,0.495,1.106,1.106S279.72,178.906,279.109,178.906z"/>
					<path style="fill:none;" d="M279.109,184.132h-48.542c-0.611,0-1.106-0.495-1.106-1.106s0.495-1.106,1.106-1.106h48.542       c0.611,0,1.106,0.495,1.106,1.106S279.72,184.132,279.109,184.132z"/>
					<path style="fill:none;" d="M279.109,189.36h-48.542c-0.611,0-1.106-0.495-1.106-1.106c0-0.611,0.495-1.106,1.106-1.106       h48.542c0.611,0,1.106,0.495,1.106,1.106C280.215,188.865,279.72,189.36,279.109,189.36z"/>
				</g>
			</g>
			<g>
				<g>
					<path style="fill:#E25998;" d="M239.202,230.352h44.242c1.857,0,3.361-1.505,3.361-3.361v-16.502       c0-1.857-1.505-3.362-3.361-3.362h-44.242c-1.857,0-3.361,1.505-3.361,3.362v16.502       C235.841,228.847,237.346,230.352,239.202,230.352z"/>
					<polygon style="fill:#E25998;" points="280.416,229.33 280.416,236.103 272.749,229.33      "/>
				</g>
				<g>
					<path style="fill:none;" d="M250.122,215.417c-0.839,0.003-1.921,0.497-2.632,1.92c-0.7-1.43-1.485-1.93-2.325-1.939       c-2.868-0.031-5.311,4.857,2.324,8.308C255.315,219.917,252.482,215.407,250.122,215.417z"/>
					<path style="fill:none;" d="M263.938,215.417c-0.84,0.003-1.922,0.497-2.632,1.92c-0.7-1.43-1.485-1.93-2.325-1.939       c-2.868-0.031-5.311,4.857,2.324,8.308C269.131,219.917,266.298,215.407,263.938,215.417z"/>
					<path style="fill:none;" d="M277.754,215.417c-0.84,0.003-1.921,0.497-2.632,1.92c-0.7-1.43-1.485-1.93-2.325-1.939       c-2.868-0.031-5.311,4.857,2.324,8.308C282.947,219.917,280.114,215.407,277.754,215.417z"/>
				</g>
			</g>
			<g>
				<g>
					<path style="fill:#C1BDE5;" d="M247.802,159.699h-55.501c-2.329,0-4.217-1.888-4.217-4.217V134.78       c0-2.329,1.888-4.217,4.217-4.217h55.501c2.329,0,4.217,1.888,4.217,4.217v20.701       C252.019,157.811,250.131,159.699,247.802,159.699z"/>
					<polygon style="fill:#C1BDE5;" points="194.473,158.676 194.473,165.449 202.14,158.676      "/>
				</g>
				<g>
					<path style="fill:none;" d="M244.322,140.685h-48.542c-0.611,0-1.106-0.495-1.106-1.106c0-0.611,0.495-1.106,1.106-1.106       h48.542c0.611,0,1.106,0.495,1.106,1.106C245.428,140.19,244.933,140.685,244.322,140.685z"/>
					<path style="fill:none;" d="M244.322,145.91h-48.542c-0.611,0-1.106-0.495-1.106-1.106s0.495-1.106,1.106-1.106h48.542       c0.611,0,1.106,0.495,1.106,1.106S244.933,145.91,244.322,145.91z"/>
					<path style="fill:none;" d="M244.322,151.136h-48.542c-0.611,0-1.106-0.495-1.106-1.106s0.495-1.106,1.106-1.106h48.542       c0.611,0,1.106,0.495,1.106,1.106S244.933,151.136,244.322,151.136z"/>
				</g>
			</g>
			<g>
				<g>
					<path style="fill:#C1BDE5;" d="M231.408,256.821h-39.108c-2.329,0-4.217-1.888-4.217-4.217v-13.582       c0-2.329,1.888-4.217,4.217-4.217h39.108c2.329,0,4.217,1.888,4.217,4.217v13.582       C235.625,254.933,233.737,256.821,231.408,256.821z"/>
					<polygon style="fill:#C1BDE5;" points="194.473,255.799 194.473,262.572 202.14,255.799      "/>
					<g>
						<path style="fill:none;" d="M200.654,241.911c-0.839,0.004-1.921,0.497-2.632,1.92c-0.7-1.43-1.485-1.93-2.325-1.939        c-2.868-0.031-5.311,4.857,2.324,8.308C205.847,246.411,203.014,241.901,200.654,241.911z"/>
						<path style="fill:none;" d="M214.469,241.911c-0.839,0.004-1.921,0.497-2.632,1.92c-0.7-1.43-1.485-1.93-2.325-1.939        c-2.868-0.031-5.311,4.857,2.324,8.308C219.662,246.411,216.829,241.901,214.469,241.911z"/>
						<path style="fill:none;" d="M228.285,241.911c-0.839,0.004-1.921,0.497-2.632,1.92c-0.7-1.43-1.485-1.93-2.325-1.939        c-2.868-0.031-5.311,4.857,2.324,8.308C233.478,246.411,230.645,241.901,228.285,241.911z"/>
					</g>
				</g>
			</g>
			<g>
				<g>
					<path style="fill:#E25998;" d="M258.807,281.087h23.782c2.329,0,4.217-1.888,4.217-4.217v-13.582       c0-2.329-1.888-4.217-4.217-4.217h-23.782c-2.329,0-4.217,1.888-4.217,4.217v13.582       C254.59,279.199,256.478,281.087,258.807,281.087z"/>
					<polygon style="fill:#E25998;" points="280.416,280.065 280.416,286.837 272.749,280.065      "/>
					<g>
						<circle style="fill:#FFCB78;" cx="270.698" cy="270.079" r="7.909"/>
						<path style="fill:#634A64;" d="M265.909,271.551c3.072,1.329,6.265,1.319,9.577,0c0,0-1.083,3.401-4.883,3.401        C266.804,274.952,265.909,271.551,265.909,271.551z"/>
						<g>
							<path style="fill:#F74C64;" d="M268.986,266.36c-0.368,0.006-0.84,0.227-1.144,0.855c-0.314-0.623-0.661-0.839-1.029-0.838         c-1.258,0.001-2.303,2.156,1.061,3.63C271.285,268.306,270.02,266.343,268.986,266.36z"/>
							<path style="fill:#F74C64;" d="M274.674,266.36c-0.368,0.006-0.84,0.227-1.144,0.855c-0.314-0.623-0.661-0.839-1.029-0.838         c-1.258,0.001-2.303,2.156,1.061,3.63C276.973,268.306,275.708,266.343,274.674,266.36z"/>
						</g>
					</g>
				</g>
			</g>
		</g>
		<g>
			<path style="fill:#E25998;" d="M266.66,324.422c0,1.644-1.332,2.976-2.976,2.976c-1.644,0-2.976-1.333-2.976-2.976     c0-1.644,1.333-2.976,2.976-2.976C265.328,321.446,266.66,322.778,266.66,324.422z"/>
			<path style="fill:#E25998;" d="M277.292,324.422c0,1.644-1.332,2.976-2.976,2.976c-1.644,0-2.976-1.333-2.976-2.976     c0-1.644,1.332-2.976,2.976-2.976C275.96,321.446,277.292,322.778,277.292,324.422z"/>
			<path style="fill:#E25998;" d="M287.924,324.422c0,1.644-1.332,2.976-2.976,2.976c-1.644,0-2.976-1.333-2.976-2.976     c0-1.644,1.332-2.976,2.976-2.976C286.592,321.446,287.924,322.778,287.924,324.422z"/>
		</g>
		<g>
			<g>
				<path style="fill:none;" d="M281.665,102.28c-0.934,0-1.691-0.757-1.691-1.691c0-0.934,0.757-1.691,1.691-1.691      s1.691,0.757,1.691,1.691C283.356,101.523,282.599,102.28,281.665,102.28z"/>
				<path style="fill:none;" d="M281.665,107.637c-0.934,0-1.691-0.757-1.691-1.691c0-0.934,0.757-1.691,1.691-1.691      s1.691,0.757,1.691,1.691C283.356,106.88,282.599,107.637,281.665,107.637z"/>
				<path style="fill:none;" d="M281.665,112.994c-0.934,0-1.691-0.757-1.691-1.691s0.757-1.691,1.691-1.691      s1.691,0.757,1.691,1.691S282.599,112.994,281.665,112.994z"/>
			</g>
			<g>
				<circle style="fill:none;" cx="200.496" cy="105.561" r="11.324"/>
				<g>
					<defs>
						
							<ellipse id="SVGID_1_" transform="matrix(0.9732 -0.2298 0.2298 0.9732 -18.8895 48.8885)" cx="200.496" cy="105.561" rx="11.352" ry="11.352"/>
					</defs>
					<clipPath id="SVGID_00000003816944857828028390000013717999195912945327_">
						<use xlink:href="#SVGID_1_" style="overflow:visible;"/>
					</clipPath>
					<g style="clip-path:url(#SVGID_00000003816944857828028390000013717999195912945327_);">
						<path style="fill:#7378C0;" d="M201.504,112.273c-1.653,1.035-0.811,4.039,1.884,7.989c3.058,4.482,4.653,6.408,6.842,5.047        C213.841,123.063,204.415,110.451,201.504,112.273z"/>
						<path style="fill:#936466;" d="M195.401,99.697c0,0,1.05-3.223,4.954-2.607c3.405,0.538,4.819,2.02,5.994,0.973        c0,0,1.129,2.165-1.141,3.431c0,0,0.227,1.169-0.918,1.845c-0.456,0.269-3.193,2.297-3.193,2.297l-2.742,3.172        c0,0-2.121-0.533-3.324-3.18C193.766,102.845,194.036,100.001,195.401,99.697z"/>
						<path style="opacity:0.2;fill:#65436D;" d="M195.895,104.17c1.723,0.132,1.527-1.936,2.161-2.553        c0.496-0.483,0.902-0.074,0.902-0.074l0.815,5.626l-1.418,1.64c0,0-2.121-0.533-3.324-3.18        c-0.693-1.526-0.923-3.068-0.766-4.202C194.313,102.136,194.654,104.074,195.895,104.17z"/>
						<path style="opacity:0.2;fill:#65436D;" d="M205.208,101.495c0,0,0.227,1.169-0.918,1.845        c-0.146,0.086-0.526,0.353-0.974,0.675c-1.853-0.156-4.585-0.696-4.446-2.4c0.117-1.427,0.998-2.137,2.706-1.89        c1.646,0.238,2.12,1.183,3.416,0.993c2.052-0.302,1.358-2.654,1.358-2.654S207.479,100.229,205.208,101.495z"/>
						<path style="fill:#7378C0;" d="M204.537,126.802l-13.277,0.752c-0.067-1.621-0.147-4.379-0.102-5.46        c0.142-3.432-0.512-7.371,1.088-9.053c1.615-1.698,6.598-1.568,7.885-1.434c1.449,0.151,2.858,1.017,3.823,1.751        c1.15,0.875,1.91,3.067,1.553,5.934C205.19,121.825,204.623,125.045,204.537,126.802z"/>
						
							<linearGradient id="SVGID_00000085230073259364797460000013769423839618727062_" gradientUnits="userSpaceOnUse" x1="-22.66" y1="120.577" x2="-23.4981" y2="113.2433" gradientTransform="matrix(-0.9984 0.0566 0.0566 0.9984 169.5125 -4.641)">
							<stop offset="0" style="stop-color:#FFB8A8"/>
							<stop offset="1" style="stop-color:#FF9696"/>
						</linearGradient>
						<path style="fill:url(#SVGID_00000085230073259364797460000013769423839618727062_);" d="M197.379,106.521        c0,0,0.226,2.025-0.277,3.323c-0.593,1.529-1.035,1.404-1.923,2.03c0,0,0.596,1.414,2.996,1.754        c3.101,0.439,4.842-1.355,4.842-1.355c-0.423-0.225-1.719-0.322-1.772-1.242c-0.058-1.028,0.62-1.266,0.62-1.266        L197.379,106.521z"/>
						<path style="fill:#D37A85;" d="M201.247,110.969c0.001,0.022-0.003,0.04-0.002,0.062c0.007,0.127,0.032,0.237,0.067,0.339        c-0.407,0.45-1.889,1.869-4.219,2.001c-1.47-0.444-1.915-1.497-1.915-1.497c0.888-0.626,1.33-0.501,1.923-2.03        c0.503-1.298,0.277-3.323,0.277-3.323L201.247,110.969z"/>
						
							<linearGradient id="SVGID_00000016768745007208272090000006419390551022660029_" gradientUnits="userSpaceOnUse" x1="-42.3832" y1="138.6508" x2="-44.8114" y2="122.676" gradientTransform="matrix(-0.975 0.2223 0.2223 0.975 128.657 -14.612)">
							<stop offset="0" style="stop-color:#FFB8A8"/>
							<stop offset="1" style="stop-color:#FF9696"/>
						</linearGradient>
						<path style="fill:url(#SVGID_00000016768745007208272090000006419390551022660029_);" d="M197.277,104.803        c0.281,0.198,0.384,0.84,0.814,0.768c0.53-0.089-0.1-1.907,0.529-3.52c0.25-0.641,1.036-1.756,2.766-1.773        c2.161-0.02,2.688,1.08,3.009,2.201c0.15,0.524,0.37,1.638,0.134,3.697c-0.281,2.453-1.178,4.036-2.103,4.352        c-0.618,0.211-1.173,0.162-1.742-0.089c-0.972-0.428-2.142-1.24-2.936-3.224c-1.101,0.101-1.667-0.665-1.683-1.376        C196.051,105.106,196.519,104.425,197.277,104.803z"/>
						<path style="fill:#D37A85;" d="M197.475,105.829c0.131,0.366,0.039,0.734-0.206,0.821c-0.245,0.088-0.549-0.138-0.68-0.504        c-0.131-0.366-0.039-0.734,0.206-0.821C197.04,105.237,197.344,105.463,197.475,105.829z"/>
						<path style="fill:#7378C0;" d="M194.205,112.366c1.816,0.713,1.142,3.666-0.562,8.132c-1.919,5.031-3.209,7.222-5.611,6.288        C184.068,125.245,191.008,111.111,194.205,112.366z"/>
					</g>
				</g>
			</g>
			<g>
				<path style="fill:none;" d="M260.483,102.332h-43.321c-1.104,0-1.999-0.895-1.999-1.999c0-1.104,0.895-1.999,1.999-1.999      h43.321c1.103,0,1.999,0.895,1.999,1.999C262.481,101.437,261.586,102.332,260.483,102.332z"/>
				<path style="fill:none;" d="M244.875,110.131h-27.713c-1.104,0-1.999-0.895-1.999-1.999c0-1.103,0.895-1.999,1.999-1.999      h27.713c1.104,0,1.999,0.895,1.999,1.999C246.873,109.235,245.978,110.131,244.875,110.131z"/>
			</g>
		</g>
	</g>
	<g>
		<g>
			<path style="fill:#A1A1D1;" d="M91.961,270.506h-44.23c-2.065,0-3.74-1.674-3.74-3.74v-28.564c0-2.065,1.674-3.74,3.74-3.74     h44.23c2.065,0,3.74,1.674,3.74,3.74v28.564C95.701,268.832,94.026,270.506,91.961,270.506z"/>
			<g>
				<rect x="68.062" y="238.537" style="fill:none;" width="23.448" height="2.311"/>
				<rect x="68.062" y="242.663" style="fill:none;" width="18.8" height="2.311"/>
				<rect x="68.062" y="249.348" style="fill:none;" width="23.448" height="1.155"/>
				<rect x="68.062" y="256.247" style="fill:none;" width="23.448" height="1.156"/>
				<rect x="68.062" y="252.798" style="fill:none;" width="23.448" height="1.156"/>
				<rect x="48.182" y="259.5" style="fill:none;" width="43.328" height="1.156"/>
				<rect x="48.182" y="262.389" style="fill:none;" width="43.328" height="1.155"/>
				<rect x="48.182" y="265.277" style="fill:none;" width="43.328" height="1.156"/>
				<g>
					<rect x="48.182" y="238.537" style="fill:none;" width="12.896" height="14.872"/>
				</g>
				<g>
					<defs>
						
							<rect id="SVGID_00000052827028165595278380000011719398945949045148_" x="48.182" y="238.537" width="16.358" height="18.865"/>
					</defs>
					<use xlink:href="#SVGID_00000052827028165595278380000011719398945949045148_" style="overflow:visible;fill:none;"/>
					<clipPath id="SVGID_00000070812710416885495660000014455522648845060789_">
						<use xlink:href="#SVGID_00000052827028165595278380000011719398945949045148_" style="overflow:visible;"/>
					</clipPath>
					<g style="clip-path:url(#SVGID_00000070812710416885495660000014455522648845060789_);">
						<path style="fill:#936466;" d="M51.611,241.244c-0.049,0.552,0.363,1.139,0.805,1.445c0.044,0.031,0.096-0.038,0.057-0.074        c-0.405-0.378-0.813-0.78-0.84-1.371C51.632,241.229,51.612,241.23,51.611,241.244L51.611,241.244z"/>
						<path style="fill:#936466;" d="M60.574,243.117c0,0,0.941,0.143,1.517,0.5c-0.033-0.897-1.004-2.111-1.697-2.018        c0,0,1.029-0.752,0.866-1.536c-0.342,0.335-1.621,0.486-2.536,0.405c-1.077-0.096-2.809-0.73-4.352-0.245        c-1.167,0.367-1.985,1.289-1.978,2.287c0.003,0.004,0.004,0.006,0.007,0.011c-1.444,0.736-1.606,2.547-0.65,5.105        c1.135,3.038,3.203,3.558,3.203,3.558l1.76-4.776c0,0,3.352-1.887,3.326-2.39c0.141,0.845,0.26,1.699,0.888,2.377        C60.715,244.941,61.617,244.186,60.574,243.117z"/>
						<path style="opacity:0.2;fill:#65436D;" d="M60.574,243.117c0,0,0.884,0.137,1.463,0.471c-0.806-1.54-3.853-2.328-6.149-0.812        c-0.693,0.457-0.697,0.941-0.737,1.246c-0.266,0.025-0.461,0.143-0.69,0.404c-0.312,0.357-0.881,1.583-2.235,1.349        c-0.648-0.112-0.938-0.492-1.066-0.857c0.01,0.769,0.203,1.674,0.59,2.71c1.135,3.038,3.203,3.558,3.203,3.558l0.884-2.398        l-0.399-4.328l2.302,1.346c0,0,2.3-1.757,2.299-1.786c0.141,0.845,0.26,1.699,0.888,2.377        C60.715,244.941,61.617,244.186,60.574,243.117z"/>
						<path style="fill:#E7DFFA;" d="M62.137,273.093c-4.854,0.669-9.445,0.742-13.696,0.041c0.584-5.525-1.21-14.486,1.866-17.295        c1.56-1.424,6.029-2.181,7.155-2.198c1.267-0.019,2.358,0.94,3.193,1.529c1.02,0.719,1.882,2.161,1.695,4.681        C62.185,262.079,61.499,267.409,62.137,273.093z"/>
						
							<linearGradient id="SVGID_00000145030760308365651610000007065611545908656812_" gradientUnits="userSpaceOnUse" x1="241.3907" y1="274.3971" x2="240.5441" y2="266.9894" gradientTransform="matrix(-0.9847 0.1743 0.1743 0.9847 246.5482 -55.1712)">
							<stop offset="0" style="stop-color:#FFB8A8"/>
							<stop offset="1" style="stop-color:#FF9696"/>
						</linearGradient>
						<path style="fill:url(#SVGID_00000145030760308365651610000007065611545908656812_);" d="M54.216,249.575        c0,0,0.491,1.6,0.401,2.809c-0.089,1.204-0.836,1.735-1.41,1.998c0,0,0.697,1.925,3.729,1.925        c2.363,0,2.876-1.986,2.876-1.986c-0.553-0.193-1.483-0.503-1.623-1.293c-0.156-0.883,0.406-1.159,0.406-1.159l-2.685-2.651        L54.216,249.575z"/>
						<path style="fill:#D37A85;" d="M55.186,256.042c2.106-0.632,2.857-2.143,3.081-2.768c-0.034-0.077-0.062-0.157-0.078-0.246        c-0.136-0.767,0.27-1.075,0.379-1.143l0.007-0.035l-0.688-0.679l-2.844-1.77l-0.827,0.174c0,0,0.491,1.6,0.401,2.809        c-0.089,1.204-0.836,1.735-1.41,1.998C53.207,254.382,53.622,255.515,55.186,256.042z"/>
						
							<linearGradient id="SVGID_00000086652122802539553640000009161150677870313395_" gradientUnits="userSpaceOnUse" x1="266.4522" y1="258.3472" x2="264.1924" y2="243.4806" gradientTransform="matrix(-0.9465 0.3227 0.3227 0.9465 226.6296 -77.474)">
							<stop offset="0" style="stop-color:#FFB8A8"/>
							<stop offset="1" style="stop-color:#FF9696"/>
						</linearGradient>
						<path style="fill:url(#SVGID_00000086652122802539553640000009161150677870313395_);" d="M53.912,247.657        c0.274,0.153,0.428,0.725,0.811,0.619c0.472-0.131-0.272-1.718,0.146-3.24c0.166-0.604,0.545-1.852,2.328-2.108        c1.457-0.209,2.611,0.27,3.157,1.621c0.186,0.461,0.32,1.822,0.314,3.577c-0.006,1.808-0.739,3.816-1.547,4.191        c-0.54,0.25-1.207,0.325-1.747,0.152c-0.922-0.296-1.897-0.947-2.805-2.67c-0.988,0.196-1.574-0.444-1.655-1.087        C52.829,248.048,53.189,247.387,53.912,247.657z"/>
						<path style="fill:#D37A85;" d="M54.188,248.567c0.153,0.319,0.105,0.661-0.108,0.764c-0.213,0.103-0.511-0.073-0.664-0.393        c-0.153-0.319-0.105-0.661,0.108-0.764C53.737,248.072,54.035,248.248,54.188,248.567z"/>
						<path style="fill:#65529D;" d="M53.547,254c0,0,1.435,1.193,1.626,6.275c0.192,5.083-0.028,10.611-0.048,13.331        c0,0-3.321,0.26-6.684-0.472c0,0,0.16-2.694,0.077-6.706c-0.083-4.013-0.137-8.145,1.36-10.388        C50.838,254.602,53.547,254,53.547,254z"/>
						<path style="fill:#65529D;" d="M58.846,253.904c0,0,2.422,1.289,2.142,7.442c-0.279,6.153-0.149,11.949-0.149,11.949        l1.298-0.201c0,0-0.11-2.876,0.047-7.646c0.158-4.771,0.684-7.988-0.629-9.691C60.387,254.24,58.846,253.904,58.846,253.904z"/>
						<path style="fill:#936466;" d="M51.555,242.372c0.258,0.261,0.541,0.402,0.911,0.404c0.057,0,0.057-0.089,0-0.089        c-0.348,0.001-0.619-0.135-0.897-0.333C51.558,242.346,51.546,242.363,51.555,242.372L51.555,242.372z"/>
					</g>
				</g>
			</g>
		</g>
		<path style="fill:#F74C64;" d="M119.874,240.442c-1.109-0.282-2.705-0.001-4.129,1.635c-0.436-2.127-1.301-3.055-2.406-3.353    c-3.775-1.021-8.667,4.595,0.23,11.757C125.189,248.154,122.991,241.235,119.874,240.442z"/>
		<path style="fill:#F74C64;" d="M88.005,213.945c-0.93,0.232-1.996,1.074-2.397,2.847c-1.166-1.396-2.173-1.737-3.107-1.518    c-3.19,0.746-4.569,6.834,4.84,8.584C94.991,217.523,90.62,213.291,88.005,213.945z"/>
		<path style="fill:#F74C64;" d="M114.683,195.51c-0.611-0.174-1.502-0.044-2.319,0.841c-0.207-1.188-0.673-1.717-1.282-1.9    c-2.079-0.628-4.885,2.411-0.062,6.531C117.51,199.877,116.401,196,114.683,195.51z"/>
		<g>
			<path style="fill:#7378C0;" d="M122.842,182.435H96.268c-1.856,0-3.36-1.504-3.36-3.36v-16.494c0-1.856,1.504-3.36,3.36-3.36     h26.574c1.856,0,3.36,1.504,3.36,3.36v16.494C126.202,180.931,124.697,182.435,122.842,182.435z"/>
			<polygon style="fill:#7378C0;" points="97.998,181.62 97.998,187.017 104.107,181.62    "/>
			<g>
				<circle style="fill:none;" cx="101.726" cy="170.828" r="2.413"/>
				<circle style="fill:none;" cx="109.555" cy="170.828" r="2.413"/>
				<path style="fill:none;" d="M119.796,170.828c0,1.333-1.08,2.413-2.413,2.413c-1.332,0-2.413-1.08-2.413-2.413      c0-1.333,1.08-2.413,2.413-2.413C118.715,168.415,119.796,169.495,119.796,170.828z"/>
			</g>
		</g>
		<g>
			<path style="fill:#F4AAC4;" d="M46.518,208.732c-0.345,0-0.655-0.239-0.732-0.589l-3.806-17.369     c-0.043-0.194-0.006-0.397,0.101-0.565c0.107-0.167,0.276-0.286,0.471-0.328l24.405-5.348c0.408-0.091,0.805,0.167,0.893,0.572     l3.806,17.369c0.043,0.194,0.006,0.397-0.101,0.565c-0.107,0.168-0.276,0.286-0.471,0.328l-24.405,5.348     C46.625,208.726,46.571,208.732,46.518,208.732z M43.605,191.185l3.485,15.903l22.939-5.027l-3.485-15.903L43.605,191.185z"/>
			<path style="fill:#F4AAC4;" d="M57.303,198.01c-0.104,0-0.21-0.022-0.311-0.067l-14.591-6.647     c-0.294-0.134-0.469-0.441-0.434-0.762c0.034-0.321,0.27-0.585,0.585-0.653l24.405-5.348c0.313-0.066,0.633,0.068,0.8,0.34     c0.167,0.272,0.144,0.62-0.059,0.867l-9.814,11.995C57.738,197.913,57.523,198.01,57.303,198.01z M45.072,190.864l12.017,5.474     l8.083-9.878L45.072,190.864z"/>
		</g>
		<path style="fill:none;" d="M94.487,306.332c-0.403,0-0.736-0.32-0.749-0.726c-0.013-0.414,0.312-0.761,0.726-0.774    c0.962-0.03,1.944-0.108,2.919-0.232c0.409-0.051,0.786,0.239,0.838,0.649c0.052,0.411-0.239,0.787-0.65,0.839    c-1.021,0.13-2.051,0.212-3.06,0.244C94.503,306.332,94.495,306.332,94.487,306.332z M91.49,306.276    c-0.018,0-0.036-0.001-0.053-0.002c-1.032-0.072-2.06-0.201-3.055-0.382c-0.408-0.075-0.678-0.465-0.604-0.873    c0.074-0.407,0.466-0.673,0.872-0.604c0.941,0.172,1.914,0.294,2.891,0.362c0.414,0.029,0.725,0.388,0.696,0.801    C92.209,305.974,91.88,306.276,91.49,306.276z M100.432,305.586c-0.346,0-0.657-0.24-0.733-0.592    c-0.087-0.405,0.171-0.805,0.576-0.892c0.934-0.201,1.892-0.447,2.847-0.733c0.395-0.12,0.814,0.107,0.934,0.504    c0.119,0.397-0.107,0.815-0.504,0.934c-0.993,0.297-1.989,0.554-2.961,0.763C100.537,305.582,100.484,305.586,100.432,305.586z     M85.604,305.199c-0.073,0-0.146-0.011-0.219-0.032c-0.986-0.301-1.959-0.662-2.893-1.073c-0.379-0.167-0.551-0.609-0.384-0.989    c0.167-0.378,0.611-0.548,0.989-0.384c0.879,0.388,1.797,0.728,2.726,1.011c0.396,0.121,0.62,0.54,0.499,0.936    C86.222,304.991,85.925,305.199,85.604,305.199z M80.129,302.784c-0.131,0-0.263-0.034-0.384-0.105    c-0.884-0.528-1.743-1.113-2.552-1.741c-0.327-0.254-0.387-0.726-0.133-1.053c0.254-0.327,0.724-0.385,1.053-0.133    c0.761,0.591,1.568,1.142,2.4,1.638c0.356,0.213,0.472,0.673,0.26,1.029C80.634,302.653,80.385,302.784,80.129,302.784z     M75.403,299.117c-0.191,0-0.382-0.072-0.528-0.218c-0.727-0.721-1.418-1.495-2.056-2.301c-0.257-0.325-0.202-0.797,0.123-1.054    c0.325-0.258,0.796-0.202,1.053,0.122c0.601,0.76,1.252,1.488,1.937,2.168c0.294,0.292,0.296,0.767,0.004,1.061    C75.788,299.043,75.596,299.117,75.403,299.117z M71.688,294.427c-0.252,0-0.498-0.127-0.639-0.358    c-0.537-0.872-1.029-1.786-1.462-2.717c-0.175-0.375-0.013-0.821,0.363-0.996c0.375-0.175,0.822-0.013,0.997,0.363    c0.409,0.878,0.874,1.74,1.38,2.564c0.217,0.353,0.107,0.814-0.246,1.031C71.958,294.391,71.822,294.427,71.688,294.427z     M69.157,289.002c-0.314,0-0.607-0.198-0.711-0.513c-0.325-0.975-0.597-1.976-0.81-2.977c-0.086-0.405,0.173-0.803,0.579-0.889    c0.401-0.092,0.802,0.172,0.889,0.578c0.2,0.945,0.458,1.892,0.765,2.813c0.131,0.392-0.081,0.817-0.474,0.949    C69.316,288.989,69.236,289.002,69.157,289.002z M67.913,283.143c-0.381,0-0.708-0.29-0.746-0.678    c-0.085-0.877-0.128-1.767-0.128-2.645l0.003-0.436c0.007-0.414,0.362-0.751,0.763-0.737c0.415,0.007,0.744,0.349,0.737,0.763    l-0.003,0.411c0,0.83,0.041,1.671,0.121,2.5c0.04,0.412-0.262,0.779-0.674,0.818C67.962,283.142,67.938,283.143,67.913,283.143z     M68.009,277.156c-0.032,0-0.064-0.002-0.097-0.006c-0.411-0.054-0.701-0.43-0.647-0.84c0.131-1.018,0.321-2.037,0.564-3.03    c0.099-0.401,0.502-0.649,0.907-0.55c0.402,0.099,0.649,0.505,0.55,0.907c-0.23,0.939-0.409,1.902-0.534,2.864    C68.703,276.88,68.381,277.156,68.009,277.156z"/>
		<path style="fill:#C1BDE5;" d="M62.129,183.259c-0.15,0-0.302-0.045-0.434-0.139c-0.338-0.24-0.417-0.708-0.177-1.045    c0.592-0.835,1.223-1.649,1.873-2.422c0.267-0.317,0.74-0.358,1.057-0.091c0.317,0.267,0.357,0.74,0.091,1.057    c-0.624,0.742-1.229,1.523-1.798,2.324C62.595,183.149,62.363,183.259,62.129,183.259z M65.995,178.677    c-0.192,0-0.385-0.074-0.531-0.221c-0.292-0.294-0.292-0.768,0.002-1.061c0.728-0.726,1.491-1.42,2.27-2.064    c0.319-0.264,0.792-0.218,1.056,0.099c0.264,0.319,0.22,0.792-0.099,1.056c-0.743,0.615-1.473,1.279-2.168,1.972    C66.378,178.604,66.186,178.677,65.995,178.677z M70.615,174.861c-0.241,0-0.477-0.116-0.623-0.331    c-0.231-0.343-0.141-0.81,0.203-1.041c0.856-0.577,1.744-1.11,2.638-1.585c0.366-0.193,0.82-0.055,1.014,0.311    c0.194,0.366,0.055,0.82-0.311,1.014c-0.847,0.45-1.689,0.956-2.503,1.504C70.905,174.82,70.76,174.861,70.615,174.861z     M75.905,172.057c-0.298,0-0.58-0.179-0.697-0.473c-0.153-0.385,0.035-0.821,0.42-0.974c0.955-0.38,1.939-0.707,2.925-0.973    c0.397-0.107,0.811,0.128,0.919,0.529c0.108,0.4-0.129,0.811-0.529,0.919c-0.93,0.251-1.859,0.56-2.762,0.918    C76.091,172.04,75.997,172.057,75.905,172.057z M89.465,170.513c-0.036,0-0.073-0.003-0.109-0.008    c-0.588-0.086-1.173-0.153-1.751-0.2c-0.413-0.034-0.721-0.396-0.687-0.808c0.033-0.414,0.402-0.714,0.808-0.687    c0.611,0.05,1.227,0.12,1.847,0.21c0.41,0.06,0.694,0.441,0.634,0.851C90.152,170.245,89.831,170.513,89.465,170.513z     M81.682,170.5c-0.366,0-0.686-0.268-0.741-0.64c-0.061-0.41,0.222-0.792,0.631-0.852c1.008-0.15,2.042-0.242,3.072-0.275    c0.411-0.013,0.761,0.312,0.773,0.726c0.013,0.414-0.311,0.76-0.725,0.773c-0.973,0.031-1.948,0.118-2.899,0.259    C81.755,170.497,81.718,170.5,81.682,170.5z"/>
		<path style="fill:#C1BDE5;" d="M68.173,231.603c-0.166,0-0.334-0.055-0.473-0.168c-0.798-0.649-1.568-1.338-2.287-2.05    c-0.294-0.292-0.297-0.766-0.006-1.061c0.292-0.295,0.767-0.297,1.06-0.006c0.685,0.677,1.418,1.334,2.178,1.952    c0.321,0.261,0.37,0.733,0.109,1.055C68.608,231.508,68.392,231.603,68.173,231.603z M63.923,227.386    c-0.217,0-0.432-0.094-0.58-0.274c-0.652-0.795-1.265-1.63-1.822-2.481c-0.227-0.346-0.13-0.811,0.217-1.038    c0.346-0.226,0.812-0.13,1.038,0.217c0.528,0.806,1.109,1.597,1.728,2.351c0.263,0.32,0.216,0.793-0.104,1.056    C64.258,227.33,64.09,227.386,63.923,227.386z M60.642,222.378c-0.273,0-0.536-0.149-0.669-0.409    c-0.463-0.906-0.884-1.853-1.252-2.813c-0.148-0.387,0.045-0.82,0.432-0.968c0.384-0.149,0.82,0.045,0.968,0.432    c0.349,0.91,0.748,1.807,1.188,2.666c0.189,0.369,0.042,0.821-0.327,1.009C60.873,222.351,60.756,222.378,60.642,222.378z     M58.497,216.786c-0.331,0-0.634-0.221-0.724-0.556c-0.262-0.978-0.479-1.989-0.646-3.005c-0.067-0.409,0.21-0.794,0.619-0.861    c0.409-0.065,0.794,0.21,0.861,0.619c0.158,0.967,0.365,1.928,0.615,2.858c0.107,0.4-0.13,0.811-0.53,0.919    C58.627,216.778,58.562,216.786,58.497,216.786z M57.523,210.876c-0.391,0-0.721-0.304-0.748-0.7l-0.035-0.579    c-0.022-0.414,0.295-0.767,0.708-0.79c0.412-0.021,0.767,0.295,0.79,0.708l0.034,0.561c0.027,0.413-0.285,0.77-0.699,0.798    C57.558,210.875,57.541,210.876,57.523,210.876z"/>
	</g>
	<g>
		<g>
			<g>
				<path style="fill:#7378C0;" d="M294.774,225.611c-2.748,8.737-0.048,20.574,1.652,29.37      c3.074,15.904,10.198,30.534,13.319,46.29c0.198,0.997,1.921,0.788,1.798-0.243c-2.946-24.912-21.083-48.872-16.206-75.261      C295.406,225.4,294.888,225.247,294.774,225.611L294.774,225.611z"/>
				<g>
					<path style="fill:#7378C0;" d="M294.455,229.052c3.313-2.382,4.137-9.241,2.649-9.723       C295.616,218.847,292.783,223.35,294.455,229.052z"/>
					<path style="fill:#7378C0;" d="M288.635,230.341c-0.914,1.137,0.185,7.673,5.619,10.467       C293.698,231.849,289.401,229.387,288.635,230.341z"/>
					<path style="fill:#7378C0;" d="M300.388,239.335c-1.696,0.279-6.185,6.488-3.992,12.742       C303.336,244.256,301.811,239.101,300.388,239.335z"/>
					<path style="fill:#7378C0;" d="M289.703,254.914c-0.783,1.554,2.565,8.623,10.132,10.192       C296.42,255.137,290.359,253.611,289.703,254.914z"/>
					<path style="fill:#7378C0;" d="M305.484,259.075c-1.894,0.361-6.152,7.471-2.79,14.448       C309.523,264.531,307.073,258.772,305.484,259.075z"/>
					<path style="fill:#7378C0;" d="M295.803,278.048c-0.672,1.698,3.528,8.839,11.627,9.844       C302.88,277.712,296.367,276.624,295.803,278.048z"/>
					<path style="fill:#7378C0;" d="M293.643,240.625c0.174,0.107,0.353,0.183,0.517,0.131L293.643,240.625z"/>
					<path style="fill:#7378C0;" d="M293.643,240.625C293.478,240.524,293.543,240.579,293.643,240.625       C293.608,240.604,293.643,240.625,293.643,240.625z"/>
				</g>
			</g>
			<g>
				<path style="fill:#7378C0;" d="M341.99,241.999c-5.493,22.378-21.271,46.534-16.657,70.16c0.188,0.963,1.861,0.759,1.736-0.235      c-3.168-25.186,13.084-45.592,15.608-69.832C342.718,241.697,342.082,241.622,341.99,241.999L341.99,241.999z"/>
				<path style="fill:#7378C0;" d="M342.012,244.904c2.662-3.014,1.833-9.873,0.267-10.032S339.025,239.695,342.012,244.904z"/>
				<path style="fill:#7378C0;" d="M344.518,258.554c1.083,1.389-1.618,8.043-9.75,9.849      C337.133,259.083,343.61,257.389,344.518,258.554z"/>
				<path style="fill:#7378C0;" d="M336.112,280.556c1.428,1.372-0.428,9.11-9.092,12.305      C328.057,282.232,334.914,279.405,336.112,280.556z"/>
				<path style="fill:#7378C0;" d="M336.653,246.367c1.593,0.249,4.687,6.042,1.273,11.93      C332.777,251.01,335.317,246.159,336.653,246.367z"/>
				<path style="fill:#7378C0;" d="M329.382,264.176c2.015,0.24,5.661,7.329,1.02,14.825      C324.216,270.139,327.692,263.975,329.382,264.176z"/>
			</g>
			<g>
				<path style="fill:#7378C0;" d="M319.683,195.466c-3.58,16.541-6.506,32.992-5.73,50.066c0.857,18.857,5.019,37.243,4.941,56.231      c-0.007,1.621,2.507,1.622,2.518,0c0.129-18.295-4.247-35.628-5.698-53.743c-1.446-18.06,3.681-34.779,4.819-52.439      C320.563,195.097,319.786,194.99,319.683,195.466L319.683,195.466z"/>
				<path style="fill:#7378C0;" d="M319.882,197.817c2.918-3.074,1.783-9.911,0.01-10.035      C318.12,187.658,316.358,192.677,319.882,197.817z"/>
				<path style="fill:#7378C0;" d="M325.868,201.427c1.131,1.18-0.64,7.657-7.865,10.19      C319.192,202.693,324.919,200.437,325.868,201.427z"/>
				<path style="fill:#7378C0;" d="M311.162,210.715c2.052,0.02,7.14,5.965,4.073,13.065      C307.257,216.504,309.441,210.699,311.162,210.715z"/>
				<path style="fill:#7378C0;" d="M306.642,236.39c2.306-0.396,9.68,5.248,8.239,13.855      C303.892,243.694,304.708,236.723,306.642,236.39z"/>
				<path style="fill:#7378C0;" d="M308.759,268.595c2.504-0.328,10.898,5.878,9.798,14.855      C306.153,276.155,306.659,268.87,308.759,268.595z"/>
				<path style="fill:#7378C0;" d="M322.508,223.499c-2.145-0.225-8.805,5.313-7.221,13.02      C325.264,229.951,324.307,223.687,322.508,223.499z"/>
				<path style="fill:#7378C0;" d="M321.421,247.983c-2.389,0.577-8.012,9.06-4.081,16.724      C326.263,253.854,323.425,247.499,321.421,247.983z"/>
			</g>
		</g>
		<path style="fill:#FF75C0;" d="M331.99,343.896h-26.446c-4.601-13.561-7.528-28.95-8.762-46.19h43.969    C339.719,313.893,336.997,329.373,331.99,343.896z"/>
		<path style="opacity:0.35;fill:#65529D;" d="M328.559,297.706c-1.576,48.411-20.229,42.193-25.078,39.528    c0.65,2.262,1.327,4.494,2.063,6.662h26.446c5.007-14.523,7.729-30.002,8.762-46.19H328.559z"/>
	</g>
	<g>
		<path style="fill:#FFC5DB;" d="M359.102,321.923c0.156-3.208,4.173-2.46,4.338-4.952c0.262-3.947-6.738-3.986-6.831-6.135    c-0.094-2.149,12.81-2.429,12.821-7.225c0.011-4.796-14.284-1.619-11.357-9.125c-3.768,6.104,3.046,7.319,3.146,8.814    c0.149,2.237-11.336,2.211-10.932,7.568c0.404,5.357,10.091,3.083,10.277,5.98C360.698,318.903,357.802,319.556,359.102,321.923z"/>
		<g>
			<path style="fill:#CC487E;" d="M350.365,340.458c-3.847-4.437-5.013-10.481-4.487-17.538h26.522     c0.942,6.932,0.029,13.129-4.586,17.86C363.876,344.816,354.442,345.16,350.365,340.458z"/>
			<path style="fill:#CC487E;" d="M369.801,331.035c-1.723-2.083,2.044-3.598,3.597-3.429c2.506,0.272,4.556,2.249,4.817,4.773     c0.293,2.842-1.488,6.092-4.362,6.806c-1.803,0.448-3.727-0.017-5.318-0.89c-1.488-0.816-0.159-3.094,1.331-2.276     c-0.359-0.197-0.2-0.095,0.058,0.003c0.309,0.117,0.421,0.184,0.669,0.273c0.605,0.216,1.234,0.384,1.88,0.383     c2.008-0.005,3.35-2.06,3.13-3.979c-0.152-1.333-1.323-2.367-2.644-2.489c-0.51-0.047-0.938,0.06-1.353,0.351     C371.15,330.879,370.4,331.76,369.801,331.035L369.801,331.035z"/>
			<path style="opacity:0.2;fill:#65529D;" d="M378.215,332.378c-0.261-2.523-2.311-4.501-4.817-4.772     c-0.194-0.021-0.422-0.016-0.669,0.013c0.004-1.521-0.109-3.09-0.328-4.699h-4.443c0.565,6.037-0.331,11.437-4.027,15.614     c-3.362,3.799-11.417,4.123-14.897-0.302c-0.513-0.652-0.952-1.354-1.356-2.078c0.691,1.558,1.562,3.008,2.687,4.306     c4.076,4.702,13.511,4.358,17.449,0.321c0.633-0.649,1.191-1.328,1.689-2.031c1.371,0.559,2.897,0.796,4.349,0.435     C376.726,338.47,378.508,335.22,378.215,332.378z M372.473,336.676c-0.54,0.001-1.065-0.129-1.577-0.293     c0.924-1.919,1.468-3.988,1.7-6.181c0.117-0.008,0.238-0.006,0.364,0.006c1.321,0.123,2.492,1.156,2.644,2.489     C375.823,334.616,374.48,336.671,372.473,336.676z"/>
		</g>
	</g>
	<g>
		<path style="fill:#50426E;" d="M161.486,262.487c-1.015-3.21,2.279-7.257-0.517-10.299c-2.883-3.136-16.4-6.011-21.06-24.436    c-3.329-13.164,5.34-23.786,11.854-22.227c-0.777-5.816,9.324-8.083,15.444-7.372c17.135,1.99,21.665,21.257,24.843,24.796    c2.693,3,5.955,4.457,9.496,6.251c6.775,3.432,13.311,6.418,15.817,14.969c2.373,8.097-0.32,15.941-5.537,22.199    c-9.284,11.137-26.562,17.251-37.5,10.828C169.232,274.203,164.091,270.73,161.486,262.487z"/>
		<path style="opacity:0.2;fill:#50426E;" d="M182.487,254.001c-7.141-5.041-6.45-14.212-5.135-19.848    c2.442,0.47,7.045-5.354,2.175-9.986c-5.598,3.647-12.501,20.095-14.856,29.713l12.399,10.709L182.487,254.001z"/>
		<path style="opacity:0.2;fill:#50426E;" d="M149.453,242.607c-5.61-5.45-9.555-12.891-10.275-20.218    c0.034,1.72,0.265,3.516,0.731,5.363c4.659,18.425,18.177,21.3,21.06,24.436c1.467,1.596,1.258,3.469,0.874,5.353    c2.704-1.074,2.366-2.657,1.325-4.413C160.162,248.055,156.029,248.995,149.453,242.607z"/>
		<path style="opacity:0.2;fill:#50426E;" d="M217.364,244.167c-2.506-8.551-9.042-11.537-15.817-14.969    c-3.541-1.794-6.803-3.251-9.496-6.251c-3.178-3.539-7.708-22.806-24.843-24.796c-0.858-0.1-1.795-0.141-2.769-0.122    c9.04,0.96,14.717,6.678,17.328,12.075c2.818,5.824,3.945,12.587,8.454,17.472c4.509,4.885,16.533,3.945,22.169,10.333    c2.907,3.295,4.665,6.94,5.685,9.697C217.935,246.468,217.702,245.32,217.364,244.167z"/>
		
			<linearGradient id="SVGID_00000109011251140698215740000009556503835606055046_" gradientUnits="userSpaceOnUse" x1="144.4823" y1="310.9919" x2="144.4823" y2="270.4079">
			<stop offset="0" style="stop-color:#FFB8A8"/>
			<stop offset="1" style="stop-color:#FF9696"/>
		</linearGradient>
		<path style="fill:url(#SVGID_00000109011251140698215740000009556503835606055046_);" d="M154.328,259.926    c10.204,1.317-8.447,27-11.52,37.322c-1.02,2.549-5.553,11.221-10.277,6.548C127.298,296.961,145.814,258.828,154.328,259.926z"/>
		<path style="fill:#D37A85;" d="M154.328,259.926c-0.017-0.002-0.034-0.003-0.05-0.005c0,0-4.813-1.441-13.788,14.727    c1.661,1.646,4.837,4.01,8.943,4.832c-3.369,6.497-7.086,13.078-8.315,17.205c-0.824,2.06-3.942,8.117-7.601,7.901    c2.952,2.951,7.531-2.962,9.292-7.337C145.881,286.926,164.532,261.243,154.328,259.926z"/>
		<path style="fill:#4E477A;" d="M120.815,306.802c13.053-2.291,28.116,8.698,30.577,7.148c0,0,39.371-0.701,43.465,0.565    c4.102,1.268,17.23-7.781,22.153-7.413c4.923,0.368-23.93,26.435-50.869,25.449C152.055,331.986,120.815,306.802,120.815,306.802z    "/>
		
			<linearGradient id="SVGID_00000066488281039880718050000000123352865534657412_" gradientUnits="userSpaceOnUse" x1="169.2323" y1="262.3334" x2="169.2323" y2="236.2025">
			<stop offset="0" style="stop-color:#FFB8A8"/>
			<stop offset="1" style="stop-color:#FF9696"/>
		</linearGradient>
		<path style="fill:url(#SVGID_00000066488281039880718050000000123352865534657412_);" d="M174.069,235.631    c0,0-7.744,6.32-9.135,11.007c1.33,4.287-4.964,5.168-11.912,10.637c0,0,6.06,4.73,15.668,4.73c9.608,0,16.753-6.356,16.753-6.356    c-4.73-4.73-10.551-5.266-11.763-9.429C172.681,242.789,173.026,239.094,174.069,235.631z"/>
		<path style="fill:#D37A85;" d="M173.68,246.22c-0.998-3.431-0.654-7.126,0.389-10.589c0,0-7.744,6.32-9.135,11.007    c0.503,1.621-0.087,2.755-1.387,3.834c1.196,2.035,5.888,8.711,15.196,6.951c2.57-0.486,4.509-1.355,6.001-2.388    C180.153,250.901,174.833,250.183,173.68,246.22z"/>
		<path style="fill:#FF75C0;" d="M155.841,254.913c-2.513,1.478-10.235,6.6-15.038,16.504c0,0,0.197,3.153,8.278,5.518    c-0.641,7.686,7.146,7.971,7.452,15.725c0.185,4.673-6.171,17.237-6.319,21.672c0,0,15.208,14.563,43.969-0.253    c-0.872-9.165-6.803-16.38-7.162-21.772c-0.443-6.652,1.742-15.306,1.742-15.306s4.836-0.806,8.901-5.093    c0,0-4.533-12.515-14.19-18.428c0,0-7.686,4.385-15.299,4.459C160.56,258.014,155.841,254.913,155.841,254.913z"/>
		<path style="fill:#584D87;" d="M155.757,331.41c0,0-1.321,6.027,4.166,8.089c0,0,22.353,4.954,43.081-3.465    c21.355-8.674,25.808-20.759,19.915-26.606c-7.829-7.767-23.166,5.756-37.391,11.843    C171.303,327.356,155.757,331.41,155.757,331.41z"/>
		<path style="opacity:0.2;fill:#4E477A;" d="M160.832,329.982c1.358,2.117,4.452,5.022,10.133,1.3    c8.172-5.354,16.486-7.89,16.486-7.89v-1.504l-1.46-0.82c-0.154,0.068-0.308,0.135-0.462,0.201    C176.327,325.206,166.574,328.293,160.832,329.982z"/>
		<path style="opacity:0.3;fill:#4E477A;" d="M223.141,309.656c2.36,6.763-3.422,17.979-21.648,25.383    c-20.727,8.42-43.261,1.641-43.261,1.641c-0.962-0.362-1.715-0.845-2.302-1.397c0.464,1.604,1.557,3.3,3.993,4.215    c0,0,22.353,4.954,43.081-3.465C224.083,327.47,228.693,315.586,223.141,309.656z"/>
		<path style="fill:#D0CCDC;" d="M181.344,336.881c3.1,0.954,3.429-2.063,7.045-1.363c3.17,0.613,2.827,2.769,6.772,3.723    s6.636,2.025,6.261,3.91c-0.352,1.772-5.636,1.84-9.229,1.363c-7.431-0.987-9.863-2.454-14.372-2.59L181.344,336.881z"/>
		<path style="fill:#D0CCDC;" d="M192.629,343.336c-7.077-1.155-9.577-2.611-13.715-2.977l-1.093,1.564    c4.509,0.136,6.941,1.603,14.372,2.59c3.593,0.477,8.877,0.409,9.229-1.363c0.017-0.087,0.026-0.172,0.03-0.255    C200.02,343.974,195.698,343.837,192.629,343.336z"/>
		<path style="fill:#D0CCDC;" d="M154.424,337.415c-3.149,0.789-3.307-2.241-6.958-1.733c-3.2,0.445-2.979,2.616-6.973,3.36    c-3.993,0.744-6.74,1.671-6.473,3.573c0.252,1.788,5.524,2.135,9.138,1.849c7.476-0.592,9.987-1.928,14.497-1.826L154.424,337.415    z"/>
		<path style="fill:#B0ABC6;" d="M143.129,343.342c-3.385,0.364-8.206,0.229-9.109-1.203c-0.021,0.151-0.022,0.309,0.001,0.475    c0.252,1.788,5.524,2.135,9.138,1.849c7.476-0.592,9.987-1.928,14.497-1.826l-0.938-1.516    C152.786,341.345,150.077,342.594,143.129,343.342z"/>
		<path style="fill:#65529D;" d="M181.184,335.216c0,0,1.246,6.12-3.928,7.795c0,0-21.079,3.38-40.626-6.499    c-20.138-10.178-24.337-22.577-18.78-28.009c7.382-7.216,21.846,7.387,35.26,14.476    C166.524,330.068,181.184,335.216,181.184,335.216z"/>
		<path style="opacity:0.2;fill:#4E477A;" d="M170.148,330.921c-5.023-2.092-11.15-4.83-17.038-7.941    c-5.913-3.124-12.03-7.709-17.655-11.242l-11.74,10.244C139.077,323.718,154.16,326.558,170.148,330.921z"/>
		
			<linearGradient id="SVGID_00000080920116134703444870000013764179211467656072_" gradientUnits="userSpaceOnUse" x1="164.3843" y1="248.431" x2="164.3843" y2="204.4691">
			<stop offset="0" style="stop-color:#FFB8A8"/>
			<stop offset="1" style="stop-color:#FF9696"/>
		</linearGradient>
		<path style="fill:url(#SVGID_00000080920116134703444870000013764179211467656072_);" d="M175.847,223.216    c-1.367,0.943-1.855,4.938-1.855,4.938c-2.675-1.568-0.866-4.427-3.6-5.559c-11.732,1.32-18.075-7.873-18.075-7.873    c-5.321,2.513-4.139,8.573-4.139,8.573c0.591,18.773,11.59,24.84,14.437,24.538c5.676-0.604,10.136-5.037,13.195-15.308    c2.163-0.273,4.605-2.381,4.875-4.918C180.943,225.173,178.707,222.062,175.847,223.216z"/>
		<path style="fill:#D37A85;" d="M178.806,227.856c-0.136,1.176-0.969,2.045-1.861,1.942c-0.892-0.103-1.505-1.14-1.369-2.316    c0.136-1.176,0.969-2.046,1.862-1.942C178.329,225.643,178.942,226.68,178.806,227.856z"/>
		<g>
			<path style="fill:#4E3A5E;" d="M156.316,239.411c0,0,4.322,0.048,9.638-2.49c0,0-0.078,4.964-3.801,5.861     C158.876,243.572,156.316,239.411,156.316,239.411z"/>
			<path style="fill:none;4E9;" d="M158.194,239.782c0,0,3.101-0.178,6.83-1.958c0,0-0.606,1.894-3.202,2.668     C159.412,241.21,158.194,239.782,158.194,239.782z"/>
		</g>
		<path style="opacity:0.3;fill:#65529D;" d="M187.019,292.308c-0.443-6.652,1.742-15.305,1.742-15.305s4.836-0.806,8.901-5.093    c0,0-0.745-2.032-2.245-4.831c-1.161-0.628-2.352-1.181-2.942-0.988c-3.182,1.043-4.292,4.568-5.589,7.285    c-4.511,9.449-12.269,12.519-23.389,13.005c-8.596,0.376-13.867-5.518-13.867-5.518c1.721,4.204,7.452,6.292,6.867,12.659    c16.251-6.765,26.108,4.562,28.811,24.382c2.8-0.972,5.752-2.216,8.873-3.824C193.31,304.915,187.379,297.699,187.019,292.308z"/>
		<path style="fill:#D37A85;" d="M157.977,229.777c0.119-1.894-0.664-3.848-2.244-5.251c0.977,0.489,1.758,1.282,2.318,2.189    c0.544,0.902,0.951,1.964,0.927,3.036c-0.009,2.027-1.032,3.837-2.466,5.339c0.865,0.738,2.048,1.317,3.363,1.456    c-2.203,0.313-3.666-0.337-5.344-1.322C156.373,233.758,157.886,231.978,157.977,229.777z"/>
		
			<linearGradient id="SVGID_00000090288150158964061900000006455801155165043078_" gradientUnits="userSpaceOnUse" x1="181.824" y1="310.9919" x2="181.824" y2="270.4079">
			<stop offset="0" style="stop-color:#FFB8A8"/>
			<stop offset="1" style="stop-color:#FF9696"/>
		</linearGradient>
		<path style="fill:url(#SVGID_00000090288150158964061900000006455801155165043078_);" d="M187.011,259.435    c-10.286-0.247,4.252,27.969,5.724,38.638c-3.252,0.296-16.851-2.71-24.439-0.148c-3.908,1.069-9.169,8.079-8.065,8.839    c1.309,0.902,4.222-4.405,5.503-4.503c-1.232,1.872-3.586,7.333-1.812,7.431c1.378,0.077,2.403-6.2,4.148-6.723    c-1.548,2.582-3.076,6.692-1.719,7.11c1.281,0.394,3.128-6.882,4.212-6.685c-0.377,0.495-2.481,5.444-0.94,5.584    c1.084,0.099,2.186-5.874,4.586-6.274c4.079-0.679,21.91,8.951,27.691,3.4C208.108,300.142,195.593,259.64,187.011,259.435z"/>
		<path style="fill:#D37A85;" d="M201.9,306.104c4.081-3.919,0.072-22.763-5.593-35.275c-1.491-0.19-3.054-0.138-4.684,0.137    c-2.511,0.423-4.749,1.112-6.418,2.825c0.513,1.748,1.1,3.565,1.715,5.398c4.359-0.394,9.572-3.071,9.572-3.071    c1.127,2.113,8.936,24.575,4.016,28.815c-6.622,5.707-21.347-4.298-26.54-2.168C177.497,301.594,195.992,311.777,201.9,306.104z"/>
		<path style="fill:#50426E;" d="M160.347,222.447c0.096,1.101,1.661,0.145,4.837,0.262c2.013,0.074,3.866,1.029,4.107,0.721    c0.241-0.307-0.895-1.451-3.932-1.834C162.893,221.286,160.276,221.64,160.347,222.447z"/>
		<path style="fill:#50426E;" d="M153.9,223.457c0.249,0.989-1.409,0.655-3.404,1.61c-1.43,0.685-2.38,1.702-2.711,1.576    c-0.331-0.126,0.134-1.298,1.883-2.444C151.279,223.144,153.745,222.841,153.9,223.457z"/>
		<g>
			<g>
				<g>
					<path style="fill:#4E3A5E;" d="M168.572,225.714c0,0-0.016,0.606-0.45,1.4c-0.212,0.395-0.535,0.831-0.986,1.205       c-0.445,0.382-1.033,0.673-1.655,0.818c-0.409,0.076-0.539,0.089-0.947,0.079c-0.354,0-0.649-0.091-0.942-0.193       c-0.579-0.214-1.021-0.584-1.307-0.942c-0.293-0.357-0.448-0.702-0.536-0.945c-0.086-0.245-0.103-0.393-0.103-0.393       s0.414,0.436,1.073,0.858c0.334,0.205,0.73,0.386,1.16,0.472c0.207,0.049,0.453,0.058,0.649,0.055       c0.142,0.017,0.574-0.045,0.709-0.091c0.473-0.09,0.917-0.288,1.32-0.521c0.401-0.239,0.755-0.525,1.054-0.795       C168.199,226.175,168.572,225.714,168.572,225.714z"/>
				</g>
			</g>
			<g>
				<path style="fill:#4E3A5E;" d="M167.5,227.626c0,0,1.422,0.56,1.502,0.423c0.081-0.137-1.112-0.931-1.112-0.931L167.5,227.626z"/>
				<path style="fill:#4E3A5E;" d="M167.988,226.999c0,0,1.607,0.199,1.64,0.092c0.033-0.107-1.39-0.682-1.39-0.682L167.988,226.999      z"/>
			</g>
		</g>
		<g>
			<g>
				<g>
					<path style="fill:#4E3A5E;" d="M149.684,229.038c0,0,0.365,0.418,0.928,0.866c0.285,0.219,0.625,0.433,0.994,0.543       c0.183,0.059,0.373,0.087,0.566,0.092c0.095,0.012,0.194,0.003,0.294-0.009c0.033-0.004,0.135-0.01,0.113-0.011l0.187-0.046       c0.146-0.021,0.212-0.057,0.289-0.084c0.076-0.016,0.17-0.076,0.258-0.118c0.173-0.1,0.353-0.206,0.512-0.339       c0.323-0.263,0.604-0.574,0.842-0.858c0.465-0.575,0.779-1.025,0.779-1.025s0.058,0.554-0.211,1.336       c-0.132,0.39-0.349,0.838-0.711,1.253c-0.186,0.2-0.391,0.415-0.654,0.569c-0.221,0.15-0.631,0.32-0.865,0.368l-0.189,0.036       c-0.147,0.028-0.176,0.015-0.269,0.023c-0.156,0.01-0.311,0.012-0.467-0.012c-0.312-0.019-0.606-0.141-0.865-0.266       c-0.522-0.266-0.869-0.669-1.086-1.028C149.685,229.602,149.684,229.038,149.684,229.038z"/>
				</g>
			</g>
			<g>
				<path style="fill:#4E3A5E;" d="M150.885,230.916c0,0-1.371,0.675-1.463,0.545c-0.092-0.13,1.031-1.019,1.031-1.019      L150.885,230.916z"/>
				<path style="fill:#4E3A5E;" d="M150.348,230.331c0,0-1.585,0.33-1.626,0.226c-0.041-0.104,1.329-0.793,1.329-0.793      L150.348,230.331z"/>
			</g>
		</g>
		<path style="fill:#FF75C0;" d="M183.472,253.481c-3.252,7.292-5.123,18.507,0.426,24.695c0,0,10.783-2.079,14.848-6.365    C198.746,271.811,193.228,258.211,183.472,253.481z"/>
		<path style="opacity:0.3;fill:#4E477A;" d="M179.825,340.742c0,0-21.877,5.23-42.02-4.951    c-15.634-7.902-21.859-18.093-21.53-25.033c-2.738,6.137,2.645,16.804,20.354,25.755c19.547,9.879,40.626,6.499,40.626,6.499    c1.59-0.515,2.573-1.449,3.173-2.497C180.237,340.597,180.037,340.673,179.825,340.742z"/>
		<path style="opacity:0.2;fill:#50426E;" d="M148.177,223.294c0,0-1.182-6.061,4.139-8.573c0,0,0.305,0.438,0.894,1.108    l0.027-0.092c1.403,1.473,4.238,4.166,7.301,5.453c9.944,4.179,17.284-1.503,17.284-1.503s-18.881,5.495-26.349-9.722    c0,0-0.254,0.927,0.065,2.476c-2.648,0.483-9.882,7.058-2.566,17.939l0.001-0.002    C148.541,228.248,148.259,225.893,148.177,223.294z"/>
		<path style="opacity:0.2;fill:#50426E;" d="M156.217,203.906c0,0,6.951-4.791,15.217-0.564c7.636,3.905,7.421,12.493,12.118,18.13    c-5.354-3.57-5.26-13.621-12.493-17.378C163.453,200.143,156.217,203.906,156.217,203.906z"/>
		<path style="opacity:0.2;fill:#50426E;" d="M156.123,207.428c0,0,13.949-3.523,17.19,9.44    C173.313,216.869,165.14,205.596,156.123,207.428z"/>
		<path style="opacity:0.2;fill:#50426E;" d="M184.122,229.573c2.858,19.703,27.53,11.622,33.609,25.197    c0.361-1.659,0.534-3.358,0.495-5.083C210.922,241.039,190.362,247.163,184.122,229.573z"/>
		<path style="opacity:0.2;fill:#50426E;" d="M181.461,236.928c0.259,2.931,1.454,9.558,8.575,12.844    c8.348,3.852,11.076,5.591,12.468,8.611c-3.568-4.113-5.87-4.521-12.505-7.35C179.551,246.579,181.461,236.928,181.461,236.928z"/>
		<g>
			<path style="fill:#50426E;" d="M159.672,256.181c-0.516-3.853-3.689-6.212-6.271-8.836c-2.895-2.944-6.161-6.899-7.456-10.857     c-0.167-0.511-0.852-0.289-0.783,0.216c1.159,8.509,11.476,11.979,14.179,19.522C159.401,256.39,159.699,256.381,159.672,256.181     L159.672,256.181z"/>
		</g>
		<g>
			<path style="fill:#50426E;" d="M152.014,206.229c-0.27-0.831-0.905-2.602-0.534-3.572c1.158-3.026,5.696-4.163,8.586-4.453     c3.987-0.4,7.034,0.928,10.411,2.873c0.254,0.146,0.624-0.165,0.429-0.429c-4.63-6.277-24.562-3.741-19.385,5.79     C151.666,206.702,152.11,206.523,152.014,206.229L152.014,206.229z"/>
		</g>
		<g>
			<path style="fill:#50426E;" d="M189.551,219.294c2.141,5.661,6.422,8.539,11.773,11.095c3.094,1.477,6.421,2.488,9.448,4.068     c4.046,2.111,10.112,7.706,6.637,12.801c-0.243,0.356,0.292,0.748,0.587,0.453c4.758-4.743-2.169-11.696-6.232-13.929     c-3.206-1.762-6.782-2.763-10.108-4.295c-2.038-0.938-3.986-2.011-5.898-3.175c-2.987-1.818-4.514-4-6.006-7.104     C189.699,219.096,189.506,219.175,189.551,219.294L189.551,219.294z"/>
		</g>
		<g>
			<path style="fill:#D0CBE8;" d="M168.52,321.888h-43.211c-0.707,0-1.489-0.573-1.748-1.279l-10.808-29.473     c-0.259-0.707,0.104-1.281,0.811-1.281h43.211c0.707,0,1.489,0.572,1.748,1.279l10.808,29.473     C169.59,321.315,169.227,321.888,168.52,321.888z"/>
			<polygon style="fill:#D0CBE8;" points="188.188,321.888 126.15,321.888 126.088,319.303 188.127,319.303    "/>
			<path style="fill:#EEECF9;" d="M166.796,321.888h-43.211c-0.707,0-1.489-0.573-1.748-1.279l-10.808-29.473     c-0.259-0.707,0.104-1.281,0.811-1.281h43.211c0.707,0,1.489,0.572,1.748,1.279l10.808,29.473     C167.867,321.315,167.503,321.888,166.796,321.888z"/>
			<path style="fill:#D0CBE8;" d="M141.191,304.962c1.421,1.421,1.512,3.634,0.203,4.943c-1.309,1.309-3.522,1.218-4.943-0.203     c-1.421-1.421-1.512-3.634-0.203-4.943C137.557,303.45,139.77,303.541,141.191,304.962z"/>
			<path style="opacity:0.3;fill:none;" d="M165.601,320.382c0.119-0.212,0.137-0.496,0.022-0.809l-10.049-27.405     c-0.241-0.657-0.969-1.189-1.626-1.189H113.77c-0.427,0-0.718,0.226-0.804,0.564L165.601,320.382z"/>
			<g>
				<rect x="176.601" y="320.252" style="fill:#988CE6;" width="3.088" height="0.862"/>
				<rect x="180.91" y="320.252" style="fill:#988CE6;" width="3.089" height="0.862"/>
				<circle style="fill:#988CE6;" cx="170.891" cy="320.683" r="0.539"/>
			</g>
		</g>
	</g>
</g>
</svg>
