<?xml version="1.0" encoding="utf-8"?>
<!-- Generator: Adobe Illustrator 27.5.0, SVG Export Plug-In . SVG Version: 6.00 Build 0)  -->
<svg xmlns="http://www.w3.org/2000/svg" xmlns:xlink="http://www.w3.org/1999/xlink" version="1.1" x="0px" y="0px" viewBox="0 0 3710 3710" style="enable-;background-color:transparent;" xml:space="preserve">
<g id="Background">
	<g>
		<g>
			<rect style="fill:none;" width="3710" height="3710" fill="none"/>
		</g>
	</g>
</g>
<g id="Illustration">
	<g>
		<linearGradient id="SVGID_1_" gradientUnits="userSpaceOnUse" x1="3492.7078" y1="3292.4119" x2="1410.7235" y2="1470.677">
			<stop offset="0" style="stop-color:#DAE3FE"/>
			<stop offset="1" style="stop-color:#E9EFFD"/>
		</linearGradient>
		<path style="fill:url(#SVGID_1_);" d="M3138.879,2346.304c-269.076,633.566-985.833,988.494-1607.406,892.754    c-101.142-15.579-378.427-61.986-623.925-280.919C434.949,2536.677,333.88,1702.127,715.112,1113.999    c277.469-428.053,774.862-670.703,1247.482-658.565c101.802,2.614,491.952,18.727,834.825,301.453    c50.361,41.527,161.438,140.206,261.545,296.755C3294.034,1421.247,3314.239,1933.401,3138.879,2346.304z"/>
		<g>
			<path style="fill:#BDD0FB;" d="M582.935,536.272c-2.594-11.044,12.941-18.384,22.453-10.67     c96.599,78.332,328.699,312.902,270.855,722.83c-72.573,514.316,51.5,701.986,205.94,816.46c0,0-212.098-53.833-345.54-244.264     C409.013,1353.077,629.063,732.632,582.935,536.272z"/>
			<path style="fill:none;" d="M656.448,696.914c12.085,57.256,22.855,114.688,31.179,172.377     c8.672,57.641,15.318,115.484,19.866,173.422c4.29,57.948,7.32,115.957,7.493,173.99c0.474,58.03-1.938,116.013-4.596,174.221     c-2.28,58.188-4.96,116.795-0.701,175.817c4.189,58.902,16.587,118.318,41.191,174.017c6.15,13.882,12.618,27.72,19.965,41.092     c7.063,13.495,14.82,26.724,22.849,39.827c16.211,26.143,34.46,51.403,54.796,75.377c40.819,47.868,90.049,90.33,144.282,126.268     c5.708,3.782,13.886,2.853,18.267-2.076c4.301-4.839,3.341-11.737-2.1-15.566l-0.039-0.027     c-12.904-9.063-25.673-18.243-37.923-27.882c-6.216-4.736-12.175-9.7-18.24-14.566c-5.844-5.057-11.918-9.921-17.575-15.129     c-23.029-20.497-44.363-42.365-63.719-65.487c-38.933-46.03-70.1-97.322-93.713-150.496     c-11.462-26.71-20.625-54.103-27.315-82.011c-6.666-27.914-10.859-56.314-13.177-84.942     c-4.644-57.288-2.546-115.315-0.75-173.513c1.709-58.213,2.963-116.721,1.427-175.183c-0.677-29.229-1.962-58.444-3.852-87.624     c-0.848-14.594-2.023-29.172-3.167-43.749c-1.306-14.568-2.706-29.127-4.242-43.673c-6.271-58.179-14.594-116.164-25.027-173.841     c-10.753-57.634-23.274-115.002-38.333-171.857c-0.431-1.626-2.305-2.641-4.186-2.269     C657.28,693.792,656.119,695.337,656.448,696.914z"/>
		</g>
		<g>
			<g>
				<path style="fill:#91B3FA;" d="M833.172,1767.332c-11.844,12.567-32.674,8.953-39.799-6.777      c-39.315-86.795-128.281-342.249,18.65-636.544c124.077-248.52,167.739-395.068,182.951-462.969      c3.217-14.358,22.893-16.265,28.833-2.802C1089.334,806.766,1262.356,1311.971,833.172,1767.332z"/>
				<path style="fill:none;" d="M811.657,1758.174c-0.421,0.076-0.855,0.111-1.299,0.104c-3.723-0.057-6.695-3.121-6.638-6.844      c0.065-4.221,8.279-426.103,165.189-779.446c1.511-3.4,5.494-4.934,8.9-3.426c3.403,1.513,4.936,5.495,3.426,8.9      c-155.769,350.771-163.968,769.986-164.033,774.178C817.153,1754.92,814.77,1757.616,811.657,1758.174z"/>
			</g>
		</g>
		<g>
			<g>
				
					<linearGradient id="SVGID_00000053540466709347697380000009731572514936174730_" gradientUnits="userSpaceOnUse" x1="-159.251" y1="6336.7056" x2="2179.0293" y2="-1565.0457" gradientTransform="matrix(-1 0 0 1 3686.0842 0)">
					<stop offset="0" style="stop-color:#4F52FF"/>
					<stop offset="1" style="stop-color:#4042E2"/>
				</linearGradient>
				<path style="fill:url(#SVGID_00000053540466709347697380000009731572514936174730_);" d="M2512.364,1115.665      c-37.565-65.98-66.469-154.711-7.435-221.126c106.627-119.952,319.876-146.607,373.191,39.986      c22.051,77.186,6.476,137.183-19.372,181.004c-23.942,40.584,5.573,91.732,52.694,91.732h339.865v453.466      c0,40.947-46.004,64.385-79.644,41.039c-227.998-158.248-346.886,28.412-347.137,112.418      c-0.281,93.297,40.264,313.213,186.874,306.545c66.998-3.041,122.866-25.571,163.78-49.142      c33.883-19.518,76.127,4.251,76.127,43.354v422.663H2899.58c-41.76,0-66.665,46.119-43.948,81.16      c26.099,40.257,47.951,98.628,49.142,181.701c3.032,211.466-319.876,173.267-399.845,106.629      c-57.121-47.604-59.472-200.23-14.997-294.622c16.429-34.874-10.594-74.868-49.147-74.868h-342.362v-462.517      c0-33.716-36.621-54.451-65.609-37.225c-58.922,35.015-149.932,78.914-240.939,82.868      c-153.273,6.668-173.266-166.599-179.932-299.884c-5.886-117.713,218.538-308.268,395.692-192.096      c29.027,19.035,88.601,46.887,88.601,12.178V1207.26h363.316C2506.598,1207.26,2535.637,1156.552,2512.364,1115.665z"/>
				<path style="fill:#FCFCFC;" d="M2700.722,2966.493c-17.899,0-36.437-1.179-55.386-3.569      c-61.013-7.697-116.465-27.104-144.724-50.653c-61.638-51.37-60.746-209.365-16.78-302.674      c6.607-14.021,5.531-29.731-2.947-43.097c-8.8-13.873-23.792-22.156-40.101-22.156h-342.36c-3.723,0-6.742-3.019-6.742-6.742      v-462.516c0-13.346-6.904-25.244-18.465-31.822c-11.608-6.61-25.422-6.469-36.961,0.392      c-60.628,36.029-152.191,79.814-244.087,83.807c-70.662,3.141-121.667-31.094-151.447-101.572      c-25.26-59.785-32.128-137.031-35.512-204.714c-3.22-64.331,56.499-146.565,141.995-195.538      c90.912-52.068,187.18-52.987,264.126-2.532c26.722,17.527,62.82,32.506,74.553,26.189c0.988-0.533,3.608-1.949,3.608-8.372      v-433.667c0-3.723,3.019-6.742,6.742-6.742h363.318c19.525,0,37.023-10.041,46.801-26.857      c9.893-17.014,9.949-37.448,0.152-54.662c-53.668-94.26-55.956-173.428-6.617-228.94c65.18-73.322,168.754-111.29,251.81-92.357      c65.075,14.838,112.278,62.771,132.906,134.97c19.45,68.084,12.704,130.756-20.049,186.284      c-9.949,16.865-10.081,37.105-0.352,54.142c9.807,17.168,27.466,27.42,47.239,27.42h339.865c3.724,0,6.742,3.019,6.742,6.742      v453.466c0,21.59-11.387,40.434-30.459,50.415c-19.081,9.978-41.981,8.507-59.771-3.835      c-113.137-78.53-192.164-66.185-238.543-42.014c-66.659,34.748-97.888,109.4-98.006,148.912      c-0.217,72.209,22.986,202.188,87.797,264.307c26.215,25.125,57.092,37.023,92.028,35.482      c55.442-2.515,109.515-18.749,160.721-48.249c18.195-10.486,39.831-10.515,57.875-0.092      c17.758,10.265,28.358,28.691,28.358,49.29v422.661c0,3.723-3.019,6.742-6.742,6.742h-351.726      c-17.053,0-32.072,8.908-40.18,23.825c-8.145,14.992-7.44,32.533,1.89,46.926c32.279,49.79,49.178,112.126,50.228,185.274      c0.935,65.276-28.833,114.22-86.079,141.538C2791.456,2958.122,2748.372,2966.493,2700.722,2966.493z M2105.166,2530.861      h335.618c20.954,0,40.2,10.624,51.489,28.418c10.841,17.089,12.247,38.05,3.76,56.068      c-45.309,96.156-38.518,243.455,13.211,286.569c53.016,44.18,213.158,74.217,310.387,27.822      c52.891-25.237,79.271-68.697,78.402-129.176c-1.011-70.57-17.182-130.5-48.055-178.13      c-12.062-18.604-12.971-41.296-2.426-60.697c10.505-19.331,29.955-30.874,52.029-30.874h344.984v-415.919      c0-15.727-8.082-29.787-21.623-37.613c-13.82-7.987-30.413-7.954-44.397,0.102c-53.089,30.584-109.222,47.417-166.838,50.034      c-38.63,1.781-72.983-11.437-101.97-39.219c-67.873-65.052-92.176-199.548-91.952-274.082      c0.132-44.065,32.875-123.099,105.259-160.83c49.671-25.896,133.795-39.472,252.465,42.893      c13.857,9.62,30.992,10.722,45.83,2.966c14.544-7.611,23.226-21.991,23.226-38.468v-446.723H2911.44      c-24.674,0-46.712-12.793-58.948-34.218c-12.158-21.293-11.993-46.593,0.448-67.682      c30.801-52.216,37.092-111.339,18.699-175.723c-24.632-86.201-80.449-115.843-122.941-125.528      c-78.5-17.922-176.678,18.354-238.731,88.169c-31.476,35.41-55.594,101.163,8.257,213.309l0,0      c12.2,21.435,12.121,46.896-0.214,68.11c-12.22,21.017-34.073,33.563-58.458,33.563h-356.575v426.924      c0,11.957-5.81,17.603-10.683,20.237c-25.751,13.906-85.812-25.106-88.357-26.775c-72.552-47.588-163.684-46.508-250.029,2.956      c-80.025,45.836-138.16,124.58-135.233,183.163c3.328,66.504,10.024,142.288,34.468,200.137      c27.743,65.655,72.983,96.186,138.44,93.348c89.094-3.871,178.485-46.689,237.786-81.931c15.759-9.363,34.64-9.55,50.517-0.517      c15.829,9.007,25.28,25.283,25.28,43.541V2530.861z"/>
			</g>
			<g>
				
					<linearGradient id="SVGID_00000088134781502389614430000005425679499136715166_" gradientUnits="userSpaceOnUse" x1="1457.1447" y1="4728.5308" x2="3767.7351" y2="-3079.6479" gradientTransform="matrix(-1 0 0 1 3686.0842 0)">
					<stop offset="0" style="stop-color:#4F52FF"/>
					<stop offset="1" style="stop-color:#4042E2"/>
				</linearGradient>
				<path style="fill:url(#SVGID_00000088134781502389614430000005425679499136715166_);" d="M802.164,2052.554      c-39.984,26.832-92.75,52.93-152.232,58.876c-131.704,13.173-184.383-131.701-190.971-256.821      c-6.582-125.116,105.363-243.65,204.141-230.477c46.525,6.202,97.43,35.777,138.271,65.332      c32.983,23.872,79.039,0.396,79.039-40.319v-449.394h454.64c37.891,0,63.004-39.125,47.17-73.553      c-35.672-77.53-75.739-195.341-19.857-246.19c86.842-79.022,321.438-79.022,360.948,39.51      c22.123,66.372-7.932,146.222-38.666,203.647c-18.533,34.621,6.478,76.404,45.744,76.404h388.032v416.186      c0,44.397-50.213,71.985-86.418,46.292c-167.853-119.127-351.164,6.534-367.959,146.469      c-19.755,164.626,85.608,302.915,197.555,289.748c56.846-6.691,122.179-38.846,172.726-68.884      c37.125-22.06,84.096,4.433,84.096,47.618v459.691h-446.93c-51.139,0-85.344-53.344-63.177-99.429      c26.416-54.915,134.672-122.337,128.169-174.37c-13.171-105.36-247.765-131.43-374.12-111.809      c-96.441,14.97-48.5,165.833,6.312,286.726c21.012,46.34-12.452,98.882-63.329,98.882H880.412v-443.206      C880.412,2053.249,835.575,2030.137,802.164,2052.554z"/>
				<path style="fill:#FCFCFC;" d="M2118.423,2543.43h-446.931c-26.561,0-50.87-13.445-65.026-35.96      c-13.978-22.238-15.558-49.576-4.23-73.134c11.354-23.601,36.951-49.2,61.704-73.954c34.057-34.06,69.276-69.282,65.855-96.656      c-2.535-20.27-14.396-38.524-35.262-54.257c-47.545-35.858-189.063-73.783-331.137-51.726      c-19.19,2.979-32.424,11.654-40.46,26.521c-21.991,40.684-4.052,127.395,51.877,250.757c10.871,23.973,8.882,51.443-5.323,73.48      c-14.097,21.873-38.073,34.929-64.143,34.929H880.411c-3.723,0-6.742-3.019-6.742-6.742v-443.204      c0-16.115-8.438-30.235-22.567-37.771c-14.495-7.727-31.387-6.821-45.181,2.439c-51.65,34.663-103.909,54.847-155.318,59.986      c-42.485,4.253-79.626-7.025-110.477-33.504c-23.871-20.487-80.222-83.876-87.896-229.671      c-3.529-67.044,26.999-138.891,79.663-187.502c40.684-37.553,88.848-55.775,132.103-50.014      c40.147,5.353,87.699,27.743,141.334,66.553c13.406,9.702,30.192,11.015,44.891,3.506c14.683-7.499,23.45-21.84,23.45-38.363      v-449.393c0-3.723,3.019-6.742,6.742-6.742h454.641c15.499,0,29.731-7.769,38.07-20.783c8.329-13.001,9.442-29.155,2.973-43.212      c-40.035-87.024-75.705-201.728-18.268-253.993c55.041-50.09,169.152-70.797,259.771-47.13      c58.116,15.173,97.934,46.955,112.113,89.493c23.065,69.203-8.543,151.832-39.12,208.96      c-7.578,14.156-7.187,30.808,1.044,44.549c8.224,13.731,22.716,21.932,38.758,21.932h388.031c3.723,0,6.742,3.019,6.742,6.742      v416.186c0,23.588-13.119,45.016-34.238,55.926c-20.661,10.67-44.147,9.126-62.823-4.135      c-71.129-50.481-151.085-60.209-225.138-27.394c-71.811,31.815-123.711,98.22-132.228,169.168      c-10.775,89.789,16.849,179.967,72.094,235.34c34.998,35.078,76.871,51.752,117.983,46.909      c57.365-6.752,124.146-40.697,170.067-67.985c19.605-11.651,43.117-11.891,62.883-0.645c19.66,11.187,31.4,31.397,31.4,54.06      v459.691C2125.165,2540.412,2122.146,2543.43,2118.423,2543.43z M1448.827,2138.425c88.42,0,195.137,16.013,253.828,60.275      c23.884,18.014,37.517,39.331,40.519,63.354c4.24,33.919-33.349,71.511-69.701,107.863      c-23.953,23.957-48.727,48.73-59.083,70.267c-9.31,19.351-8.003,41.823,3.493,60.107c11.674,18.571,31.713,29.655,53.609,29.655      h440.188v-452.949c0-17.751-9.192-33.579-24.586-42.34c-15.496-8.816-33.932-8.629-49.326,0.52      c-47.044,27.953-115.659,62.754-175.381,69.783c-45.234,5.333-91.126-12.708-129.104-50.781      c-58.093-58.231-87.192-152.672-75.933-246.467c9.07-75.577,64.081-146.186,140.152-179.891      c78.583-34.807,163.253-24.609,238.402,28.727c14.495,10.285,32.75,11.46,48.832,3.151      c16.619-8.586,26.943-25.425,26.943-43.946v-409.443h-381.289c-20.829,0-39.644-10.65-50.327-28.487      c-10.689-17.847-11.2-39.469-1.366-57.842c29.329-54.794,59.768-133.683,38.218-198.33      c-12.688-38.067-49.171-66.731-102.724-80.713c-86.668-22.617-195.278-3.269-247.294,44.058      c-23.226,21.135-51.327,80.209,21.448,238.382c8.395,18.255,6.946,39.235-3.871,56.121      c-10.831,16.905-29.306,26.995-49.424,26.995H887.153v442.651c0,21.369-11.802,40.671-30.801,50.373      c-19.015,9.715-41.599,7.957-58.932-4.593c-51.074-36.957-97.828-59.126-135.21-64.111      c-39.265-5.248-83.445,11.733-121.169,46.554c-49.8,45.968-78.668,113.746-75.347,176.885      c5.136,97.542,36.243,179.838,83.215,220.15c27.943,23.98,61.707,34.202,100.35,30.317      c49.181-4.915,99.359-24.348,149.149-57.767l0,0c17.738-11.898,40.358-13.099,59.037-3.137      c18.604,9.919,29.708,28.487,29.708,49.668v436.462h418.194c21.464,0,41.207-10.749,52.812-28.75      c11.71-18.166,13.346-40.822,4.375-60.604c-58.563-129.169-75.877-217.569-51.459-262.74      c10.034-18.568,26.943-29.813,50.254-33.435C1385.711,2140.631,1416.008,2138.425,1448.827,2138.425z"/>
			</g>
		</g>
		<g>
			<g>
				<g style="opacity:0.3;">
					<path style="fill:#91B3FA;" d="M2579.251,915.5c-4.185,0.783-8.372-1.708-9.612-5.879c-2.715-9.12-5.072-18.495-7.009-27.862       c-0.942-4.557,1.987-9.015,6.543-9.957c0.055-0.01,0.108-0.02,0.162-0.03c4.5-0.841,8.864,2.072,9.794,6.575       c1.839,8.899,4.08,17.804,6.657,26.468c1.328,4.458-1.211,9.151-5.672,10.478       C2579.828,915.378,2579.539,915.446,2579.251,915.5z M2566.298,843.261c-0.324,0.061-0.656,0.103-0.993,0.126       c-4.642,0.312-8.659-3.198-8.972-7.84c-0.639-9.535-0.878-19.192-0.708-28.701c0.083-4.652,3.904-8.343,8.573-8.275       c4.652,0.084,8.355,3.925,8.271,8.574c-0.161,9.039,0.066,18.213,0.675,27.275       C2573.436,838.723,2570.437,842.487,2566.298,843.261z M2569.573,769.966c-0.922,0.172-1.889,0.192-2.869,0.038       c-4.594-0.731-7.729-5.046-7-9.641c1.493-9.419,3.417-18.891,5.716-28.152c1.124-4.516,5.694-7.262,10.206-6.147       c4.514,1.121,7.267,5.692,6.146,10.206c-2.184,8.794-4.009,17.786-5.429,26.732       C2575.771,766.618,2572.976,769.33,2569.573,769.966z M2589.159,699.23c-1.524,0.285-3.144,0.152-4.688-0.469       c-4.315-1.737-6.405-6.646-4.667-10.961c3.568-8.852,7.559-17.656,11.865-26.168c2.103-4.146,7.168-5.809,11.321-3.713       c4.15,2.1,5.813,7.169,3.713,11.321c-4.09,8.083-7.883,16.445-11.269,24.858       C2594.316,696.866,2591.894,698.719,2589.159,699.23z M2624.026,634.638c-2.137,0.399-4.425-0.023-6.351-1.36       c-3.823-2.653-4.771-7.902-2.118-11.723c5.428-7.82,11.268-15.521,17.357-22.879c2.963-3.587,8.274-4.091,11.86-1.123       c3.584,2.966,4.086,8.275,1.121,11.862c-5.789,6.995-11.339,14.313-16.498,21.745       C2628.082,633.056,2626.128,634.245,2624.026,634.638z M2672.31,579.372c-2.767,0.517-5.73-0.362-7.771-2.591       c-3.141-3.433-2.905-8.76,0.526-11.903c7.034-6.437,14.433-12.654,21.991-18.473c3.689-2.839,8.977-2.15,11.815,1.537       c2.838,3.684,2.15,8.975-1.536,11.813c-7.181,5.53-14.211,11.434-20.894,17.551       C2675.239,578.41,2673.803,579.093,2672.31,579.372z M2972.063,502.926c-1.147,0.214-2.354,0.193-3.56-0.105       c-8.788-2.167-17.789-3.979-26.752-5.383c-4.596-0.721-7.739-5.031-7.017-9.625c0.719-4.597,5.029-7.74,9.626-7.019       c9.439,1.479,18.92,3.386,28.174,5.666c4.518,1.114,7.277,5.68,6.163,10.196       C2977.883,499.97,2975.211,502.338,2972.063,502.926z M2731.603,536.209c-3.435,0.642-7.049-0.912-8.872-4.12       c-2.3-4.046-0.884-9.188,3.16-11.488c8.29-4.713,16.886-9.122,25.55-13.106c4.235-1.923,9.23-0.095,11.174,4.134       c1.943,4.227,0.092,9.229-4.136,11.175c-8.228,3.781-16.39,7.969-24.263,12.444       C2733.38,535.723,2732.498,536.042,2731.603,536.209z M2899.284,493.507c-0.547,0.102-1.111,0.154-1.689,0.145       c-9.056-0.145-18.237,0.102-27.29,0.727c-4.642,0.319-8.665-3.184-8.985-7.824c-0.318-4.641,3.177-8.685,7.824-8.985       c9.525-0.656,19.187-0.916,28.716-0.766c4.652,0.074,8.365,3.906,8.29,8.557       C2906.087,489.434,2903.14,492.786,2899.284,493.507z M2799.052,507.373c-4.179,0.781-8.361-1.701-9.608-5.863       c-1.335-4.457,1.195-9.152,5.651-10.491c9.125-2.734,18.491-5.111,27.839-7.059c0.057-0.014,0.117-0.025,0.176-0.036       c4.493-0.84,8.852,2.064,9.791,6.559c0.95,4.556-1.97,9.019-6.526,9.968c-8.878,1.854-17.774,4.113-26.444,6.711       C2799.639,507.246,2799.344,507.318,2799.052,507.373z"/>
					<path style="fill:#91B3FA;" d="M3027.982,522.223c-1.63,0.305-3.368,0.134-4.996-0.599c-3.96-1.784-8.025-3.511-12.079-5.143       c-4.316-1.734-6.411-6.642-4.675-10.957c1.734-4.318,6.642-6.417,10.959-4.673c4.266,1.713,8.539,3.532,12.708,5.407       c4.242,1.909,6.135,6.898,4.227,11.138C3032.949,520.012,3030.603,521.733,3027.982,522.223z"/>
				</g>
				<g style="opacity:0.3;">
					<path style="fill:#91B3FA;" d="M3202.45,710.707c-3.997,0.747-8.056-1.493-9.471-5.444c-1.462-4.089-3.036-8.217-4.677-12.265       c-1.747-4.313,0.333-9.225,4.644-10.972c4.33-1.754,9.225,0.334,10.972,4.644c1.726,4.263,3.384,8.61,4.925,12.915       c1.567,4.38-0.713,9.202-5.093,10.771C3203.32,710.511,3202.885,710.626,3202.45,710.707z"/>
					<path style="fill:#91B3FA;" d="M2954.242,1143.957c-3.81,0.712-7.647,1.363-11.509,1.951c-4.6,0.699-8.896-2.461-9.597-7.06       c-0.701-4.599,2.479-8.917,7.059-9.599c8.914-1.358,17.752-3.074,26.369-5.127c4.532-1.071,9.068,1.716,10.147,6.241       c1.079,4.529-1.717,9.072-6.243,10.149C2965.138,1141.783,2959.679,1142.941,2954.242,1143.957z M2898.409,1149.585       c-0.462,0.086-0.94,0.135-1.428,0.143c-9.398,0.147-18.907-0.104-28.262-0.745c-4.641-0.317-8.146-4.339-7.828-8.978       c0.319-4.643,4.346-8.161,8.981-7.829c8.885,0.609,17.918,0.845,26.849,0.708c4.651-0.073,8.481,3.64,8.553,8.29       C2905.338,1145.34,2902.37,1148.845,2898.409,1149.585z M3012.776,1127.272c-3.904,0.73-7.898-1.392-9.39-5.228       c-1.687-4.338,0.462-9.219,4.799-10.907c8.295-3.224,16.564-6.85,24.581-10.779c4.182-2.041,9.225-0.319,11.272,3.859       c2.047,4.18,0.319,9.227-3.86,11.273c-8.441,4.136-17.152,7.954-25.887,11.351       C3013.792,1127.036,3013.284,1127.177,3012.776,1127.272z M2826.495,1142.746c-1.051,0.197-2.157,0.192-3.268-0.039       c-9.192-1.92-18.413-4.257-27.406-6.945c-4.457-1.333-6.99-6.025-5.657-10.482c1.332-4.46,6.022-6.995,10.483-5.659       c8.538,2.551,17.294,4.771,26.024,6.594c4.554,0.949,7.475,5.415,6.523,9.968       C2832.477,1139.626,2829.751,1142.138,2826.495,1142.746z M3076.734,1093.822c-3.202,0.599-6.602-0.7-8.539-3.576       c-2.6-3.859-1.578-9.095,2.281-11.695c7.378-4.968,14.647-10.324,21.608-15.917c3.626-2.914,8.93-2.339,11.844,1.291       c2.913,3.627,2.335,8.927-1.291,11.841c-7.327,5.889-14.98,11.528-22.75,16.76       C3078.906,1093.189,3077.831,1093.617,3076.734,1093.822z M3131.805,1047.147c-2.56,0.479-5.306-0.233-7.343-2.159       c-3.38-3.198-3.528-8.53-0.33-11.91c6.131-6.483,12.061-13.299,17.625-20.258c2.9-3.639,8.199-4.231,11.84-1.323       c3.635,2.906,4.225,8.205,1.322,11.842c-5.855,7.324-12.095,14.497-18.548,21.318       C3135.1,1045.999,3133.494,1046.831,3131.805,1047.147z M3175.39,989.576c-1.947,0.364-4.028,0.047-5.864-1.049       c-3.994-2.383-5.299-7.556-2.914-11.551c4.579-7.669,8.884-15.611,12.794-23.613c2.042-4.178,7.083-5.914,11.268-3.868       c4.179,2.044,5.911,7.087,3.868,11.269c-4.117,8.419-8.646,16.782-13.464,24.85       C3179.788,987.773,3177.683,989.147,3175.39,989.576z M3205.38,923.874c-1.349,0.252-2.777,0.178-4.174-0.281       c-4.419-1.453-6.823-6.213-5.369-10.633c2.79-8.479,5.248-17.171,7.306-25.838c1.075-4.526,5.622-7.325,10.141-6.251       c4.528,1.075,7.326,5.617,6.25,10.143c-2.168,9.129-4.756,18.284-7.693,27.209       C3210.846,921.249,3208.302,923.328,3205.38,923.874z M3220.22,853.165c-0.758,0.142-1.55,0.179-2.356,0.102       c-4.63-0.443-8.026-4.559-7.581-9.188c0.849-8.863,1.331-17.878,1.43-26.801c0.052-4.653,3.88-8.379,8.518-8.328       c4.653,0.051,8.382,3.866,8.33,8.519c-0.105,9.393-0.612,18.885-1.508,28.215       C3226.687,849.508,3223.817,852.492,3220.22,853.165z M3219.165,780.971c-0.17,0.032-0.342,0.057-0.516,0.08       c-4.616,0.575-8.826-2.702-9.4-7.318c-0.812-6.517-1.834-13.085-3.038-19.529c-0.436-2.332-0.899-4.656-1.383-6.966       c-0.954-4.555,1.964-9.021,6.518-9.973c4.592-1.056,9.018,1.963,9.972,6.515c0.51,2.432,0.995,4.872,1.454,7.328       c1.267,6.777,2.342,13.69,3.195,20.544C3226.522,776.094,3223.507,780.159,3219.165,780.971z"/>
					<path style="fill:#91B3FA;" d="M2757.672,1120.151c-1.646,0.308-3.398,0.13-5.036-0.615c-4.15-1.892-8.338-3.908-12.448-5.992       c-4.151-2.103-5.811-7.173-3.707-11.322c2.105-4.15,7.169-5.813,11.322-3.707c3.905,1.979,7.884,3.893,11.823,5.69       c4.232,1.927,6.1,6.924,4.17,11.158C2762.611,1117.959,2760.275,1119.664,2757.672,1120.151z"/>
				</g>
				<g>
					<path style="fill:#91B3FA;" d="M2750.889,1022.014c1.283,1.084,3.113,1.235,4.556,0.375l41.171-24.524       c19.938,10.164,41.64,17.223,64.425,20.578l19.35,43.807c0.678,1.537,2.258,2.473,3.931,2.333l57.279-4.815       c1.674-0.141,3.074-1.329,3.487-2.956l11.764-46.423c21.905-7.113,42.124-17.695,60.085-31.046l44.688,17.305       c1.566,0.606,3.345,0.152,4.429-1.13l37.097-43.907c1.085-1.284,1.235-3.113,0.375-4.556l-24.523-41.17       c10.164-19.938,17.222-41.641,20.578-64.425l43.808-19.35c1.536-0.678,2.473-2.257,2.333-3.931l-4.816-57.28       c-0.14-1.674-1.328-3.074-2.956-3.486l-46.423-11.764c-7.113-21.905-17.694-42.124-31.046-60.085l17.306-44.689       c0.606-1.565,0.152-3.345-1.131-4.429l-43.907-37.097c-1.283-1.085-3.113-1.235-4.556-0.375l-41.171,24.524       c-19.938-10.165-41.64-17.223-64.425-20.578l-19.35-43.808c-0.679-1.536-2.257-2.473-3.931-2.333l-57.28,4.816       c-1.674,0.14-3.074,1.328-3.487,2.956l-11.764,46.423c-21.906,7.112-42.125,17.695-60.085,31.046l-44.687-17.305       c-1.566-0.607-3.346-0.153-4.43,1.13l-37.097,43.908c-1.084,1.283-1.235,3.112-0.375,4.556l24.523,41.17       c-10.165,19.938-17.222,41.641-20.578,64.425l-43.808,19.35c-1.536,0.678-2.473,2.257-2.332,3.932l4.815,57.278       c0.141,1.674,1.328,3.074,2.956,3.487l46.423,11.764c7.113,21.904,17.695,42.123,31.045,60.085l-17.305,44.688       c-0.607,1.567-0.153,3.345,1.13,4.43L2750.889,1022.014z"/>
					<g>
						<path style="fill:#BDD0FB;" d="M2902.4,867.487c-27.685,5.176-55.796-10.609-65.221-38.019        c-10.358-30.131,5.726-63.067,35.854-73.426c14.596-5.022,30.272-4.053,44.137,2.719        c13.868,6.771,24.271,18.538,29.287,33.134c10.359,30.131-5.726,63.067-35.853,73.426        C2907.887,866.254,2905.144,866.974,2902.4,867.487z M2883.768,767.111c-2.138,0.4-4.259,0.957-6.354,1.677        c-23.099,7.941-35.43,33.198-27.49,56.296c7.943,23.1,33.194,35.443,56.298,27.491c23.099-7.941,35.43-33.198,27.49-56.296        c-3.848-11.192-11.822-20.213-22.456-25.406C2902.614,766.654,2893.052,765.375,2883.768,767.111z"/>
					</g>
					<path style="fill:#BDD0FB;" d="M2918.897,949.301c-4.755,0.889-9.582,1.544-14.468,1.955l0,0       c-1.537,0.13-3.078,0.234-4.62,0.314c-7.601,0.393-15.222,0.181-22.744-0.632c-0.103-0.011-0.205-0.022-0.307-0.033       c-0.291-0.033-0.581-0.065-0.873-0.102c-0.566-0.065-1.132-0.137-1.696-0.208c-1.485-0.191-2.619-1.321-2.882-2.719       c-0.064-0.339-0.075-0.696-0.029-1.056c0.238-1.846,1.93-3.143,3.773-2.908c9.498,1.227,19.19,1.437,28.81,0.626       c47.787-4.009,87.741-32.53,108.54-72.132c11.571-22.026,17.213-47.482,14.978-74.06c-0.391-4.661-1.014-9.268-1.864-13.802       c-5.71-30.521-21.61-57.923-45.649-78.231c-27.611-23.33-62.657-34.511-98.676-31.482       c-74.391,6.262-129.77,71.836-123.518,146.191c0.385,4.585,1.001,9.133,1.843,13.625c3.643,19.469,11.506,37.924,23.089,54.014       c0.299,0.416,0.49,0.876,0.577,1.348c0.232,1.242-0.248,2.567-1.343,3.354c-1.515,1.083-3.616,0.75-4.705-0.767       c-12.16-16.892-20.417-36.268-24.242-56.708c-0.883-4.716-1.53-9.489-1.936-14.301       c-6.564-78.067,51.63-146.912,129.668-153.475c37.815-3.18,74.604,8.559,103.591,33.051       c25.237,21.32,41.929,50.086,47.925,82.128c0.89,4.761,1.545,9.597,1.957,14.488c3.178,37.818-8.558,74.607-33.049,103.594       C2979.723,926.617,2950.946,943.309,2918.897,949.301z"/>
				</g>
			</g>
			<g>
				<g style="opacity:0.3;">
					<path style="fill:#91B3FA;" d="M2337.466,1186.554c-2.212,0.414-4.521-0.649-5.592-2.759       c-2.002-3.937-3.913-7.989-5.676-12.043c-1.146-2.634,0.059-5.697,2.695-6.847c2.634-1.159,5.7,0.061,6.847,2.695       c1.681,3.863,3.501,7.724,5.411,11.482c1.302,2.558,0.281,5.69-2.28,6.996       C2338.416,1186.309,2337.944,1186.465,2337.466,1186.554z"/>
					<path style="fill:#91B3FA;" d="M2322.679,1149.361c-2.592,0.485-5.182-1.063-5.941-3.645       c-2.15-7.296-3.948-14.785-5.345-22.257c-0.294-1.573-0.571-3.155-0.835-4.744c-0.466-2.839,1.622-5.436,4.285-5.986       c2.835-0.468,5.512,1.451,5.983,4.283c0.251,1.519,0.515,3.031,0.796,4.535c1.333,7.128,3.048,14.271,5.096,21.228       c0.813,2.758-0.763,5.648-3.519,6.463C2323.024,1149.286,2322.851,1149.329,2322.679,1149.361z M2313.876,1096.058       c-0.242,0.045-0.492,0.077-0.743,0.088c-2.873,0.118-5.298-2.111-5.419-4.983c-0.388-9.212-0.208-18.53,0.538-27.689       c0.232-2.866,2.758-4.992,5.607-4.765c2.866,0.234,4.996,2.741,4.765,5.607c-0.71,8.74-0.882,17.627-0.513,26.412       C2318.22,1093.344,2316.378,1095.59,2313.876,1096.058z M2318.262,1042.212c-0.649,0.121-1.332,0.119-2.017-0.021       c-2.813-0.586-4.616-3.345-4.03-6.158c1.882-9.011,4.346-18.006,7.332-26.726c0.931-2.723,3.881-4.168,6.609-3.236       c2.717,0.929,4.167,3.889,3.238,6.606c-2.846,8.317-5.198,16.888-6.99,25.483       C2321.958,1040.286,2320.273,1041.837,2318.262,1042.212z M2335.753,991.091c-1.059,0.198-2.187,0.068-3.229-0.435       c-2.583-1.259-3.659-4.376-2.4-6.959c4.041-8.292,8.629-16.402,13.644-24.111c1.569-2.407,4.795-3.083,7.198-1.521       c2.409,1.565,3.092,4.787,1.525,7.2c-4.781,7.345-9.159,15.085-13.011,22.991       C2338.728,989.795,2337.318,990.798,2335.753,991.091z M2365.198,945.793c-1.479,0.276-3.067-0.088-4.309-1.133       c-2.198-1.848-2.481-5.129-0.634-7.33c5.93-7.048,12.349-13.8,19.082-20.062c2.104-1.965,5.396-1.841,7.354,0.264       c1.957,2.105,1.839,5.399-0.264,7.353c-6.424,5.978-12.548,12.416-18.204,19.144       C2367.416,944.985,2366.338,945.58,2365.198,945.793z M2404.739,909.019c-1.915,0.358-3.956-0.383-5.176-2.067       c-1.683-2.327-1.159-5.578,1.167-7.264c7.463-5.397,15.335-10.378,23.394-14.8c2.531-1.378,5.683-0.458,7.066,2.06       c1.383,2.517,0.46,5.683-2.058,7.063c-7.686,4.218-15.188,8.965-22.303,14.11       C2406.186,908.588,2405.471,908.882,2404.739,909.019z M2452.059,883.036c-2.397,0.448-4.854-0.845-5.787-3.193       c-1.06-2.671,0.245-5.696,2.916-6.758c8.532-3.389,17.388-6.285,26.324-8.613c2.799-0.678,5.626,0.949,6.347,3.729       c0.724,2.78-0.944,5.62-3.724,6.346c-8.526,2.214-16.973,4.978-25.107,8.209       C2452.708,882.884,2452.384,882.975,2452.059,883.036z M2531.344,867.541c-0.294,0.055-0.601,0.087-0.914,0.088       c-7.586,0.069-15.3,0.555-22.932,1.444c-1.157,0.128-2.291,0.268-3.42,0.422c-2.85,0.378-5.467-1.619-5.847-4.469       c-0.386-2.854,1.621-5.555,4.466-5.849c1.206-0.158,2.41-0.311,3.623-0.445c7.974-0.927,16.061-1.437,24.016-1.507       c2.875-0.026,5.224,2.28,5.249,5.155C2535.609,864.94,2533.78,867.086,2531.344,867.541z"/>
				</g>
				<g style="opacity:0.3;">
					<path style="fill:#91B3FA;" d="M2576.559,1302.27c-2.792,0.522-5.495-1.299-6.056-4.094c-0.565-2.815,1.261-5.56,4.079-6.123       c8.483-1.7,16.933-3.931,25.117-6.634c2.719-0.871,5.673,0.578,6.574,3.309c0.901,2.731-0.583,5.671-3.309,6.574       c-8.584,2.83-17.443,5.173-26.334,6.955C2576.606,1302.261,2576.581,1302.265,2576.559,1302.27z M2550.191,1305.922       c-0.185,0.035-0.369,0.058-0.56,0.073c-9.031,0.707-18.196,0.869-27.241,0.487c-2.872-0.125-5.1-2.546-4.977-5.417       c0.119-2.876,2.562-5.095,5.416-4.983c8.631,0.366,17.377,0.209,25.995-0.461c2.863-0.225,5.367,1.917,5.59,4.781       C2554.623,1303.083,2552.768,1305.441,2550.191,1305.922z M2627.003,1285.601c-2.268,0.424-4.624-0.707-5.658-2.891       c-1.227-2.593-0.119-5.695,2.479-6.925c7.823-3.706,15.486-7.914,22.777-12.519c2.441-1.526,5.644-0.807,7.176,1.626       c1.534,2.427,0.807,5.644-1.622,7.178c-7.643,4.825-15.678,9.238-23.879,13.118       C2627.859,1285.385,2627.433,1285.521,2627.003,1285.601z M2497.083,1303.642c-0.582,0.109-1.192,0.12-1.811,0.018       c-8.941-1.487-17.881-3.542-26.568-6.111c-2.757-0.813-4.33-3.708-3.517-6.466c0.815-2.747,3.71-4.322,6.464-3.514       c8.284,2.447,16.805,4.405,25.33,5.825c2.833,0.473,4.751,3.154,4.278,5.987       C2500.89,1301.597,2499.17,1303.251,2497.083,1303.642z M2671.919,1257.235c-1.811,0.339-3.747-0.297-4.99-1.822       c-1.821-2.229-1.487-5.506,0.737-7.323c6.689-5.458,13.113-11.384,19.094-17.62c1.992-2.078,5.286-2.141,7.359-0.15       c2.073,1.99,2.141,5.286,0.151,7.359c-6.274,6.533-13.008,12.75-20.02,18.475       C2673.55,1256.724,2672.745,1257.081,2671.919,1257.235z M2708.72,1218.921c-1.386,0.259-2.869-0.043-4.083-0.953       c-2.298-1.726-2.762-4.988-1.037-7.286c5.198-6.922,10.022-14.218,14.336-21.682c1.439-2.492,4.625-3.341,7.109-1.903       c2.489,1.437,3.339,4.617,1.902,7.104c-4.522,7.829-9.577,15.478-15.024,22.731       C2711.109,1218.014,2709.953,1218.691,2708.72,1218.921z M2735.285,1172.89c-0.974,0.182-2.009,0.091-2.99-0.33       c-2.645-1.124-3.875-4.181-2.75-6.826c3.395-7.959,6.325-16.199,8.712-24.487c0.798-2.754,3.681-4.353,6.44-3.556       c2.761,0.797,4.355,3.678,3.559,6.442c-2.506,8.688-5.578,17.331-9.135,25.682       C2738.412,1171.479,2736.938,1172.581,2735.285,1172.89z"/>
					<path style="fill:#91B3FA;" d="M2445.879,1288.501c-0.987,0.185-2.036,0.086-3.026-0.344c-4.085-1.774-8.134-3.679-12.04-5.658       c-2.561-1.3-3.589-4.431-2.29-6.995c1.303-2.554,4.429-3.583,6.995-2.29c3.723,1.889,7.588,3.704,11.485,5.4       c2.636,1.146,3.843,4.213,2.697,6.846C2448.982,1287.104,2447.52,1288.194,2445.879,1288.501z"/>
				</g>
				<g>
					<path style="fill:#91B3FA;" d="M2437.778,1221.635c0.858,0.725,2.083,0.827,3.048,0.251l27.55-16.41       c13.341,6.801,27.864,11.525,43.11,13.77l12.948,29.313c0.454,1.028,1.51,1.655,2.631,1.561l38.329-3.222       c1.12-0.095,2.057-0.889,2.333-1.978l7.872-31.064c14.658-4.76,28.188-11.84,40.206-20.775l29.903,11.58       c1.048,0.405,2.239,0.102,2.964-0.757l24.824-29.381c0.725-0.859,0.826-2.083,0.251-3.049l-16.41-27.549       c6.802-13.341,11.524-27.864,13.77-43.111l29.314-12.948c1.028-0.454,1.655-1.51,1.561-2.63l-3.222-38.329       c-0.094-1.12-0.889-2.057-1.978-2.333l-31.064-7.872c-4.759-14.658-11.841-28.188-20.774-40.206l11.58-29.904       c0.406-1.048,0.102-2.238-0.756-2.963l-29.381-24.824c-0.858-0.726-2.083-0.826-3.048-0.251l-27.55,16.411       c-13.341-6.802-27.864-11.525-43.11-13.77l-12.948-29.314c-0.454-1.028-1.51-1.655-2.63-1.561l-38.329,3.222       c-1.12,0.094-2.057,0.888-2.333,1.978l-7.872,31.064c-14.658,4.759-28.188,11.841-40.207,20.775l-29.902-11.58       c-1.048-0.406-2.239-0.102-2.964,0.756l-24.823,29.381c-0.725,0.859-0.827,2.083-0.251,3.049l16.409,27.549       c-6.802,13.341-11.524,27.864-13.769,43.111l-29.315,12.948c-1.027,0.453-1.655,1.51-1.56,2.631l3.222,38.328       c0.094,1.12,0.888,2.057,1.978,2.333l31.064,7.872c4.76,14.657,11.84,28.187,20.774,40.206l-11.58,29.903       c-0.406,1.048-0.102,2.238,0.756,2.964L2437.778,1221.635z"/>
					<g>
						<path style="fill:#BDD0FB;" d="M2539.234,1118.928c-8.251,1.543-16.744,0.407-24.424-3.342        c-9.446-4.613-16.53-12.629-19.947-22.572c-7.056-20.516,3.898-42.951,24.419-50.013c20.563-7.029,42.963,3.903,50.017,24.424        c3.42,9.942,2.762,20.621-1.852,30.064c-4.612,9.448-12.628,16.535-22.573,19.95        C2543.016,1118.076,2541.129,1118.573,2539.234,1118.928z M2526.776,1051.757c-1.376,0.257-2.748,0.618-4.111,1.084        c-15.094,5.194-23.152,21.697-17.961,36.792c2.514,7.309,7.724,13.211,14.672,16.6c6.951,3.394,14.802,3.87,22.118,1.365l0,0        c7.312-2.515,13.21-7.727,16.603-14.673c3.394-6.952,3.877-14.806,1.362-22.121        C2554.738,1057.074,2540.649,1049.163,2526.776,1051.757z"/>
					</g>
					<path style="fill:#BDD0FB;" d="M2550.643,1175.889c-3.237,0.605-6.529,1.05-9.877,1.335       c-6.649,0.561-13.361,0.446-19.968-0.345c-0.297-0.038-0.593-0.076-0.89-0.113c-2.294-0.295-4.044-2.04-4.45-4.198       c-0.098-0.524-0.115-1.074-0.044-1.63c0.367-2.85,2.981-4.848,5.826-4.491c6.161,0.797,12.436,0.932,18.649,0.406l0.002,0       c0.341-0.028,0.684-0.061,1.022-0.093c14.694-1.377,28.489-6.365,40.422-14.385c6.477-4.354,12.406-9.608,17.627-15.676       c0.043-0.049,0.085-0.098,0.128-0.148c0.129-0.154,0.259-0.302,0.385-0.455c15.101-17.876,22.341-40.563,20.379-63.881       c-0.251-3.018-0.656-5.998-1.205-8.935c-3.697-19.758-13.992-37.497-29.554-50.648c-17.876-15.102-40.562-22.336-63.878-20.375       c-23.302,1.968-44.478,12.885-59.583,30.757c-15.101,17.876-22.341,40.563-20.38,63.881c0.247,2.967,0.648,5.912,1.191,8.818       c2.36,12.606,7.449,24.552,14.948,34.967c0.461,0.643,0.757,1.352,0.891,2.082c0.359,1.918-0.383,3.964-2.073,5.18       c-2.337,1.672-5.582,1.152-7.265-1.185c-8.389-11.654-14.086-25.022-16.727-39.12c-0.609-3.256-1.056-6.548-1.335-9.867       c-2.193-26.092,5.905-51.473,22.804-71.473c16.897-19.995,40.553-32.234,66.656-34.411c26.089-2.195,51.469,5.9,71.468,22.802       c17.412,14.708,28.928,34.555,33.064,56.661c0.614,3.281,1.067,6.619,1.351,9.993       C2634.47,1121.851,2599.436,1166.767,2550.643,1175.889z"/>
				</g>
			</g>
		</g>
		<g>
			<g>
				<g>
					
						<linearGradient id="SVGID_00000099623982480995311390000005040289390869080991_" gradientUnits="userSpaceOnUse" x1="1593.6854" y1="1929.9299" x2="1626.2507" y2="1918.6407">
						<stop offset="0" style="stop-color:#FEBBBA"/>
						<stop offset="1" style="stop-color:#FF928E"/>
					</linearGradient>
					<path style="fill:url(#SVGID_00000099623982480995311390000005040289390869080991_);" d="M1688.178,1871.752       c0,0-15.664-41.232-33.958-37.456c-18.295,3.776-38.309,17.831-38.309,17.831l-29.391,39.749c0,0,82.506,32.503,111.524,13.876       c0,0,84.274,14.562,190.696-2.901c-15.405-32.525-24.587-65.087-29.979-90.363       C1804.859,1842.998,1746.802,1865.788,1688.178,1871.752z"/>
					
						<linearGradient id="SVGID_00000063604367673100223880000003050477028812757401_" gradientUnits="userSpaceOnUse" x1="1825.4745" y1="1990.5951" x2="2299.6807" y2="1473.6881">
						<stop offset="0" style="stop-color:#09005D"/>
						<stop offset="1" style="stop-color:#1A0F91"/>
					</linearGradient>
					<path style="fill:url(#SVGID_00000063604367673100223880000003050477028812757401_);" d="M2134.586,1572.684       c0,0-120.659,151.972-275.826,239.804c5.392,25.276,14.574,57.838,29.979,90.363c80.494-13.208,173.653-44.73,252.631-114.774       L2134.586,1572.684z"/>
				</g>
				
					<linearGradient id="SVGID_00000123419762036754907160000013744271933862484125_" gradientUnits="userSpaceOnUse" x1="2041.9457" y1="2189.1831" x2="2516.1514" y2="1672.2766">
					<stop offset="0" style="stop-color:#09005D"/>
					<stop offset="1" style="stop-color:#1A0F91"/>
				</linearGradient>
				<path style="fill:url(#SVGID_00000123419762036754907160000013744271933862484125_);" d="M2285.063,2246.264      c-23.596-112.082-47.193-176.971-126.202-389.421c-24.865-66.855-47.443-134.499-36.53-204.99l12.256-79.169      c0,0,153.546-51.958,323.749-2.188c0,0,232.211,100.876,74.487,599.08C2461.729,2249.115,2378.527,2271.783,2285.063,2246.264z"/>
				
					<linearGradient id="SVGID_00000163789164883099195410000007941420959696614793_" gradientUnits="userSpaceOnUse" x1="996.0051" y1="1629.8381" x2="947.5424" y2="1484.4496" gradientTransform="matrix(1 0 0 1 1290.1023 0)">
					<stop offset="0" style="stop-color:#FEBBBA"/>
					<stop offset="1" style="stop-color:#FF928E"/>
				</linearGradient>
				<path style="fill:url(#SVGID_00000163789164883099195410000007941420959696614793_);" d="M2160.724,1471.642l39.815,95.652      c2.515,6.042,7.951,10.346,14.401,11.452c22.955,3.938,78.475,10.086,114.937-13.889c4.345-2.858,5.45-8.763,2.479-13.03      l-73.558-105.605L2160.724,1471.642z"/>
				<g>
					
						<linearGradient id="SVGID_00000136387954624133903400000014081505661433761429_" gradientUnits="userSpaceOnUse" x1="2149.5332" y1="1381.3008" x2="2323.718" y2="1457.0334">
						<stop offset="0" style="stop-color:#FEBBBA"/>
						<stop offset="1" style="stop-color:#FF928E"/>
					</linearGradient>
					<path style="fill:url(#SVGID_00000136387954624133903400000014081505661433761429_);" d="M2201.9,1325.296       c-1.672,1.574-70.57,136.874-70.57,136.874l78.09,37.697l84.353-118.534C2293.773,1381.334,2229.893,1298.945,2201.9,1325.296z       "/>
					
						<linearGradient id="SVGID_00000125578219147380912840000003809487751864415419_" gradientUnits="userSpaceOnUse" x1="5027.6309" y1="5584.3315" x2="5235.7056" y2="5584.3315" gradientTransform="matrix(-0.6854 -0.7281 -0.7281 0.6854 9787.373 1318.7853)">
						<stop offset="0" style="stop-color:#09005D"/>
						<stop offset="1" style="stop-color:#1A0F91"/>
					</linearGradient>
					<path style="fill:url(#SVGID_00000125578219147380912840000003809487751864415419_);" d="M2258.285,1395.556l-38.948,64.924       c-0.591,0.985-1.294,1.876-2.135,2.658c-4.635,4.315-20.499,16.867-32.763-0.222c-10.452-14.565-20.259-27.807-30.767-33.268       c-6.136-3.189-13.688-0.642-16.803,5.531c-6.417,12.719-18.847,38.644-26.655,63.229c-1.957,6.162,1.223,12.776,7.215,15.204       c15.813,6.406,47.065,17.992,74.796,21.819c4.555,0.629,9.065-1.293,11.776-5.007c11.931-16.345,45.56-62.023,57.037-73.456       c10.662-10.622,30.342-6.617,39.209-4.069c3.366,0.968,6.951,0.502,9.95-1.305c8.997-5.42,24.698-18.914,10.334-41.762       c-3.571-5.681-1.75-13.247,3.855-16.934c10.046-6.608,20.946-19.011,10.56-39.096c-10.513-20.332-29.285-22.159-42.072-20.595       c-5.657,0.691-11.4-2.276-13.572-7.546c-0.965-2.343-2.874-4.342-6.427-5.063c-6.702-1.36-11.101-7.488-9.785-14.199       c2.254-11.506,0.557-26.452-17.815-36.553c-33.693-18.525-63.207,11.659-70.711,37.14       c-7.506,25.481,30.167,43.488,53.865,46.494c17.406,2.208,26.95,21.205,30.79,31.135       C2260.615,1388.219,2260.273,1392.241,2258.285,1395.556z"/>
					
						<linearGradient id="SVGID_00000073700358784964313880000016227634861627269048_" gradientUnits="userSpaceOnUse" x1="2138.6787" y1="1406.2654" x2="2312.8635" y2="1481.9979">
						<stop offset="0" style="stop-color:#FEBBBA"/>
						<stop offset="1" style="stop-color:#FF928E"/>
					</linearGradient>
					<path style="fill:url(#SVGID_00000073700358784964313880000016227634861627269048_);" d="M2244.633,1476.405       c0,0,16.759-39.433,35.937-37.823c19.178,1.609,34.272,20.715,10.504,42.192       C2261.51,1507.489,2244.633,1476.405,2244.633,1476.405z"/>
				</g>
				<g>
					
						<linearGradient id="SVGID_00000050630351360065201450000011243514595491761034_" gradientUnits="userSpaceOnUse" x1="2273.4514" y1="3244.5291" x2="2489.9253" y2="3244.5291" gradientTransform="matrix(-1 0 0 1 4753.7588 0)">
						<stop offset="0" style="stop-color:#4F52FF"/>
						<stop offset="1" style="stop-color:#4042E2"/>
					</linearGradient>
					<path style="fill:url(#SVGID_00000050630351360065201450000011243514595491761034_);" d="M2269.946,3234.059       c37.085,3.206,101.447,8.412,152.188,10.646c30.5,1.342,48.06-1.645,58.173-5.692c-0.017,1.139-0.049,2.217-0.093,3.217       c-0.24,5.339-4.58,9.611-9.972,9.912c-95.876,5.351-172.125,1.852-199.271,0.2c-5.613-0.343-8.958-6.442-6.088-11.228       C2266.319,3238.722,2268.057,3236.376,2269.946,3234.059z"/>
					
						<linearGradient id="SVGID_00000116951078612418108300000016901622901642015898_" gradientUnits="userSpaceOnUse" x1="3002.8101" y1="3041.9978" x2="2218.9783" y2="3265.4082">
						<stop offset="0" style="stop-color:#09005D"/>
						<stop offset="1" style="stop-color:#1A0F91"/>
					</linearGradient>
					<path style="fill:url(#SVGID_00000116951078612418108300000016901622901642015898_);" d="M2422.134,3244.705       c-50.74-2.233-115.103-7.44-152.188-10.646c36.46-44.732,152.188-74.882,152.188-74.882h32.685       c22.48,32.404,25.735,63.256,25.489,79.835C2470.194,3243.06,2452.634,3246.047,2422.134,3244.705z"/>
					
						<linearGradient id="SVGID_00000103943814508432935690000008469962677537222804_" gradientUnits="userSpaceOnUse" x1="2293.4368" y1="3142.8706" x2="2354.4138" y2="3142.8706" gradientTransform="matrix(-1 0 0 1 4753.7588 0)">
						<stop offset="0" style="stop-color:#FEBBBA"/>
						<stop offset="1" style="stop-color:#FF928E"/>
					</linearGradient>
					<path style="fill:url(#SVGID_00000103943814508432935690000008469962677537222804_);" d="M2460.322,3105.817l-3.059,60.527       c-0.331,6.554-5.238,12.062-11.802,13c-6.531,0.934-15.277,1.054-24.552-2.034c-5.706-1.899-9.943-6.708-10.995-12.572       l-10.569-58.921H2460.322z"/>
				</g>
				<g>
					<g>
						
							<linearGradient id="SVGID_00000179611256658003004910000011246062204775125154_" gradientUnits="userSpaceOnUse" x1="1841.8928" y1="3239.8606" x2="1924.8486" y2="3239.8606" gradientTransform="matrix(-1 0 0 1 4753.7588 0)">
							<stop offset="0" style="stop-color:#4F52FF"/>
							<stop offset="1" style="stop-color:#4042E2"/>
						</linearGradient>
						<path style="fill:url(#SVGID_00000179611256658003004910000011246062204775125154_);" d="M2884.853,3244.25        c16.082-2.242,23.358-10.597,26.408-19.529c0.02,0.081,0.041,0.162,0.061,0.242c2.365,9.421-3.12,19.185-14.085,23.829        c-13.255,5.613-27.746,6.57-38.998,6.106c-12.069-0.498-23.15-5.493-29.239-13.487l-0.091-0.121        C2841.026,3247.286,2858.033,3247.992,2884.853,3244.25z"/>
						
							<linearGradient id="SVGID_00000010990846469027667710000013999842714612900506_" gradientUnits="userSpaceOnUse" x1="2565.8367" y1="2996.5894" x2="3054.311" y2="3314.666">
							<stop offset="0" style="stop-color:#09005D"/>
							<stop offset="1" style="stop-color:#1A0F91"/>
						</linearGradient>
						<path style="fill:url(#SVGID_00000010990846469027667710000013999842714612900506_);" d="M2809.029,3105.428h26.954        c41.057-0.839,66.84,85.759,75.279,119.293c-3.05,8.933-10.327,17.287-26.408,19.529c-26.82,3.741-43.828,3.035-55.943-2.96        c-22.181-29.189-33.179-71.938-38.465-96.888C2784.433,3116.027,2809.029,3105.428,2809.029,3105.428z"/>
					</g>
					
						<linearGradient id="SVGID_00000137097658466247186710000006352703875579042955_" gradientUnits="userSpaceOnUse" x1="1905.7869" y1="3092.0391" x2="1978.6595" y2="3092.0391" gradientTransform="matrix(-1 0 0 1 4753.7588 0)">
						<stop offset="0" style="stop-color:#FEBBBA"/>
						<stop offset="1" style="stop-color:#FF928E"/>
					</linearGradient>
					<path style="fill:url(#SVGID_00000137097658466247186710000006352703875579042955_);" d="M2832.519,3049.251l14.967,59.53       c1.836,7.298-1.658,14.848-8.407,18.311c-8.373,4.297-20.161,8.812-30.996,7.505c-5.096-0.615-9.328-4.203-11.011-9.001       l-21.973-62.632L2832.519,3049.251z"/>
				</g>
				
					<linearGradient id="SVGID_00000098197400357076434400000017177852421099628190_" gradientUnits="userSpaceOnUse" x1="-437.4911" y1="3199.0378" x2="674.4819" y2="1661.6819" gradientTransform="matrix(-1 0 0 1 2420.7585 0)">
					<stop offset="0" style="stop-color:#09005D"/>
					<stop offset="1" style="stop-color:#1A0F91"/>
				</linearGradient>
				<path style="fill:url(#SVGID_00000098197400357076434400000017177852421099628190_);" d="M2850.372,3066.458      c-18.622,16.519-79.192,18.699-79.192,18.699c-218.183-523.662-309.146-667.821-309.146-667.821      c31.503,197.654,6.79,705,6.79,705c-36.004,15.887-82.423,0-82.423,0c-2.924-323.585-48.483-671.291-107.239-893.77      c147.466-3.314,227.607-35.462,253.214-55.714C2655.3,2371.027,2850.372,3066.458,2850.372,3066.458z"/>
				<g>
					
						<linearGradient id="SVGID_00000023979213334748539880000008813802909436108202_" gradientUnits="userSpaceOnUse" x1="2477.3633" y1="2182.8633" x2="2504.332" y2="2378.3884">
						<stop offset="0" style="stop-color:#E1473D"/>
						<stop offset="1" style="stop-color:#E9605A"/>
					</linearGradient>
					<path style="fill:url(#SVGID_00000023979213334748539880000008813802909436108202_);" d="M2242.013,2374.902l27.135,168.77       c4.732,29.429,31.992,49.842,61.718,46.216l406.124-49.537c19.868-2.423,34.935-19.013,35.333-38.932       c0.869-43.608-0.844-121.217-19.146-191.925L2242.013,2374.902z"/>
					<path style="fill:none;" d="M2342.231,2578.673c-0.579,0-1.076-0.431-1.149-1.017c-0.079-0.635,0.375-1.215,1.007-1.291       l9.195-1.123c0.655-0.102,1.215,0.375,1.291,1.007c0.079,0.635-0.375,1.215-1.007,1.291l-9.195,1.123       C2342.323,2578.669,2342.277,2578.673,2342.231,2578.673z M2320.753,2578.139c-0.082,0-0.171-0.01-0.257-0.03       c-3.062-0.695-6.09-1.669-8.997-2.894c-0.589-0.247-0.866-0.928-0.615-1.518c0.253-0.589,0.935-0.866,1.518-0.616       c2.779,1.172,5.676,2.104,8.609,2.769c0.622,0.142,1.014,0.76,0.872,1.386       C2321.76,2577.774,2321.283,2578.139,2320.753,2578.139z M2372.88,2574.933c-0.58,0-1.077-0.431-1.149-1.017       c-0.079-0.635,0.375-1.215,1.011-1.291l9.195-1.119c0.609-0.076,1.211,0.375,1.287,1.011c0.079,0.632-0.375,1.211-1.007,1.287       l-9.198,1.119C2372.972,2574.929,2372.927,2574.933,2372.88,2574.933z M2403.53,2571.196c-0.579,0-1.076-0.431-1.149-1.017       c-0.079-0.635,0.375-1.215,1.007-1.291l9.195-1.123c0.655-0.089,1.215,0.372,1.291,1.007c0.079,0.635-0.375,1.215-1.008,1.291       l-9.195,1.123C2403.622,2571.193,2403.576,2571.196,2403.53,2571.196z M2434.179,2567.456c-0.579,0-1.077-0.431-1.149-1.021       c-0.079-0.632,0.375-1.211,1.007-1.287l9.195-1.119c0.655-0.105,1.215,0.375,1.291,1.007c0.079,0.635-0.375,1.215-1.007,1.291       l-9.195,1.119C2434.271,2567.453,2434.226,2567.456,2434.179,2567.456z M2464.829,2563.72c-0.58,0-1.077-0.431-1.149-1.017       c-0.079-0.635,0.375-1.215,1.008-1.29l9.195-1.123c0.655-0.072,1.215,0.375,1.291,1.008c0.079,0.635-0.375,1.215-1.008,1.291       l-9.195,1.123C2464.921,2563.717,2464.875,2563.72,2464.829,2563.72z M2294.265,2563.154c-0.303,0-0.609-0.119-0.836-0.355       c-2.183-2.275-4.175-4.754-5.923-7.365c-0.355-0.533-0.214-1.251,0.316-1.607c0.523-0.362,1.248-0.217,1.606,0.316       c1.676,2.502,3.582,4.872,5.672,7.048c0.441,0.464,0.428,1.195-0.033,1.639       C2294.841,2563.045,2294.554,2563.154,2294.265,2563.154z M2495.479,2559.98c-0.579,0-1.076-0.431-1.149-1.017       c-0.079-0.635,0.375-1.215,1.007-1.291l9.195-1.123c0.655-0.085,1.215,0.375,1.291,1.007c0.079,0.635-0.375,1.215-1.008,1.291       l-9.195,1.123C2495.571,2559.977,2495.525,2559.98,2495.479,2559.98z M2526.128,2556.24c-0.58,0-1.077-0.431-1.149-1.017       c-0.079-0.635,0.375-1.215,1.011-1.291l9.195-1.119c0.609-0.102,1.211,0.375,1.287,1.011c0.079,0.632-0.375,1.211-1.011,1.287       l-9.195,1.119C2526.22,2556.237,2526.174,2556.24,2526.128,2556.24z M2556.781,2552.504c-0.579,0-1.076-0.431-1.149-1.017       c-0.079-0.635,0.375-1.215,1.007-1.291l9.195-1.123c0.652-0.069,1.215,0.375,1.291,1.007c0.079,0.635-0.375,1.215-1.007,1.291       l-9.195,1.123C2556.873,2552.5,2556.827,2552.504,2556.781,2552.504z M2587.43,2548.764c-0.579,0-1.076-0.431-1.149-1.021       c-0.079-0.632,0.375-1.211,1.008-1.287l9.195-1.119c0.652-0.085,1.215,0.375,1.291,1.007c0.079,0.635-0.375,1.215-1.007,1.291       l-9.195,1.119C2587.523,2548.76,2587.477,2548.764,2587.43,2548.764z M2618.08,2545.027c-0.579,0-1.076-0.431-1.149-1.017       c-0.079-0.635,0.375-1.215,1.008-1.291l9.195-1.123c0.652-0.099,1.215,0.375,1.291,1.008c0.079,0.635-0.375,1.215-1.007,1.291       l-9.195,1.123C2618.172,2545.024,2618.126,2545.027,2618.08,2545.027z M2648.73,2541.287c-0.579,0-1.076-0.431-1.149-1.017       c-0.079-0.635,0.375-1.215,1.007-1.291l9.195-1.123c0.652-0.069,1.215,0.375,1.291,1.008c0.079,0.635-0.375,1.215-1.007,1.29       l-9.195,1.123C2648.822,2541.284,2648.776,2541.287,2648.73,2541.287z M2679.379,2537.548c-0.579,0-1.076-0.431-1.149-1.017       c-0.079-0.635,0.375-1.215,1.011-1.291l9.195-1.119c0.649-0.085,1.211,0.375,1.287,1.011c0.079,0.632-0.375,1.211-1.011,1.287       l-9.195,1.119C2679.471,2537.544,2679.425,2537.548,2679.379,2537.548z M2280.451,2536.04c-0.553,0-1.04-0.395-1.139-0.958       l-1.485-9.159c-0.102-0.632,0.326-1.225,0.958-1.327c0.642-0.105,1.225,0.329,1.327,0.958l1.478,9.126       c0.112,0.632-0.31,1.231-0.938,1.34C2280.583,2536.033,2280.517,2536.04,2280.451,2536.04z M2710.029,2533.811       c-0.579,0-1.076-0.431-1.149-1.017c-0.079-0.635,0.375-1.215,1.007-1.291l9.195-1.123c0.652-0.099,1.215,0.375,1.291,1.007       c0.079,0.635-0.375,1.215-1.007,1.291l-9.195,1.123C2710.121,2533.808,2710.075,2533.811,2710.029,2533.811z        M2739.921,2527.154c-0.402,0-0.793-0.211-1.004-0.586c-0.319-0.553-0.125-1.261,0.431-1.577       c2.597-1.485,5.014-3.286,7.183-5.353c0.468-0.441,1.202-0.418,1.639,0.04c0.441,0.464,0.421,1.198-0.04,1.639       c-2.308,2.196-4.875,4.108-7.638,5.682C2740.313,2527.105,2740.115,2527.154,2739.921,2527.154z M2275.539,2505.558       c-0.56,0-1.05-0.405-1.142-0.975l-1.471-9.146c-0.102-0.632,0.326-1.225,0.958-1.327c0.662-0.118,1.225,0.329,1.327,0.958       l1.471,9.146c0.102,0.632-0.326,1.225-0.958,1.327C2275.661,2505.552,2275.598,2505.558,2275.539,2505.558z M2758.051,2503.208       c-0.092,0-0.184-0.013-0.276-0.036c-0.622-0.152-1.001-0.78-0.846-1.399c0.649-2.634,1.004-5.356,1.057-8.085l0.016-0.826       c0.01-0.635,0.527-1.146,1.159-1.146c0.003,0,0.01,0,0.013,0c0.638,0.01,1.152,0.533,1.146,1.172l-0.016,0.849       c-0.059,2.897-0.438,5.788-1.129,8.589C2759.045,2502.855,2758.571,2503.208,2758.051,2503.208z M2270.637,2475.073       c-0.56,0-1.053-0.405-1.142-0.974l-1.468-9.146c-0.102-0.632,0.326-1.225,0.958-1.327c0.645-0.099,1.225,0.326,1.327,0.958       l1.468,9.146c0.102,0.632-0.326,1.225-0.958,1.327C2270.759,2475.066,2270.696,2475.073,2270.637,2475.073z M2759.295,2472.42       c-0.635,0-1.152-0.514-1.159-1.152c-0.02-2.992-0.053-6.08-0.109-9.251c-0.01-0.639,0.5-1.165,1.139-1.179       c0.609-0.105,1.165,0.5,1.178,1.139c0.056,3.177,0.089,6.271,0.109,9.277c0.003,0.639-0.51,1.159-1.152,1.166       C2759.302,2472.42,2759.299,2472.42,2759.295,2472.42z M2265.735,2444.585c-0.56,0-1.053-0.405-1.142-0.974l-1.468-9.146       c-0.102-0.632,0.326-1.225,0.958-1.327c0.665-0.109,1.228,0.329,1.327,0.958l1.469,9.146c0.102,0.632-0.326,1.225-0.958,1.327       C2265.857,2444.578,2265.794,2444.585,2265.735,2444.585z M2758.558,2441.54c-0.619,0-1.129-0.487-1.156-1.109       c-0.128-3.035-0.273-6.12-0.441-9.241c-0.036-0.639,0.454-1.185,1.093-1.218c0.718-0.073,1.182,0.458,1.218,1.093       c0.168,3.131,0.313,6.225,0.441,9.267c0.03,0.639-0.468,1.179-1.106,1.205C2758.591,2441.54,2758.574,2441.54,2758.558,2441.54       z M2260.836,2414.1c-0.56,0-1.05-0.405-1.142-0.974l-1.471-9.146c-0.102-0.632,0.326-1.225,0.958-1.327       c0.648-0.089,1.225,0.329,1.327,0.958l1.472,9.146c0.102,0.632-0.326,1.225-0.958,1.327       C2260.958,2414.093,2260.896,2414.1,2260.836,2414.1z M2756.675,2410.712c-0.599,0-1.106-0.461-1.156-1.067       c-0.244-3.045-0.51-6.12-0.797-9.218c-0.059-0.635,0.408-1.198,1.047-1.258c0.682-0.066,1.198,0.408,1.258,1.047       c0.286,3.104,0.553,6.186,0.803,9.244c0.049,0.635-0.425,1.195-1.063,1.248       C2756.737,2410.709,2756.704,2410.712,2756.675,2410.712z M2255.935,2383.615c-0.56,0-1.05-0.405-1.142-0.975l-1.663-10.327       l4.767-0.609c0.718-0.069,1.215,0.372,1.297,1.001c0.079,0.635-0.369,1.215-1.001,1.297l-2.397,0.306l1.281,7.964       c0.102,0.632-0.326,1.225-0.958,1.327C2256.056,2383.608,2255.994,2383.615,2255.935,2383.615z M2753.537,2379.99       c-0.576,0-1.076-0.428-1.149-1.014c-0.382-3.045-0.787-6.1-1.208-9.172c-0.089-0.632,0.352-1.218,0.988-1.304       c0.599-0.135,1.218,0.352,1.303,0.988c0.428,3.078,0.833,6.146,1.215,9.198c0.079,0.635-0.372,1.215-1.004,1.294       C2753.633,2379.987,2753.583,2379.99,2753.537,2379.99z M2279.486,2371.266c-0.576,0-1.073-0.428-1.149-1.01       c-0.082-0.635,0.369-1.215,1.001-1.297l9.185-1.175c0.711-0.102,1.215,0.372,1.297,1.001c0.082,0.635-0.369,1.215-1.001,1.297       l-9.185,1.175C2279.582,2371.263,2279.532,2371.266,2279.486,2371.266z M2310.113,2367.349c-0.576,0-1.073-0.428-1.149-1.011       c-0.082-0.635,0.369-1.215,1.001-1.297l9.188-1.175c0.704-0.095,1.218,0.372,1.297,1.001c0.082,0.635-0.369,1.215-1.001,1.297       l-9.188,1.175C2310.208,2367.345,2310.159,2367.349,2310.113,2367.349z M2340.74,2363.428c-0.576,0-1.073-0.428-1.149-1.011       c-0.082-0.635,0.369-1.215,1.001-1.297l9.188-1.175c0.698-0.086,1.218,0.375,1.297,1.001c0.082,0.635-0.369,1.215-1.001,1.297       l-9.188,1.175C2340.835,2363.424,2340.785,2363.428,2340.74,2363.428z M2371.366,2359.51c-0.576,0-1.073-0.428-1.149-1.01       c-0.082-0.635,0.369-1.215,1.001-1.297l9.188-1.175c0.738-0.079,1.215,0.372,1.297,1.001c0.082,0.635-0.369,1.215-1.001,1.297       l-9.188,1.175C2371.461,2359.507,2371.412,2359.51,2371.366,2359.51z M2401.992,2355.589c-0.576,0-1.073-0.428-1.149-1.01       c-0.082-0.635,0.369-1.215,1.001-1.297l9.188-1.175c0.734-0.069,1.215,0.372,1.297,1.001c0.083,0.635-0.369,1.215-1.001,1.297       l-9.188,1.175C2402.088,2355.586,2402.039,2355.589,2401.992,2355.589z M2432.622,2351.671c-0.576,0-1.073-0.428-1.149-1.01       c-0.082-0.635,0.369-1.215,1.001-1.297l9.188-1.175c0.724-0.063,1.215,0.372,1.297,1.001c0.082,0.635-0.369,1.215-1.001,1.297       l-9.188,1.175C2432.718,2351.668,2432.668,2351.671,2432.622,2351.671z M2748.958,2349.453c-0.553,0-1.04-0.395-1.139-0.958       c-0.537-3.029-1.1-6.057-1.689-9.086c-0.122-0.625,0.286-1.235,0.915-1.356c0.619-0.142,1.234,0.286,1.356,0.915       c0.596,3.042,1.159,6.084,1.696,9.126c0.112,0.629-0.306,1.231-0.938,1.34       C2749.093,2349.446,2749.024,2349.453,2748.958,2349.453z M2463.249,2347.75c-0.576,0-1.073-0.428-1.149-1.01       c-0.082-0.635,0.369-1.215,1.001-1.297l9.188-1.175c0.721-0.099,1.215,0.372,1.297,1.001c0.082,0.635-0.369,1.215-1.001,1.297       l-9.188,1.175C2463.344,2347.747,2463.295,2347.75,2463.249,2347.75z M2493.875,2343.833c-0.576,0-1.073-0.428-1.149-1.011       c-0.082-0.635,0.369-1.215,1.001-1.297l9.188-1.175c0.715-0.092,1.215,0.372,1.297,1.001c0.083,0.635-0.369,1.215-1.001,1.297       l-9.188,1.175C2493.971,2343.83,2493.921,2343.833,2493.875,2343.833z M2524.502,2339.912c-0.576,0-1.073-0.428-1.149-1.011       c-0.082-0.635,0.369-1.215,1.001-1.297l9.188-1.175c0.711-0.083,1.218,0.372,1.297,1.001c0.082,0.635-0.369,1.215-1.001,1.297       l-9.188,1.175C2524.597,2339.909,2524.548,2339.912,2524.502,2339.912z M2555.132,2335.994c-0.576,0-1.073-0.428-1.149-1.01       c-0.082-0.635,0.369-1.215,1.001-1.297l9.188-1.175c0.701-0.076,1.218,0.372,1.297,1.001c0.082,0.635-0.369,1.215-1.001,1.297       l-9.188,1.175C2555.227,2335.991,2555.178,2335.994,2555.132,2335.994z M2585.758,2332.073c-0.576,0-1.073-0.428-1.149-1.01       c-0.082-0.635,0.369-1.215,1.001-1.297l9.188-1.175c0.698-0.066,1.218,0.372,1.297,1.001c0.082,0.635-0.369,1.215-1.001,1.297       l-9.188,1.175C2585.854,2332.07,2585.804,2332.073,2585.758,2332.073z M2616.385,2328.156c-0.576,0-1.073-0.428-1.149-1.011       c-0.082-0.635,0.369-1.215,1.001-1.297l9.188-1.175c0.738-0.102,1.215,0.372,1.297,1.001c0.082,0.635-0.369,1.215-1.001,1.297       l-9.188,1.175C2616.48,2328.153,2616.431,2328.156,2616.385,2328.156z M2647.011,2324.235c-0.576,0-1.073-0.428-1.149-1.011       c-0.083-0.635,0.369-1.215,1.001-1.297l9.188-1.175c0.731-0.092,1.215,0.372,1.297,1.001c0.082,0.635-0.369,1.215-1.001,1.297       l-9.188,1.175C2647.107,2324.232,2647.057,2324.235,2647.011,2324.235z M2677.638,2320.317c-0.576,0-1.073-0.428-1.149-1.01       c-0.082-0.635,0.369-1.215,1.001-1.297l9.188-1.175c0.728-0.086,1.215,0.375,1.297,1.001c0.082,0.635-0.369,1.215-1.001,1.297       l-9.188,1.175C2677.733,2320.314,2677.684,2320.317,2677.638,2320.317z M2742.673,2319.221c-0.523,0-0.998-0.356-1.126-0.885       c-0.484-2.005-0.981-4.003-1.491-5.998l-1.014,0.132c-0.662,0.102-1.215-0.369-1.297-1.001       c-0.082-0.635,0.369-1.215,1.001-1.297l3.042-0.388l0.253,0.988c0.606,2.334,1.188,4.672,1.758,7.019       c0.151,0.622-0.234,1.248-0.853,1.399C2742.854,2319.211,2742.762,2319.221,2742.673,2319.221z M2708.268,2316.396       c-0.576,0-1.073-0.428-1.149-1.01c-0.082-0.635,0.369-1.215,1.001-1.297l9.188-1.175c0.718-0.076,1.215,0.372,1.297,1.001       c0.082,0.635-0.369,1.215-1.001,1.297l-9.188,1.175C2708.363,2316.393,2708.314,2316.396,2708.268,2316.396z"/>
					
						<linearGradient id="SVGID_00000034056501865218312530000005210062610440275841_" gradientUnits="userSpaceOnUse" x1="27.6047" y1="2902.5032" x2="24.5992" y2="2829.6211" gradientTransform="matrix(0.9919 -0.127 0.127 0.9919 1989.9969 -609.5969)">
						<stop offset="0" style="stop-color:#E1473D"/>
						<stop offset="1" style="stop-color:#E9605A"/>
					</linearGradient>
					<path style="fill:url(#SVGID_00000034056501865218312530000005210062610440275841_);" d="M2345.203,2236.659l-0.452-13.226       c0.979-3.297,3.558-5.872,6.87-6.843c12.386-3.63,43.288-11.18,59.83-1.829l4.199,14.899L2345.203,2236.659z"/>
					
						<linearGradient id="SVGID_00000044871576656708498170000016260320797692231297_" gradientUnits="userSpaceOnUse" x1="23.8027" y1="2793.0857" x2="38.8283" y2="3001.9419" gradientTransform="matrix(0.9919 -0.127 0.127 0.9919 1989.9969 -609.5969)">
						<stop offset="0" style="stop-color:#E1473D"/>
						<stop offset="1" style="stop-color:#E9605A"/>
					</linearGradient>
					<path style="fill:url(#SVGID_00000044871576656708498170000016260320797692231297_);" d="M2383.087,2219.029       c-2.821,1.083-5.737,1.454-8.75,1.11c-3.646-0.416-6.544-3.26-7.008-6.884l-5.236-40.926l20.827-2.665l5.233,40.895       C2388.619,2214.2,2386.528,2217.708,2383.087,2219.029z"/>
					
						<linearGradient id="SVGID_00000057135603505807899360000015455306956027011974_" gradientUnits="userSpaceOnUse" x1="230.6301" y1="2894.1443" x2="227.6246" y2="2821.2629" gradientTransform="matrix(0.9919 -0.127 0.127 0.9919 1989.9969 -609.5969)">
						<stop offset="0" style="stop-color:#E1473D"/>
						<stop offset="1" style="stop-color:#E9605A"/>
					</linearGradient>
					<path style="fill:url(#SVGID_00000057135603505807899360000015455306956027011974_);" d="M2546.927,2210.846l-0.451-13.226       c0.979-3.297,3.558-5.872,6.871-6.843c12.385-3.631,43.288-11.181,59.829-1.829l4.199,14.899L2546.927,2210.846z"/>
					
						<linearGradient id="SVGID_00000147933513304529385630000005944561706123088035_" gradientUnits="userSpaceOnUse" x1="226.2825" y1="2778.5344" x2="241.3079" y2="2987.3889" gradientTransform="matrix(0.9919 -0.127 0.127 0.9919 1989.9969 -609.5969)">
						<stop offset="0" style="stop-color:#E1473D"/>
						<stop offset="1" style="stop-color:#E9605A"/>
					</linearGradient>
					<path style="fill:url(#SVGID_00000147933513304529385630000005944561706123088035_);" d="M2584.812,2193.216       c-2.819,1.083-5.737,1.454-8.75,1.109c-3.646-0.416-6.544-3.26-7.008-6.884l-5.788-45.237l20.827-2.665l5.785,45.207       C2590.344,2188.386,2588.254,2191.896,2584.812,2193.216z"/>
					
						<linearGradient id="SVGID_00000124149884403481770640000017792037595002216620_" gradientUnits="userSpaceOnUse" x1="142.8841" y1="2676.8391" x2="122.6029" y2="2825.5674" gradientTransform="matrix(0.9919 -0.127 0.127 0.9919 1989.9969 -609.5969)">
						<stop offset="0" style="stop-color:#FF928E"/>
						<stop offset="1" style="stop-color:#FE7062"/>
					</linearGradient>
					<path style="fill:url(#SVGID_00000124149884403481770640000017792037595002216620_);" d="M2361.261,2182.632l223.033-36.076       c5.085-0.822,8.946-5.06,9.182-10.183c0.33-7.169,0.069-17.804-2.937-28.479c-3.418-12.14-15.238-19.97-27.84-18.662       c-41.911,4.353-148.279,17.994-203.937,48.687c-5.886,3.247-9.808,9.134-10.551,15.79c-0.71,6.348-0.653,14.696,2.374,22.812       C2352.192,2180.834,2356.698,2183.371,2361.261,2182.632z"/>
					<path style="opacity:0.58;fill:none;" d="M2355.765,2173.591c-1.402,0-2.673-0.965-3.006-2.39       c-0.082-0.365-2.061-9.047-0.849-17.81c0.971-7.088,5.682-13.29,12.296-16.184c12.099-5.3,35.331-14.646,54.985-17.725       c1.689-0.244,3.266,0.889,3.529,2.574c0.263,1.686-0.889,3.266-2.574,3.529c-19.674,3.078-43.943,13.109-53.464,17.277       c-4.655,2.038-7.973,6.393-8.655,11.368c-1.057,7.651,0.731,15.496,0.75,15.575c0.385,1.663-0.652,3.322-2.311,3.707       C2356.232,2173.565,2355.995,2173.591,2355.765,2173.591z"/>
					
						<linearGradient id="SVGID_00000081615785681451238310000010450234050204260532_" gradientUnits="userSpaceOnUse" x1="2498.1816" y1="2570.291" x2="2495.9343" y2="2311.8381">
						<stop offset="0" style="stop-color:#FF928E"/>
						<stop offset="1" style="stop-color:#FE7062"/>
					</linearGradient>
					<path style="fill:url(#SVGID_00000081615785681451238310000010450234050204260532_);" d="M2240.631,2244.865       c72.243-10.185,384.852-53.53,477.185-54.195c7.949-0.057,15.071,4.853,17.748,12.302       c8.481,23.602,26.511,78.646,32.388,134.743c0.799,7.634-3.96,14.771-11.293,17.154l-202.534,65.826l-73.729,9.435       l-226.783-15.661c-7.993-0.552-14.585-6.419-16-14.269c-5.038-27.956-15.734-93.696-13.563-137.169       C2224.512,2253.794,2231.431,2246.162,2240.631,2244.865z"/>
					<path style="fill:none;" d="M2479.864,2413.181c-0.026,0-0.053-0.003-0.079-0.003l-9.241-0.639       c-0.639-0.046-1.119-0.596-1.077-1.234c0.046-0.639,0.606-1.021,1.235-1.077l9.241,0.639c0.639,0.046,1.119,0.596,1.076,1.235       C2480.977,2412.714,2480.47,2413.181,2479.864,2413.181z M2488.305,2412.102c-0.576,0-1.073-0.428-1.149-1.011       c-0.082-0.635,0.369-1.215,1.001-1.297l9.188-1.175c0.731-0.095,1.215,0.372,1.297,1.001c0.082,0.635-0.369,1.215-1.001,1.297       l-9.188,1.175C2488.4,2412.098,2488.351,2412.102,2488.305,2412.102z M2449.06,2411.055c-0.026,0-0.053-0.003-0.079-0.003       l-9.241-0.639c-0.639-0.046-1.119-0.596-1.076-1.234c0.046-0.639,0.596-1.027,1.234-1.077l9.241,0.639       c0.638,0.046,1.119,0.596,1.076,1.235C2450.173,2410.587,2449.666,2411.055,2449.06,2411.055z M2418.256,2408.925       c-0.027,0-0.053-0.003-0.079-0.003l-9.241-0.635c-0.639-0.043-1.119-0.596-1.077-1.234c0.043-0.639,0.665-1.034,1.235-1.077       l9.241,0.635c0.639,0.043,1.119,0.596,1.076,1.235C2419.368,2408.457,2418.861,2408.925,2418.256,2408.925z M2518.935,2408.181       c-0.576,0-1.073-0.428-1.149-1.011c-0.082-0.635,0.369-1.215,1.001-1.297l9.188-1.175c0.721-0.085,1.215,0.372,1.297,1.001       c0.082,0.635-0.369,1.215-1.001,1.297l-9.188,1.175C2519.03,2408.177,2518.981,2408.181,2518.935,2408.181z M2387.455,2406.798       c-0.027,0-0.053-0.003-0.079-0.003l-9.241-0.639c-0.639-0.046-1.119-0.596-1.076-1.235c0.046-0.639,0.652-1.037,1.234-1.076       l9.241,0.639c0.639,0.046,1.119,0.596,1.077,1.235C2388.567,2406.331,2388.06,2406.798,2387.455,2406.798z M2356.65,2404.671       c-0.026,0-0.053-0.003-0.079-0.003l-9.241-0.639c-0.639-0.046-1.119-0.596-1.076-1.234c0.046-0.639,0.642-1.044,1.235-1.077       l9.241,0.639c0.639,0.046,1.119,0.596,1.076,1.234C2357.763,2404.204,2357.256,2404.671,2356.65,2404.671z M2549.561,2404.26       c-0.576,0-1.073-0.428-1.149-1.014c-0.079-0.632,0.369-1.212,1.004-1.294l0.596-0.076l8.023-2.627       c0.606-0.191,1.261,0.138,1.462,0.741c0.198,0.609-0.138,1.261-0.744,1.462l-9.047,2.798       C2549.657,2404.257,2549.607,2404.26,2549.561,2404.26z M2325.846,2402.545c-0.026,0-0.053-0.003-0.079-0.003l-9.241-0.639       c-0.639-0.046-1.119-0.596-1.076-1.234c0.046-0.635,0.632-1.05,1.234-1.077l9.241,0.639c0.639,0.046,1.119,0.596,1.077,1.234       C2326.958,2402.077,2326.452,2402.545,2325.846,2402.545z M2295.042,2400.415c-0.026,0-0.052-0.003-0.079-0.003l-9.241-0.635       c-0.639-0.043-1.119-0.596-1.077-1.235c0.046-0.635,0.622-1.057,1.235-1.076l9.241,0.635c0.639,0.043,1.119,0.596,1.076,1.235       C2296.154,2399.947,2295.647,2400.415,2295.042,2400.415z M2264.237,2398.288c-0.026,0-0.053-0.003-0.079-0.003l-9.863-0.682       l-0.165-0.882c-0.115-0.629,0.273-1.366,0.902-1.481c0.343-0.076,0.668-0.013,0.922,0.158l8.362,0.576       c0.639,0.043,1.119,0.596,1.076,1.235C2265.35,2397.82,2264.843,2398.288,2264.237,2398.288z M2578.95,2394.825       c-0.487,0-0.942-0.313-1.103-0.8c-0.198-0.609,0.138-1.264,0.744-1.462l8.81-2.861c0.603-0.184,1.261,0.142,1.462,0.744       c0.198,0.609-0.138,1.264-0.744,1.462l-8.81,2.861C2579.19,2394.805,2579.069,2394.825,2578.95,2394.825z M2608.316,2385.281       c-0.487,0-0.941-0.313-1.103-0.8c-0.198-0.609,0.138-1.264,0.744-1.462l8.81-2.861c0.615-0.181,1.264,0.138,1.462,0.744       c0.198,0.609-0.138,1.264-0.744,1.462l-8.81,2.861C2608.556,2385.261,2608.434,2385.281,2608.316,2385.281z M2251.605,2376.069       c-0.56,0-1.053-0.405-1.142-0.978c-0.468-2.927-0.948-5.991-1.429-9.168c-0.095-0.632,0.339-1.225,0.971-1.32       c0.662-0.063,1.224,0.342,1.32,0.971c0.481,3.17,0.955,6.229,1.422,9.155c0.102,0.629-0.329,1.225-0.961,1.323       C2251.727,2376.063,2251.665,2376.069,2251.605,2376.069z M2637.681,2375.737c-0.487,0-0.942-0.313-1.1-0.8       c-0.201-0.609,0.135-1.261,0.741-1.458l8.81-2.864c0.612-0.194,1.264,0.135,1.458,0.74c0.201,0.609-0.135,1.261-0.741,1.458       l-8.81,2.864C2637.922,2375.717,2637.8,2375.737,2637.681,2375.737z M2667.044,2366.193c-0.487,0-0.941-0.313-1.1-0.8       c-0.201-0.609,0.135-1.261,0.741-1.458l8.81-2.864c0.609-0.191,1.261,0.138,1.458,0.741c0.201,0.609-0.135,1.261-0.741,1.458       l-8.81,2.864C2667.284,2366.173,2667.162,2366.193,2667.044,2366.193z M2696.409,2356.649c-0.487,0-0.941-0.313-1.099-0.8       c-0.201-0.609,0.135-1.261,0.741-1.458l8.81-2.864c0.606-0.207,1.264,0.138,1.458,0.741c0.201,0.609-0.135,1.261-0.741,1.458       l-8.81,2.864C2696.65,2356.629,2696.528,2356.649,2696.409,2356.649z M2725.775,2347.105c-0.487,0-0.941-0.313-1.1-0.8       c-0.201-0.609,0.135-1.261,0.741-1.458l8.81-2.864c0.603-0.204,1.261,0.135,1.458,0.741c0.201,0.609-0.135,1.261-0.74,1.458       l-8.81,2.864C2726.015,2347.086,2725.894,2347.105,2725.775,2347.105z M2247.155,2345.492c-0.573,0-1.073-0.425-1.149-1.007       c-0.395-3.032-0.78-6.107-1.152-9.208c-0.076-0.635,0.375-1.212,1.011-1.287c0.635-0.069,1.211,0.375,1.287,1.011       c0.372,3.095,0.757,6.163,1.152,9.182c0.082,0.635-0.365,1.218-0.998,1.301       C2247.253,2345.489,2247.204,2345.492,2247.155,2345.492z M2749.218,2333.762c-0.576,0-1.076-0.431-1.149-1.017       c-0.378-3.058-0.79-6.114-1.234-9.155c-0.092-0.635,0.346-1.221,0.978-1.313c0.639-0.128,1.225,0.345,1.313,0.978       c0.444,3.062,0.863,6.13,1.241,9.208c0.079,0.635-0.372,1.211-1.008,1.291       C2749.31,2333.759,2749.264,2333.762,2749.218,2333.762z M2243.74,2314.78c-0.593,0-1.099-0.454-1.152-1.057       c-0.277-3.091-0.533-6.183-0.764-9.254c-0.046-0.635,0.431-1.192,1.07-1.241c0.724,0.056,1.192,0.435,1.241,1.07       c0.231,3.058,0.481,6.136,0.757,9.221c0.059,0.635-0.412,1.198-1.05,1.254C2243.81,2314.777,2243.773,2314.78,2243.74,2314.78z        M2744.356,2303.271c-0.543,0-1.031-0.385-1.136-0.938c-0.596-3.052-1.208-6.074-1.837-9.063       c-0.132-0.625,0.267-1.241,0.892-1.373c0.652-0.125,1.241,0.27,1.373,0.892c0.635,3.002,1.248,6.038,1.844,9.103       c0.122,0.625-0.286,1.235-0.915,1.356C2744.504,2303.264,2744.428,2303.271,2744.356,2303.271z M2241.881,2283.946       c-0.629,0-1.142-0.5-1.159-1.133c-0.059-2.505-0.089-4.974-0.092-7.394l0.007-1.906c0.003-0.635,0.524-1.152,1.159-1.152       c0.003,0,0.003,0,0.007,0c0.639,0.003,1.156,0.527,1.152,1.165l-0.007,1.893c0.003,2.4,0.033,4.849,0.092,7.341       c0.013,0.639-0.49,1.169-1.132,1.185C2241.9,2283.946,2241.89,2283.946,2241.881,2283.946z M2737.65,2273.118       c-0.52,0-0.991-0.352-1.123-0.879c-0.76-3.042-1.531-6.031-2.308-8.958c-0.165-0.619,0.204-1.251,0.823-1.416       c0.619-0.148,1.251,0.204,1.416,0.823c0.777,2.933,1.554,5.936,2.314,8.991c0.155,0.619-0.22,1.248-0.843,1.403       C2737.837,2273.105,2737.742,2273.118,2737.65,2273.118z M2253.308,2262.449c-0.57,0-1.067-0.418-1.146-0.998       c-0.089-0.635,0.352-1.218,0.984-1.307l9.182-1.281c0.606-0.125,1.218,0.352,1.304,0.988c0.089,0.632-0.352,1.218-0.988,1.303       l-9.175,1.281C2253.413,2262.445,2253.36,2262.449,2253.308,2262.449z M2283.904,2258.198c-0.57,0-1.067-0.421-1.146-1.001       c-0.089-0.632,0.355-1.218,0.988-1.304l9.178-1.264c0.612-0.128,1.215,0.352,1.304,0.988c0.089,0.632-0.356,1.218-0.988,1.304       l-9.178,1.264C2284.01,2258.195,2283.957,2258.198,2283.904,2258.198z M2314.514,2254.008c-0.573,0-1.07-0.422-1.149-1.004       c-0.086-0.632,0.359-1.215,0.994-1.304l9.185-1.244c0.648-0.073,1.218,0.359,1.304,0.994c0.086,0.632-0.359,1.218-0.994,1.304       l-9.185,1.244C2314.616,2254.004,2314.564,2254.008,2314.514,2254.008z M2345.121,2249.879c-0.573,0-1.07-0.425-1.149-1.004       c-0.082-0.635,0.362-1.218,0.994-1.303l9.185-1.228c0.655-0.109,1.215,0.362,1.303,0.994c0.082,0.635-0.362,1.218-0.994,1.304       l-9.185,1.228C2345.223,2249.876,2345.171,2249.879,2345.121,2249.879z M2375.741,2245.81c-0.573,0-1.07-0.425-1.149-1.007       c-0.082-0.632,0.362-1.215,0.997-1.3l9.188-1.208c0.642-0.082,1.218,0.365,1.3,0.998c0.082,0.635-0.365,1.215-0.998,1.3       l-9.188,1.208C2375.84,2245.807,2375.791,2245.81,2375.741,2245.81z M2729.462,2243.331c-0.497,0-0.958-0.326-1.109-0.826       c-0.922-3.078-1.834-6.034-2.716-8.843c-0.194-0.613,0.145-1.261,0.754-1.452c0.625-0.207,1.261,0.148,1.452,0.754       c0.889,2.821,1.801,5.784,2.729,8.875c0.185,0.612-0.165,1.258-0.777,1.442       C2729.683,2243.315,2729.571,2243.331,2729.462,2243.331z M2406.371,2241.804c-0.576,0-1.073-0.425-1.149-1.011       c-0.082-0.632,0.365-1.215,1.001-1.297l9.191-1.188c0.619-0.082,1.215,0.369,1.297,1.001c0.082,0.635-0.365,1.215-1.001,1.297       l-9.192,1.188C2406.47,2241.801,2406.42,2241.804,2406.371,2241.804z M2437.001,2237.876c-0.576,0-1.073-0.428-1.149-1.014       c-0.079-0.632,0.369-1.211,1.004-1.294l9.192-1.162c0.652-0.102,1.218,0.372,1.294,1.004c0.079,0.635-0.369,1.215-1.004,1.294       l-9.192,1.162C2437.096,2237.873,2437.047,2237.876,2437.001,2237.876z M2467.637,2234.028c-0.576,0-1.077-0.431-1.149-1.017       c-0.079-0.635,0.372-1.211,1.007-1.29l9.192-1.136c0.678-0.102,1.211,0.375,1.291,1.007c0.079,0.635-0.372,1.211-1.008,1.29       l-9.191,1.136C2467.733,2234.025,2467.683,2234.028,2467.637,2234.028z M2498.283,2230.271c-0.579,0-1.077-0.431-1.149-1.021       c-0.079-0.632,0.375-1.211,1.011-1.287l9.195-1.106c0.685-0.095,1.211,0.382,1.287,1.011c0.076,0.635-0.375,1.211-1.01,1.287       l-9.195,1.106C2498.375,2230.268,2498.33,2230.271,2498.283,2230.271z M2528.949,2226.624c-0.579,0-1.08-0.434-1.149-1.024       c-0.076-0.635,0.379-1.211,1.014-1.284l9.201-1.07c0.662-0.099,1.215,0.382,1.284,1.014c0.076,0.635-0.378,1.211-1.014,1.284       l-9.201,1.07C2529.038,2226.621,2528.992,2226.624,2528.949,2226.624z M2559.625,2223.111c-0.583,0-1.083-0.438-1.152-1.031       c-0.069-0.635,0.388-1.208,1.024-1.281l9.208-1.024c0.701-0.033,1.208,0.398,1.277,1.027c0.069,0.635-0.392,1.205-1.027,1.277       l-9.201,1.024C2559.711,2223.108,2559.668,2223.111,2559.625,2223.111z M2590.321,2219.757c-0.586,0-1.09-0.441-1.152-1.037       c-0.066-0.635,0.395-1.205,1.031-1.274l9.215-0.968c0.695-0.02,1.208,0.398,1.274,1.03c0.066,0.639-0.395,1.208-1.031,1.274       l-9.215,0.968C2590.4,2219.753,2590.361,2219.757,2590.321,2219.757z M2621.043,2216.619c-0.589,0-1.093-0.448-1.152-1.047       c-0.063-0.635,0.402-1.202,1.04-1.264l9.224-0.889c0.652-0.085,1.202,0.408,1.261,1.044c0.063,0.635-0.405,1.202-1.044,1.261       l-9.218,0.889C2621.119,2216.616,2621.079,2216.619,2621.043,2216.619z M2719.918,2213.946c-0.477,0-0.925-0.3-1.093-0.774       l-1.178-3.315c-1.346,0.01-2.749,0.03-4.207,0.063c-0.007,0-0.016,0-0.023,0c-0.629,0-1.146-0.504-1.159-1.136       c-0.013-0.639,0.494-1.169,1.136-1.182c1.58-0.033,3.094-0.056,4.546-0.063c0.803,0,1.501,0.458,1.745,1.136l1.327,3.727       c0.211,0.602-0.105,1.264-0.708,1.478C2720.175,2213.923,2720.047,2213.946,2719.918,2213.946z M2651.791,2213.775       c-0.596,0-1.103-0.454-1.152-1.06c-0.056-0.635,0.415-1.198,1.053-1.251c3.157-0.273,6.239-0.533,9.238-0.777       c0.635-0.036,1.195,0.425,1.248,1.063c0.049,0.635-0.425,1.195-1.063,1.248c-2.992,0.244-6.067,0.497-9.224,0.771       C2651.857,2213.771,2651.824,2213.775,2651.791,2213.775z M2682.576,2211.395c-0.606,0-1.116-0.471-1.156-1.083       c-0.043-0.635,0.441-1.188,1.08-1.231c3.213-0.214,6.298-0.405,9.257-0.573c0.688-0.095,1.188,0.455,1.221,1.09       c0.036,0.639-0.451,1.185-1.09,1.221c-2.953,0.168-6.031,0.359-9.238,0.573       C2682.625,2211.391,2682.602,2211.395,2682.576,2211.395z"/>
					
						<linearGradient id="SVGID_00000178183029627636100160000014333097057862473622_" gradientUnits="userSpaceOnUse" x1="2493.7288" y1="2480.2739" x2="2518.4502" y2="2365.6563">
						<stop offset="0" style="stop-color:#E1473D"/>
						<stop offset="1" style="stop-color:#E9605A"/>
					</linearGradient>
					<path style="fill:url(#SVGID_00000178183029627636100160000014333097057862473622_);" d="M2551.142,2452.539l-64.592,8.265       c-8.465,1.083-16.399-4.303-18.473-12.539l-15.416-61.2c-2.456-9.748,4.198-19.453,14.215-20.735l77.597-9.929       c9.815-1.256,18.589,6.135,18.967,15.977l2.412,62.864C2566.185,2443.925,2559.802,2451.431,2551.142,2452.539z"/>
					
						<linearGradient id="SVGID_00000178890854728468527110000016542499400324519041_" gradientUnits="userSpaceOnUse" x1="91.5888" y1="3060.4751" x2="176.7848" y2="3060.4751" gradientTransform="matrix(0.9919 -0.127 0.127 0.9919 1989.9969 -609.5969)">
						<stop offset="0" style="stop-color:#FF928E"/>
						<stop offset="1" style="stop-color:#FE7062"/>
					</linearGradient>
					<path style="fill:url(#SVGID_00000178890854728468527110000016542499400324519041_);" d="M2541.735,2442.124l-49.161,6.291       c-6.443,0.824-12.482-3.275-14.061-9.544l-11.734-46.58c-1.868-7.42,3.195-14.806,10.82-15.781l59.059-7.558       c7.47-0.955,14.149,4.67,14.436,12.161l1.836,47.846C2553.183,2435.567,2548.325,2441.28,2541.735,2442.124z"/>
				</g>
				
					<linearGradient id="SVGID_00000120558345485685179810000007185261130328197003_" gradientUnits="userSpaceOnUse" x1="2561.4456" y1="1982.0077" x2="2396.4287" y2="2299.3486">
					<stop offset="0" style="stop-color:#FEBBBA"/>
					<stop offset="1" style="stop-color:#FF928E"/>
				</linearGradient>
				<path style="fill:url(#SVGID_00000120558345485685179810000007185261130328197003_);" d="M2503.316,1946.814      c15.237,62.955,15.639,124.542,13.322,146.968c-0.875,8.455-7.669,15.055-16.148,15.65c-9.632,0.674-22.739,1.559-34.454,2.233      c-12.876,0.742-27.168-7.396-36.726-14.198c-4.879-3.473-11.19,1.935-8.465,7.268c4.694,9.185,12.849,16.42,20.944,22.57      c4.869,3.7,21.053,10.272,19.923,17.558c-0.356,2.298-1.741,4.299-3.23,6.085c-8.994,10.791-22.6,16.555-36.029,20.677      c-1.685,0.517-3.464,1.068-4.65,2.371c-0.334,8.685,26.38,18.333,33.275,20.621c10.33,3.429,21.285,4.881,32.133,3.738      c26.881-2.831,51.704-21.384,66.182-43.755c38.704-59.803,58.714-132.019,66.024-187.25      C2579.413,1931.358,2525.058,1940.482,2503.316,1946.814z"/>
				<g>
					
						<linearGradient id="SVGID_00000039131574870508451450000001409411146134590621_" gradientUnits="userSpaceOnUse" x1="2112.5193" y1="2253.9265" x2="2586.7236" y2="1737.0214">
						<stop offset="0" style="stop-color:#09005D"/>
						<stop offset="1" style="stop-color:#1A0F91"/>
					</linearGradient>
					<path style="fill:url(#SVGID_00000039131574870508451450000001409411146134590621_);" d="M2615.416,1973.037       c28.714-216.899-138.437-383.68-138.437-383.68l-99.449,115.938c75.504,94.112,111.395,180.351,127.79,248.085       C2527.062,1947.049,2579.413,1937.045,2615.416,1973.037z"/>
					
						<linearGradient id="SVGID_00000145777485865204100150000008203828738739573648_" gradientUnits="userSpaceOnUse" x1="2457.1382" y1="1750.9058" x2="2567.2615" y2="1317.1541">
						<stop offset="0" style="stop-color:#09005D"/>
						<stop offset="1" style="stop-color:#1A0F91"/>
					</linearGradient>
					<path style="fill:url(#SVGID_00000145777485865204100150000008203828738739573648_);" d="M2502.946,1952.319       c-2.775,0-5.299-1.888-5.981-4.709c-20.208-83.497-62.808-166.158-126.604-245.679c-2.129-2.653-1.705-6.531,0.947-8.661       c2.649-2.123,6.532-1.702,8.658,0.95c64.94,80.947,108.333,165.226,128.974,250.491c0.8,3.308-1.233,6.634-4.538,7.434       C2503.915,1952.265,2503.427,1952.319,2502.946,1952.319z"/>
				</g>
			</g>
			<g>
				<g>
					
						<linearGradient id="SVGID_00000183217030652229203600000007987986625626126012_" gradientUnits="userSpaceOnUse" x1="-276.0462" y1="3187.5869" x2="-134.037" y2="3187.5869" gradientTransform="matrix(1 0 0 1 1290.1023 0)">
						<stop offset="0" style="stop-color:#09005D"/>
						<stop offset="1" style="stop-color:#1A0F91"/>
					</linearGradient>
					<path style="fill:url(#SVGID_00000183217030652229203600000007987986625626126012_);" d="M1156.063,3238.151       c0.017-1.057-0.054-2.129-0.325-3.208c-15.994-63.411-95.379-102.907-95.379-102.907l-31.458,2.466       c-18.087,55.89-15.762,90.167-12.858,105.435c0.081,0.428,0.211,0.835,0.324,1.248       C1042.317,3243.505,1095.727,3245.019,1156.063,3238.151z"/>
					
						<linearGradient id="SVGID_00000160889549760349327350000005442717652048163464_" gradientUnits="userSpaceOnUse" x1="79.4665" y1="3020.0562" x2="-437.1673" y2="3425.7185" gradientTransform="matrix(1 0 0 1 1290.1023 0)">
						<stop offset="0" style="stop-color:#4F52FF"/>
						<stop offset="1" style="stop-color:#4042E2"/>
					</linearGradient>
					<path style="fill:url(#SVGID_00000160889549760349327350000005442717652048163464_);" d="M1016.367,3241.185       c1.401,5.099,5.165,9.069,9.982,10.082c36.913,7.763,95.583,1.516,120.216-1.705c5.435-0.71,9.407-5.737,9.497-11.411       C1095.727,3245.019,1042.317,3243.505,1016.367,3241.185z"/>
					
						<linearGradient id="SVGID_00000010270927092796099300000017640770926635393434_" gradientUnits="userSpaceOnUse" x1="-236.5548" y1="3025.9158" x2="-263.6809" y2="3262.6543" gradientTransform="matrix(1 0 0 1 1290.1023 0)">
						<stop offset="0" style="stop-color:#FEBBBA"/>
						<stop offset="1" style="stop-color:#FF928E"/>
					</linearGradient>
					<path style="fill:url(#SVGID_00000010270927092796099300000017640770926635393434_);" d="M1016.252,3087.648l13.323,64.138       c0.976,4.7,4.587,8.219,8.961,8.629c5.354,0.503,12.976,0.798,20.641-0.328c6.873-1.01,11.66-7.994,10.441-15.49l-9.261-56.949       H1016.252z"/>
					
						<linearGradient id="SVGID_00000103967416714083668070000007323260442301884564_" gradientUnits="userSpaceOnUse" x1="171.2437" y1="3136.7712" x2="-345.3909" y2="3542.4341" gradientTransform="matrix(1 0 0 1 1290.1023 0)">
						<stop offset="0" style="stop-color:#4F52FF"/>
						<stop offset="1" style="stop-color:#4042E2"/>
					</linearGradient>
					<path style="fill:url(#SVGID_00000103967416714083668070000007323260442301884564_);" d="M1292.3,3240.374       c-34.742-0.972-52.712-5.064-62.002-8.861c-0.021,3.454-0.002,6.969,0.11,10.612c0.12,3.89,3.001,6.998,6.546,6.975       l190.757-1.232c6.088-0.039,9.645-7.099,7.007-12.682C1409.707,3237.254,1346.006,3241.877,1292.3,3240.374z"/>
					
						<linearGradient id="SVGID_00000163778205568852353380000006233582221301343672_" gradientUnits="userSpaceOnUse" x1="-59.804" y1="3191.1963" x2="144.6163" y2="3191.1963" gradientTransform="matrix(1 0 0 1 1290.1023 0)">
						<stop offset="0" style="stop-color:#09005D"/>
						<stop offset="1" style="stop-color:#1A0F91"/>
					</linearGradient>
					<path style="fill:url(#SVGID_00000163778205568852353380000006233582221301343672_);" d="M1434.719,3235.187       c-0.23-0.485-0.427-0.98-0.755-1.438c-16.846-23.54-59.753-70.412-144.538-90.743l-40.673-1.283       c0,0-18.111,31.479-18.453,89.79c9.29,3.797,27.26,7.888,62.002,8.861C1346.006,3241.877,1409.707,3237.254,1434.719,3235.187z       "/>
					
						<linearGradient id="SVGID_00000060713278002252023110000017829500650051025291_" gradientUnits="userSpaceOnUse" x1="89.2825" y1="2996.7639" x2="62.1559" y2="3233.5061" gradientTransform="matrix(0.998 -0.0629 0.0629 0.998 993.2088 65.7657)">
						<stop offset="0" style="stop-color:#FEBBBA"/>
						<stop offset="1" style="stop-color:#FF928E"/>
					</linearGradient>
					<path style="fill:url(#SVGID_00000060713278002252023110000017829500650051025291_);" d="M1239.398,3081.973       c0.642,2.998,9.105,48.635,12.383,66.33c0.779,4.204,4.055,7.29,7.953,7.507c6.964,0.391,18.197,0.437,27.857-2.186       c5.211-1.415,8.712-6.728,8.34-12.624l-4.551-72.187L1239.398,3081.973z"/>
					
						<linearGradient id="SVGID_00000104686721674569475050000002502977229706341052_" gradientUnits="userSpaceOnUse" x1="1285.5208" y1="2160.9644" x2="832.5795" y2="3594.5002">
						<stop offset="0" style="stop-color:#09005D"/>
						<stop offset="1" style="stop-color:#1A0F91"/>
					</linearGradient>
					<path style="fill:url(#SVGID_00000104686721674569475050000002502977229706341052_);" d="M1208.577,2239.331       c0,0,55.951,384.47,96.329,841.984c0.752,8.521-6.038,15.937-14.408,17.699c-12.335,2.598-30.467,5.682-45.477,5.261       c-8.013-0.224-14.711-6.167-16.059-14.069c-13.755-80.667-111.91-513.597-137.671-608.88c0,0-29.591,404.741-20.132,614.724       c0.236,5.221-3.587,9.751-8.779,10.35c-7.876,0.91-20.475,1.602-36.51-0.102c-6.087-0.646-10.997-5.247-11.867-11.307       c-9.798-68.27-66.192-474.641-63.795-767.376c0.136-16.508,19.369-152.143,19.369-152.143L1208.577,2239.331z"/>
				</g>
				
					<linearGradient id="SVGID_00000028312231168660606150000016299363046645470125_" gradientUnits="userSpaceOnUse" x1="866.3274" y1="2272.5674" x2="1380.9854" y2="1641.0438">
					<stop offset="0" style="stop-color:#FF928E"/>
					<stop offset="1" style="stop-color:#FE7062"/>
				</linearGradient>
				<path style="fill:url(#SVGID_00000028312231168660606150000016299363046645470125_);" d="M961.167,2261.491      c-5.753-2.044-9.763-7.259-10.389-13.333c-7.44-72.186-43.466-519.765,183.972-703.88c0,0,13.043-34.126,120.252,49.76      c107.209,83.884,49.81,171.81,24.143,293.085c-31.06,146.751-85.556,266.707-61.444,357.016      c1.664,6.232-1.613,12.776-7.665,15.007C1126.755,2289.838,1043.795,2290.854,961.167,2261.491z"/>
				
					<linearGradient id="SVGID_00000078724131146113133020000006671879967326587564_" gradientUnits="userSpaceOnUse" x1="1105.1306" y1="1578.342" x2="1293.9136" y2="1465.9713">
					<stop offset="0" style="stop-color:#FEBBBA"/>
					<stop offset="1" style="stop-color:#FF928E"/>
				</linearGradient>
				<path style="fill:url(#SVGID_00000078724131146113133020000006671879967326587564_);" d="M1223.467,1410.174      c-0.072,6.369-90.89,135.365-90.89,135.365s16.301,32.105,94.123,58.171l67.176-138.116L1223.467,1410.174z"/>
				<g>
					
						<linearGradient id="SVGID_00000180333439008766704160000004753579208245491340_" gradientUnits="userSpaceOnUse" x1="1311.0677" y1="1502.5952" x2="1200.886" y2="1340.6957">
						<stop offset="0" style="stop-color:#FEBBBA"/>
						<stop offset="1" style="stop-color:#FF928E"/>
					</linearGradient>
					<path style="fill:url(#SVGID_00000180333439008766704160000004753579208245491340_);" d="M1294.971,1336.256       c0,0,32.315,74.233,34.485,113.195c2.17,38.962,10.566,64.244-34.485,72.09c-45.05,7.846-83.002-14.597-103.561-53.408       c0,0-32.214-59.803-24.988-84.294C1173.648,1359.348,1294.971,1336.256,1294.971,1336.256z"/>
					
						<linearGradient id="SVGID_00000124140041246952274130000014346702531156701370_" gradientUnits="userSpaceOnUse" x1="1106.8945" y1="1220.5349" x2="1262.6603" y2="1402.9731">
						<stop offset="0" style="stop-color:#09005D"/>
						<stop offset="1" style="stop-color:#1A0F91"/>
					</linearGradient>
					<path style="fill:url(#SVGID_00000124140041246952274130000014346702531156701370_);" d="M1206.804,1440.229l2.564-1.13       c3.264-1.439,4.662-5.325,3.022-8.494c-6.352-12.275-18.737-40.402-2.738-46.964c20.618-8.456,102.291-25.111,119.912-54.092       c16.936-27.852,1.93-63.805-20.621-74.031c-1.509-0.684-3.289-0.141-4.063,1.324l-1.879,3.556       c-1.287,2.435-4.883,2.065-5.647-0.58l0,0c-0.735-2.539-4.112-3.031-5.513-0.79c-5.417,8.67-20.04,22.727-59.146,29.943       c-55.578,10.258-92.323,32.749-93.237,71.154c-0.058,2.439-2.654,3.796-4.738,2.526c-4.103-2.501-10.67-3.674-19.447,3.706       c-15.264,12.834-9.018,46.126,24.442,73.512c1.59,1.301,1.577,3.783-0.144,4.903c-6.066,3.948-15.109,13.344,8.322,25.869       c24.235,12.955,42.332,11.892,49.301,10.742c1.734-0.286,2.851-1.964,2.472-3.68l-7.437-33.754       c-0.421-1.911,1.033-3.72,2.989-3.72H1206.804z"/>
					
						<linearGradient id="SVGID_00000021090445479953208750000011760471446887188891_" gradientUnits="userSpaceOnUse" x1="1257.6084" y1="1538.9775" x2="1147.4849" y2="1377.1636">
						<stop offset="0" style="stop-color:#FEBBBA"/>
						<stop offset="1" style="stop-color:#FF928E"/>
					</linearGradient>
					<path style="fill:url(#SVGID_00000021090445479953208750000011760471446887188891_);" d="M1208.203,1447.352       c0,0-12.328-47.419-33.588-34.124c-21.26,13.295,11.033,53.131,28.124,54.905L1208.203,1447.352z"/>
				</g>
				<g>
					
						<linearGradient id="SVGID_00000114060551431639706140000003869931431637769600_" gradientUnits="userSpaceOnUse" x1="1118.3248" y1="1997.4637" x2="1356.5511" y2="1671.5883">
						<stop offset="0" style="stop-color:#FF928E"/>
						<stop offset="1" style="stop-color:#FE7062"/>
					</linearGradient>
					<path style="fill:url(#SVGID_00000114060551431639706140000003869931431637769600_);" d="M1289.49,1632.964l6.262,168.169       c17.785,6.12,34.717,10.881,50.841,14.436c10.086-32.47,32.293-72.322,50.478-101.953       C1330.258,1689.999,1289.49,1632.964,1289.49,1632.964z"/>
					
						<linearGradient id="SVGID_00000052810596869458042970000014589031727293996206_" gradientUnits="userSpaceOnUse" x1="1744.0546" y1="1615.9733" x2="1347.7385" y2="1813.1185">
						<stop offset="0" style="stop-color:#FEBBBA"/>
						<stop offset="1" style="stop-color:#FF928E"/>
					</linearGradient>
					<path style="fill:url(#SVGID_00000052810596869458042970000014589031727293996206_);" d="M1623.058,1630.104       c-91.65,98.953-165.831,104.777-225.988,83.513c-18.185,29.631-40.392,69.483-50.478,101.953       c244.749,53.959,302.383-171.042,302.383-171.042L1623.058,1630.104z"/>
					
						<linearGradient id="SVGID_00000072271380764349733520000015536761420186209684_" gradientUnits="userSpaceOnUse" x1="1738.2527" y1="1566.5283" x2="1602.6919" y2="1708.1143">
						<stop offset="0" style="stop-color:#FEBBBA"/>
						<stop offset="1" style="stop-color:#FF928E"/>
					</linearGradient>
					<path style="fill:url(#SVGID_00000072271380764349733520000015536761420186209684_);" d="M1641.645,1619.593       c0,0,10.557-11.337,30.097-7.774c19.539,3.563,36.931,10.351,49.105,0c12.174-10.351,16.454,3.541,16.454,3.541l-36.455,27.713       L1641.645,1619.593z"/>
					
						<linearGradient id="SVGID_00000082329259403235864450000011952140091656010648_" gradientUnits="userSpaceOnUse" x1="1745.9384" y1="1613.6368" x2="1349.6238" y2="1810.7814">
						<stop offset="0" style="stop-color:#FEBBBA"/>
						<stop offset="1" style="stop-color:#FF928E"/>
					</linearGradient>
					<path style="fill:url(#SVGID_00000082329259403235864450000011952140091656010648_);" d="M1619.84,1638.974       c0,0,7.234-30.248,29.034-26.102c21.8,4.146,71.29,31.059,84.044,26.102c12.754-4.958,29.063-16.825,37.431-12.63       l-14.738,18.324c0,0,37.889-21.858,44.411-8.428l-63.046,35.478C1736.977,1671.718,1644.739,1662.483,1619.84,1638.974z"/>
				</g>
				
					<linearGradient id="SVGID_00000039845027242231303960000012138661711355430050_" gradientUnits="userSpaceOnUse" x1="1911.553" y1="1948.1381" x2="761.4111" y2="1740.1605">
					<stop offset="0" style="stop-color:#FEBBBA"/>
					<stop offset="1" style="stop-color:#FF928E"/>
				</linearGradient>
				<path style="fill:url(#SVGID_00000039845027242231303960000012138661711355430050_);" d="M1187.752,1853.063      c0,0,172.306,144.307,358.367,81.339c11.54-3.906,24.158-3.057,34.932,2.632l53.491,28.251      c22.452,11.857,50.256,4.073,63.284-17.72c7.431-12.431,13.773-26.63,15.034-40.232l-104.667-42.372l7.717-12.834      c0,0-51.103-4.329-64.479,32.295c0,0-97.336,40.486-261.488-140.067C1289.944,1744.355,1215.454,1807.693,1187.752,1853.063z"/>
				
					<linearGradient id="SVGID_00000012454881291355189670000007991109758847868039_" gradientUnits="userSpaceOnUse" x1="1348.0304" y1="1443.7206" x2="845.0705" y2="2214.6328">
					<stop offset="0" style="stop-color:#E1473D"/>
					<stop offset="1" style="stop-color:#E9605A"/>
				</linearGradient>
				<path style="fill:url(#SVGID_00000012454881291355189670000007991109758847868039_);" d="M1178.477,1851.569      c-0.567,0-1.144-0.162-1.648-0.507c-72.552-49.018-106.681-128.137-107.018-128.932c-0.634-1.504,0.066-3.232,1.563-3.866      c1.503-0.639,3.229,0.058,3.868,1.561c0.329,0.778,33.825,78.335,104.887,126.351c1.351,0.91,1.705,2.742,0.792,4.096      C1180.355,1851.114,1179.424,1851.569,1178.477,1851.569z"/>
				
					<linearGradient id="SVGID_00000041980049052282106030000000039236980776773292_" gradientUnits="userSpaceOnUse" x1="1341.0541" y1="1439.1687" x2="838.0923" y2="2210.0837">
					<stop offset="0" style="stop-color:#E1473D"/>
					<stop offset="1" style="stop-color:#E9605A"/>
				</linearGradient>
				<path style="fill:url(#SVGID_00000041980049052282106030000000039236980776773292_);" d="M1286.543,1741.907      c-0.968,0-1.918-0.479-2.482-1.355c-0.219-0.339-22.384-34.841-64.599-110.434c-12.982-23.244-30.043-37.964-50.709-43.748      c-34.224-9.563-67.208,8.786-67.534,8.97c-1.42,0.784-3.214,0.311-4.021-1.106c-0.804-1.417-0.311-3.215,1.106-4.021      c1.423-0.806,35.348-19.788,71.984-9.534c22.26,6.21,40.539,21.875,54.324,46.558c42.11,75.403,64.19,109.783,64.409,110.123      c0.882,1.365,0.487,3.191-0.881,4.074C1287.643,1741.757,1287.091,1741.907,1286.543,1741.907z"/>
			</g>
		</g>
	</g>
</g>
</svg>
