<svg xml:space="preserve" style="max-height: 500px" viewBox="79.14375 340.5405405405405 1485 1373.873873873874" y="0px" x="0px" version="1.1" xmlns:xlink="http://www.w3.org/1999/xlink" xmlns="http://www.w3.org/2000/svg" width="1485" height="1373.873873873874">
<g id="BG">
	<rect fill="none" height="2000" width="4500" style="fill:none;"/>
</g>
<g id="finger_scan">
	<g id="gear_1_">
		<g>
			<path d="M3984.748,1256.786c-4.721,18.195-5.63,36.481-3.224,54.008l15.159-2.061     c2.245,16.526,7.804,32.294,16.066,46.425l-13.155,7.736c9.149,15.56,21.268,29.374,35.89,40.48l2.079-2.698l7.189-9.463     c12.762,9.724,27.683,17.132,44.194,21.416l-3.847,14.826c18.196,4.721,36.482,5.629,54.023,3.168l-2.061-15.16     c16.512-2.189,32.279-7.748,46.41-16.01l7.736,13.156c15.56-9.149,29.389-21.326,40.495-35.946l-0.056-0.015l-3.494-2.705     l-8.61-6.549c9.725-12.762,17.117-27.626,21.401-44.137l14.827,3.847c4.721-18.195,5.643-36.537,3.182-54.078l-15.16,2.061     c-2.189-16.512-7.763-32.224-16.025-46.355l13.157-7.735c-9.149-15.561-21.325-29.389-35.946-40.495l-9.269,12.161     c-12.762-9.724-27.625-17.118-44.137-21.402l3.847-14.825c-18.195-4.721-36.536-5.644-54.078-3.183l2.061,15.16     c-16.511,2.188-32.224,7.763-46.355,16.024l-7.735-13.155c-15.616,9.134-29.389,21.325-40.496,35.946l0.098,0.085l8.01,6.095     l4.054,3.089c-9.725,12.762-17.133,27.683-21.403,44.137L3984.748,1256.786z M4054.778,1274.956     c9.384-36.166,46.304-57.875,82.47-48.491c36.222,9.398,57.932,46.319,48.549,82.485c-9.398,36.222-46.321,57.931-82.542,48.533     C4067.088,1348.099,4045.379,1311.178,4054.778,1274.956z" style="fill:#AAE0FF;"/>
		</g>
		<g>
			<path d="M4151.307,984.241     c-5.732,8.735-9.474,18.198-11.334,27.853l8.347,1.621c-1.768,9.1-1.655,18.391,0.172,27.304l-8.305,1.725     c2.039,9.823,5.953,19.257,11.668,27.712l1.575-1.049l5.473-3.698c4.982,7.396,11.514,13.958,19.44,19.159l-4.671,7.118     c8.735,5.732,18.199,9.473,27.871,11.308l1.621-8.348c9.082,1.794,18.373,1.682,27.286-0.146l1.724,8.306     c9.823-2.039,19.275-5.981,27.729-11.695l-0.027-0.018l-1.356-2.047l-3.364-4.984c7.396-4.982,13.94-11.487,19.142-19.414     l7.118,4.671c5.732-8.735,9.491-18.225,11.325-27.898l-8.347-1.62c1.794-9.082,1.665-18.347-0.163-27.26l8.306-1.724     c-2.039-9.823-5.98-19.275-11.695-27.73l-7.049,4.747c-4.982-7.396-11.486-13.94-19.413-19.142l4.67-7.117     c-8.735-5.732-18.225-9.491-27.897-11.325l-1.621,8.348c-9.082-1.794-18.347-1.664-27.26,0.162l-1.724-8.305     c-9.85,2.021-19.275,5.98-27.73,11.694l0.037,0.062l3.128,4.638l1.583,2.349c-7.396,4.982-13.958,11.514-19.142,19.413     L4151.307,984.241z M4184.926,1006.302c11.393-17.362,34.701-22.201,52.063-10.807c17.389,11.411,22.228,34.719,10.835,52.081     c-11.411,17.389-34.72,22.227-52.109,10.817C4178.353,1047,4173.515,1023.691,4184.926,1006.302z" style="fill:none;stroke:#135BCC;stroke-width:2.1377;stroke-miterlimit:10;"/>
		</g>
	</g>
	<path d="M4144.846,1630.523H3124.465c-3.727,0-6.747-3.021-6.747-6.747s3.021-6.747,6.747-6.747h1020.381   c3.727,0,6.747,3.021,6.747,6.747S4148.572,1630.523,4144.846,1630.523z" style="fill:#2E5B99;"/>
	<g id="phone_1_">
		<g>
			<g>
				<path d="M4086.844,515.607c-9.259-54.85-93.727-79.613-92.073-43.813l-387.215,2.268      c-26.819,0.157-48.566,24.285-48.589,53.918l-0.803,1018.377c-0.024,30.699,22.101,55.798,49.435,56.033l395.285,3.391      c2.453,5.152,7.045,9.84,14.28,13.754c45.332,0.966,67.075-21.422,75.018-46.73c2.587-6.792,3.994-14.301,3.929-22.215      C4094.528,1537.332,4089.709,528.469,4086.844,515.607z" style="fill:#408BFF;"/>
				<path d="M4012.938,1619.696l-453.73-2.925c-28.314-0.182-51.216-25.961-51.164-57.548l1.703-1047.309      c0.05-30.459,22.589-55.202,50.355-55.292l444.915-1.445c27.986-0.091,50.873,24.616,51.107,55.214l8.064,1052.151      C4064.431,1594.278,4041.48,1619.88,4012.938,1619.696z" style="fill:#408BFF;"/>
				<path d="M4019.201,1612.078c-1.885,0.252-3.814,0.373-5.733,0.359l-453.591-3.432c-24.33-0.184-44.216-22.784-44.174-50.355      l1.567-1046.159c0.04-26.591,19.611-48.292,43.476-48.395l444.886-1.935c0.696-0.003,1.399,0.012,2.091,0.044      c11.196,0.519,21.658,5.619,29.477,14.347c7.992,8.92,12.438,20.742,12.534,33.307l7.958,1053.217      C4057.88,1588.037,4041.391,1609.104,4019.201,1612.078z"/>
				<polygon points="4034.133,512.716 4041.784,1562.267 3530.794,1559.207 3532.098,512.716" style="fill:#AAE0FF;"/>
			</g>
		</g>
		<g>
			<rect height="15.503" width="206.71" style="fill:#80D1FF;" y="1350.046" x="3682.672"/>
			<rect height="15.503" width="342.792" style="fill:#80D1FF;" y="1384.498" x="3616.066"/>
			<rect height="15.503" width="314.082" style="fill:#80D1FF;" y="1418.949" x="3630.421"/>
		</g>
		<g>
			<g>
				<path d="M3740.239,1122.643v63.774c0,7.1,86.705,7.1,86.705,0v-63.774H3740.239z" style="fill:#296ACC;"/>
				<path d="M3819.354,1119.548h-8.777v-21.28c0-14.88-12.105-26.985-26.982-26.985      c-14.879,0-26.985,12.105-26.985,26.985v4.294h-8.777v-4.294c0-19.719,16.042-35.762,35.762-35.762      c19.717,0,35.759,16.042,35.759,35.762V1119.548z" style="fill:#296ACC;"/>
			</g>
			<path d="M3775.507,1176.725c-0.903,0-1.805-0.356-2.464-1.067l-14.291-15.312     c-1.271-1.37-1.199-3.505,0.165-4.77c1.357-1.278,3.492-1.199,4.764,0.158l12.011,12.874l33.595-30.756     c1.384-1.252,3.511-1.159,4.77,0.211c1.258,1.37,1.16,3.505-0.211,4.77l-36.059,33.009     C3777.135,1176.435,3776.324,1176.725,3775.507,1176.725z" style="fill:#AAE0FF;"/>
		</g>
		<circle r="159.981" cy="785.395" cx="3781.807" style="fill:#66C8FF;"/>
		<g>
			<defs>
				
					<ellipse ry="115.698" rx="115.698" cy="785.395" cx="3781.807" transform="matrix(0.7071 -0.7071 0.7071 0.7071 552.3073 2904.178)" id="SVGID_1_"/>
			</defs>
			<clipPath id="SVGID_00000117672158886370972460000009710241591999243652_">
				
			</clipPath>
			<g style="clip-path:url(#SVGID_00000117672158886370972460000009710241591999243652_);">
				<path d="M3838.047,1059.937c-14.32,0-28.61-2.257-42.159-6.809      c-36.841-12.377-66.539-40.432-85.883-81.132c-33.177-69.804-36.336-96.274-41.571-140.129      c-0.755-6.328-1.536-12.872-2.463-20.001c-4.083-37.026,4.294-70.189,24.217-95.986c18.776-24.314,46.749-40.104,78.765-44.461      c31.524-4.288,60.185,2.727,82.887,20.292c23.171,17.928,38.449,45.714,44.185,80.354l1.193,7.875      c7.676,50.751,11.18,73.914,36.192,124.623c16.875,34.209,20.771,66.184,11.266,92.466      c-8.092,22.378-25.254,39.535-51.005,50.994C3876.221,1055.935,3857.108,1059.937,3838.047,1059.937z M3786.665,678.825      c-5.381,0-10.898,0.377-16.549,1.146c-63.812,8.685-103.114,62.498-95.576,130.865c0.923,7.092,1.707,13.658,2.465,20.008      c5.13,42.979,8.227,68.92,40.795,137.447c27.609,58.089,75.18,82.992,120.706,82.995c17.977,0.002,35.626-3.879,51.614-11.132      l0.029-0.013c23.53-10.468,39.145-25.961,46.409-46.049c8.686-24.02,4.921-53.659-10.89-85.712      c-25.606-51.911-29.173-75.489-36.986-127.15l-1.184-7.812C3877.744,714.498,3838.947,678.825,3786.665,678.825z" style="fill:#296ACC;"/>
				<path d="M3834.484,1044.612c-12.459,0-24.943-2.005-36.825-6.049      c-22.11-7.524-52.708-25.656-72.914-69.307c-32.822-70.902-36.694-101.721-42.556-148.37c-0.628-5.003-1.28-10.196-1.995-15.648      c-3.476-26.513,3.982-53.24,20.998-75.258c16.922-21.896,41.368-36.661,68.836-41.576c25.774-4.613,50.657,0.514,70.059,14.437      c20.008,14.358,33.273,37.253,37.352,64.467c8.702,58.046,14.044,88.299,40.154,141.255      c14.523,29.458,17.659,57.442,9.066,80.926c-7.211,19.705-22.7,35.218-44.798,44.865      C3867.078,1041.168,3850.805,1044.612,3834.484,1044.612z M3788.703,695.337c-5.584,0-11.313,0.519-17.154,1.564      c-52.18,9.337-89.322,57.434-82.796,107.216c0.716,5.468,1.371,10.676,2.001,15.693c5.761,45.847,9.565,76.136,41.823,145.82      c31.739,68.56,98.763,82.533,145.709,60.868l0.084-0.037c20.188-8.803,33.708-22.239,40.183-39.936      c7.651-20.912,4.562-47.243-8.702-74.143c-26.624-53.999-32.351-86.441-40.947-143.793      c-3.73-24.888-15.752-45.747-33.849-58.734C3821.666,700.246,3805.874,695.337,3788.703,695.337z" style="fill:#296ACC;"/>
				<path d="M3868.825,839.518c-1.959,0-3.732-1.343-4.198-3.334c-4.569-19.523-7.544-38.803-11.561-65.987      c-4.341-29.381-22.462-50.792-48.472-57.272c-2.313-0.576-3.721-2.918-3.145-5.231c0.575-2.312,2.921-3.72,5.23-3.144      c29.081,7.245,50.127,31.916,54.925,64.385c3.984,26.97,6.933,46.085,11.426,65.282c0.543,2.321-0.897,4.643-3.219,5.186      C3869.481,839.481,3869.151,839.518,3868.825,839.518z" style="fill:#296ACC;"/>
				<path d="M3832.351,1028.19c-11.001,0-22.087-1.854-32.63-5.589      c-18.422-6.525-43.806-21.781-60.111-57.405c-0.992-2.167-0.04-4.729,2.128-5.721c2.169-0.992,4.728-0.039,5.72,2.128      c25.672,56.088,80.725,68.007,119.493,50.744c16.652-7.074,28.338-18.65,33.86-33.504c6.636-17.85,4.251-39.952-6.713-62.235      c-9.768-19.847-19.154-44.05-25.754-66.403c-0.676-2.286,0.631-4.687,2.917-5.361c2.285-0.673,4.687,0.631,5.36,2.917      c6.468,21.904,15.66,45.609,25.221,65.036c12.023,24.434,14.529,48.957,7.059,69.054c-6.369,17.134-19.686,30.416-38.507,38.411      C3858.556,1025.534,3845.514,1028.19,3832.351,1028.19z" style="fill:#296ACC;"/>
				<path d="M3731.548,940.139c-1.702,0-3.314-1.013-3.998-2.686c-19.701-48.263-23.053-75.34-27.69-112.816      c-0.752-6.075-1.53-12.356-2.42-19.098c-3.202-24.241,3.634-48.958,18.755-67.815c11.394-14.208,32.855-31.837,70.399-35.138      c2.384-0.209,4.468,1.547,4.677,3.921c0.209,2.375-1.547,4.468-3.921,4.677c-27.314,2.401-49.592,13.445-64.422,31.939      c-13.655,17.028-19.826,39.366-16.932,61.285c0.896,6.776,1.675,13.075,2.429,19.167c4.727,38.187,7.85,63.415,27.117,110.615      c0.9,2.207-0.158,4.726-2.365,5.626C3732.643,940.035,3732.091,940.139,3731.548,940.139z" style="fill:#296ACC;"/>
				<path d="M3877.392,992.821c-1.059,0-2.12-0.388-2.953-1.169c-1.737-1.632-1.823-4.363-0.192-6.101      c4.361-4.646,7.613-10.093,9.663-16.19c4.771-14.191,2.815-31.35-5.507-48.313c-27.49-56.038-32.472-90.255-40.726-146.945      c-2.33-16-10.2-29.389-22.162-37.7c-11.629-8.08-26.318-10.751-41.356-7.517c-32.703,7.029-56.711,40.163-52.427,72.354      c0.314,2.363-1.347,4.533-3.709,4.847c-2.358,0.317-4.533-1.345-4.848-3.708c-2.39-17.954,2.613-36.457,14.086-52.101      c11.143-15.194,27.575-26.067,45.083-29.83c17.404-3.741,34.483-0.591,48.096,8.868c13.945,9.689,23.101,25.154,25.778,43.544      c8.132,55.854,13.041,89.567,39.934,144.387c9.331,19.019,11.44,38.504,5.939,54.866c-2.448,7.282-6.335,13.791-11.552,19.347      C3879.689,992.364,3878.542,992.821,3877.392,992.821z" style="fill:#296ACC;"/>
				<path d="M3830.959,1011.184c-29.235,0-60.403-16.118-76.35-50.928      c-27.718-60.507-34.837-102.731-39.753-140.792c-0.306-2.364,1.363-4.528,3.728-4.833c2.357-0.297,4.527,1.364,4.833,3.727      c5.031,38.956,11.803,78.847,39.04,138.303c19.204,41.923,62.722,53.791,93.696,41.048c2.205-0.906,4.727,0.145,5.633,2.349      c0.907,2.205-0.145,4.726-2.35,5.633C3850.62,1009.318,3840.898,1011.184,3830.959,1011.184z" style="fill:#296ACC;"/>
				<path d="M3829.333,994.061c-22.646,0-47.213-12.511-59.553-39.136      c-25.522-51.619-32.753-95.169-40.871-155.712c-1.842-13.737,1.951-27.869,10.68-39.793      c8.568-11.707,20.729-19.792,34.244-22.767c13.355-2.941,26.553-0.514,37.159,6.832c10.783,7.47,17.828,19.295,19.838,33.297      l0.352,2.456c7.864,54.837,12.61,87.937,39.341,142.645c7.463,15.275,8.749,30.964,3.623,44.178      c-4.396,11.329-13.089,19.833-25.143,24.594l-0.101,0.038C3842.813,992.923,3836.16,994.061,3829.333,994.061z       M3847.418,986.641h0.01H3847.418z M3784.823,744.071c-3.001,0-6.06,0.335-9.135,1.012      c-23.865,5.253-41.37,29.516-38.225,52.983c8.007,59.712,15.122,102.626,40.077,153.082l0.049,0.101      c13.947,30.152,45.66,39.618,68.294,31.357c9.729-3.856,16.719-10.656,20.215-19.667c4.246-10.944,3.063-24.179-3.332-37.267      c-27.326-55.928-32.145-89.534-40.129-145.209l-0.352-2.456c-1.665-11.599-7.421-21.339-16.209-27.427      C3799.877,746.286,3792.544,744.071,3784.823,744.071z" style="fill:#296ACC;"/>
				<path d="M3827.295,976.956c-15.847,0.001-33.478-8.879-42.205-27.398      c-25.66-50.301-34.072-102.154-38.167-136.786c-0.279-2.367,1.412-4.513,3.779-4.793c2.352-0.278,4.513,1.411,4.793,3.779      c4.019,33.988,12.258,84.851,37.314,133.938l0.063,0.127c8.794,18.727,29.32,25.57,43.35,21.203      c6.152-2.347,10.619-6.639,12.92-12.417c2.801-7.031,2.088-15.832-1.955-24.146c-7.49-15.402-17.555-42.567-23.896-61.148      c-0.771-2.256,0.435-4.708,2.689-5.479c2.258-0.771,4.709,0.435,5.479,2.69c6.264,18.349,16.173,45.115,23.49,60.162      c5.178,10.646,5.964,21.696,2.212,31.114c-3.19,8.013-9.586,14.172-18.006,17.342l-0.22,0.076      C3835.293,976.374,3831.351,976.956,3827.295,976.956z" style="fill:#296ACC;"/>
				<path d="M3823.549,858.437c-1.947,0-3.714-1.327-4.191-3.304c-5.139-21.277-8.065-42.037-11.771-68.321      l-0.691-4.898c-1.025-7.258-4.649-13.37-10.204-17.211c-5.498-3.802-12.354-5.038-19.308-3.479      c-15.116,3.391-26.191,18.81-24.185,33.672c0.318,2.362-1.338,4.536-3.7,4.854c-2.349,0.316-4.535-1.337-4.854-3.699      c-2.625-19.444,11.215-38.845,30.851-43.249c9.325-2.094,18.6-0.388,26.104,4.801c7.561,5.227,12.477,13.432,13.843,23.103      l0.691,4.901c3.674,26.053,6.575,46.63,11.615,67.5c0.56,2.317-0.865,4.649-3.183,5.209      C3824.226,858.398,3823.885,858.437,3823.549,858.437z" style="fill:#296ACC;"/>
				<path d="M3824.161,959.968c-9.479,0-19.164-6.057-23.63-15.422c-1.025-2.151-0.113-4.727,2.038-5.753      c2.155-1.026,4.728-0.113,5.753,2.038c3.93,8.243,12.817,11.653,18.896,10.138c2.476-0.926,4.291-2.655,5.257-5.009      c1.251-3.05,0.954-6.897-0.815-10.557c-12.009-24.817-20.139-46.073-25.584-66.89c-6.309-24.12-10.628-49.632-13.141-66.786      c-0.345-2.358,1.287-4.55,3.646-4.896c2.37-0.348,4.551,1.288,4.896,3.644c2.48,16.939,6.741,42.114,12.949,65.853      c5.301,20.261,13.245,41.015,25.004,65.315c2.836,5.864,3.212,12.276,1.031,17.591c-1.916,4.67-5.65,8.195-10.515,9.926      l-0.334,0.104C3827.829,959.74,3825.999,959.968,3824.161,959.968z" style="fill:#296ACC;"/>
				<path d="M3788.985,911.146c-1.743,0-3.385-1.064-4.038-2.791      c-14.106-37.322-17.814-65.049-22.947-103.424c-0.521-3.896-1.057-7.903-1.62-12.042c-1.466-10.772,6.148-21.536,16.973-23.996      c5.293-1.202,10.579-0.227,14.879,2.744c4.291,2.965,7.069,7.579,7.822,12.992c0.328,2.361-1.319,4.541-3.68,4.869      c-2.369,0.328-4.541-1.319-4.869-3.68c-0.416-2.991-1.9-5.505-4.18-7.08c-2.289-1.582-5.157-2.088-8.061-1.428      c-6.464,1.469-11.195,8.07-10.332,14.415c0.564,4.145,1.101,8.159,1.623,12.06c5.056,37.806,8.709,65.122,22.466,101.517      c0.843,2.23-0.281,4.72-2.512,5.563C3790.008,911.056,3789.492,911.146,3788.985,911.146z" style="fill:#296ACC;"/>
				<path d="M3815.946,934.787c-1.63,0-3.189-0.928-3.919-2.504      c-30.908-66.764-35.405-136.863-35.446-137.563c-0.143-2.379,1.671-4.422,4.05-4.565c2.391-0.14,4.423,1.67,4.565,4.05      c0.042,0.685,4.464,69.219,34.663,134.452c1.002,2.163,0.06,4.728-2.103,5.729      C3817.17,934.658,3816.553,934.787,3815.946,934.787z" style="fill:#296ACC;"/>
			</g>
		</g>
	</g>
	<g id="male_03">
		<path d="M3363.74,1002.685c-13.069-5.283-22.645-25.257-5.283-34.201    c17.362-8.944,69.168,18.275,62.678,30.014C3411.288,1016.309,3376.809,1007.968,3363.74,1002.685z" style="fill:#666EAE;"/>
		<path d="M3387.248,1057.686c-19.262-26.416-2.198-72.522,35.265-60.677    c21.604,21.603,87.485,39.516,93.261,52.637l53.907-43.426c2.417-3.685,5.411-5.473,9.201-4.631    c6.086,9.017,13.302,14.715,22.52,14.539c0,0,4.272,2.826,1.091,9.549c-12.395,26.195-49.243,70.554-76.597,76.351    C3493.454,1108.903,3401.878,1075.176,3387.248,1057.686z" style="fill:#404680;"/>
		<g>
			<path d="M3607.007,1017.306c0,0,37.112-7.589,26.986-43.373c-4.255-15.037-40.108,11-40.108,11     s4.094-22.862-4.82-19.469c-5.17,1.968-13.317,23.933-11.55,42.071C3578.096,1013.496,3591.777,1030.103,3607.007,1017.306z" style="fill:#F7A58E;"/>
			<g>
				<path d="M3595.106,1026.734l35.396,0.64c2.268,0.041,4.149-1.746,4.224-4.013l2.023-72.76c0.076-2.315-1.757-4.245-4.074-4.287      l-35.396-0.64c-2.268-0.041-4.149,1.746-4.224,4.013l-2.023,72.76C3590.956,1024.763,3592.789,1026.693,3595.106,1026.734z"/>
				<g>
					<polygon points="3596.675,970.534 3625.653,1011.264 3595.694,1010.458" style="fill:#AAE0FF;"/>
					<polygon points="3597.117,952.576 3632.53,953.53 3631.106,1011.411 3625.653,1011.264        3596.675,970.534" style="fill:none;"/>
				</g>
			</g>
			<path d="M3637.642,960.934c-2.402-0.843-11.512-4.919-11.242,17.78     c0.164,13.809,4.508,25.039,11.001,21.17C3643.894,996.014,3643.491,973.01,3637.642,960.934z" style="fill:#F7A58E;"/>
		</g>
		<path d="M3419.334,1190.537c0,0,46.372,125.038,54.802,171.398c8.429,46.36-25.917,221.77-25.917,221.77    l-42.151,10.482l-6.166-202.355l-80.537-201.295H3419.334z" style="fill:#092E66;"/>
		<path d="M3272.004,1191.714c-7.42,51.768,1.105,121.621-1.104,207.775l-43.077,184.459    c28.96,6.527,22.334,22.628,43.077,5.523c0,0,69.586-133.65,81.736-181.145c8.25-32.252,14.473-218.852,14.473-218.852    L3272.004,1191.714z" style="fill:#092E66;"/>
		<path d="M3424.847,1001.894c0,0-28.588-26.123-93.961-14.983c-16.369,16.121-51.634,138.424-55.629,199.429    c36.029,25.574,138.426,18.922,144.078,4.197L3424.847,1001.894z" style="fill:#56BDBF;"/>
		<path d="M3414.335,992.191c26.683,7.681,27.896,60.643,27.896,60.643l-4.14,156.632    c-2.544,6.629-8.515,20.083-35.393,21.236C3403.892,1157.724,3425.313,1057.378,3414.335,992.191z" style="fill:#666EAE;"/>
		<path d="M3363.046,982.707c0,0-6.166,5.745-5.185,12.192c0.981,6.446,13.173,18.358,29.709,20.46    c16.536,2.102,25.785-0.14,27.887-10.23c2.102-10.09-3.644-13.733-6.727-15.555    C3405.647,987.752,3369.633,980.045,3363.046,982.707z" style="fill:none;"/>
		<path d="M3423.912,936.739l-5.152,34.465l-4.225,28.523l-0.132,0.664    c-6.074,22.845-59.843,1.855-49.675-16.632l21.15-50.189L3423.912,936.739z" style="fill:#F7A58E;"/>
		<path d="M3418.76,971.203l-4.225,28.523c-29.448-8.186-32.882-48.728-32.882-48.728    C3393.67,947.433,3408.856,958.526,3418.76,971.203z" style="fill:#E87C5D;"/>
		<g>
			<g>
				<path d="M3296.624,1584.065l-11.961-3.675c-7.692-15.606-41.554-13.672-37.134,5.319      c-13.306,1.977-20.187-4.635-20.187-4.635l-4.523,35.923h71.68L3296.624,1584.065z" style="fill:#296ACC;"/>
			</g>
			<path d="M3256.693,1616.997c0-0.163-0.008-0.323-0.005-0.487c0.281-18.26,15.312-33.062,33.572-33.062     s32.834,14.803,32.553,33.062c-0.002,0.163-0.015,0.324-0.02,0.487H3256.693z" style="fill:#6BA6FF;"/>
			<path d="M3260.229,1589.612c-0.246,0-0.495-0.068-0.718-0.212c-0.611-0.397-0.786-1.215-0.39-1.827     c0.299-0.459,7.508-11.256,23.632-10.364c0.728,0.04,1.286,0.662,1.246,1.391c-0.039,0.728-0.661,1.302-1.391,1.246     c-14.622-0.817-21.207,9.065-21.271,9.165C3261.086,1589.4,3260.662,1589.612,3260.229,1589.612z" style="fill:#0E0E0E;"/>
			<path d="M3268.311,1592.159c-0.286,0-0.574-0.092-0.816-0.283c-0.571-0.451-0.671-1.278-0.221-1.851     c0.338-0.432,8.473-10.521,24.473-8.186c0.722,0.105,1.221,0.776,1.115,1.498c-0.105,0.721-0.763,1.224-1.498,1.115     c-14.425-2.109-21.712,6.825-22.016,7.206C3269.087,1591.988,3268.7,1592.159,3268.311,1592.159z" style="fill:#0E0E0E;"/>
		</g>
		<g>
			<g>
				<path d="M3475.19,1584.065l-11.961-3.675c-7.692-15.606-41.554-13.672-37.135,5.319      c-13.306,1.977-20.187-4.635-20.187-4.635l-4.523,35.923h71.68L3475.19,1584.065z" style="fill:#296ACC;"/>
			</g>
			<path d="M3435.26,1616.997c0-0.163-0.008-0.323-0.005-0.487c0.281-18.26,15.312-33.062,33.572-33.062     c18.26,0,32.834,14.803,32.553,33.062c-0.002,0.163-0.015,0.324-0.02,0.487H3435.26z" style="fill:#6BA6FF;"/>
			<path d="M3438.796,1589.612c-0.246,0-0.495-0.068-0.718-0.212c-0.611-0.397-0.786-1.215-0.39-1.827     c0.299-0.459,7.494-11.256,23.632-10.364c0.728,0.04,1.286,0.662,1.246,1.391c-0.039,0.728-0.666,1.302-1.391,1.246     c-14.607-0.817-21.206,9.065-21.271,9.165C3439.652,1589.4,3439.229,1589.612,3438.796,1589.612z" style="fill:#0E0E0E;"/>
			<path d="M3446.878,1592.159c-0.286,0-0.574-0.092-0.816-0.283c-0.571-0.451-0.671-1.278-0.221-1.851     c0.338-0.432,8.472-10.521,24.472-8.186c0.722,0.105,1.221,0.776,1.115,1.498c-0.105,0.721-0.77,1.224-1.498,1.115     c-14.426-2.109-21.711,6.825-22.015,7.206C3447.654,1591.988,3447.268,1592.159,3446.878,1592.159z" style="fill:#0E0E0E;"/>
		</g>
		<path d="M3357.74,1224.018c-21.76-2.109-76.609-11.546-89.158-20.454    c4.201-91.455,36.685-197.896,53.053-214.016c9.475-6.951,34.08-11.637,43.774-9.109    C3368.218,1051.243,3356.616,1180.187,3357.74,1224.018z" style="fill:#666EAE;"/>
		<g>
			<g>
				<path d="M3458.183,910.617c9.784,22.869,7.675,56.814-19.06,68.446s-59.462-6.941-73.024-38.116      c-13.563-31.174-2.885-65.875,23.85-77.507C3416.684,851.809,3452.215,872.756,3458.183,910.617z" style="fill:#F7A58E;"/>
				<path d="M3433.049,935.487c-0.095-0.053-0.172-0.141-0.21-0.252c-0.081-0.24,0.046-0.502,0.286-0.583      c0.055-0.019,5.446-1.907,5.765-5.852c0.189-2.364-2.306-2.785-5.337-3.058c-1.225-0.111-2.115-0.189-2.572-0.544l-0.138-0.173      l-2.551-5.507c-0.106-0.229-0.007-0.502,0.224-0.609c0.23-0.106,0.504-0.005,0.609,0.224l2.492,5.381      c0.338,0.159,1.227,0.24,2.018,0.311c2.564,0.234,6.446,0.583,6.168,4.048c-0.368,4.548-6.138,6.563-6.383,6.647      C3433.293,935.565,3433.159,935.549,3433.049,935.487z" style="fill:#723917;"/>
				<path d="M3439.438,912.253c-1.421-3.375-1.02-6.54,0.933-7.364c1.951-0.824,4.5,1.103,5.919,4.479      l-1.446,0.609c-1.08-2.561-2.93-4.039-3.865-3.64c-0.934,0.393-1.173,2.747-0.095,5.307L3439.438,912.253z" style="fill:#502910;"/>
				<path d="M3397.244,925.086c-1.42-3.377-1.02-6.542,0.933-7.365c1.954-0.825,4.499,1.102,5.919,4.479      l-1.446,0.609c-1.078-2.56-2.93-4.039-3.865-3.64c-0.933,0.392-1.173,2.747-0.095,5.308L3397.244,925.086z" style="fill:#502910;"/>
				<path d="M3404.729,954.098c-1.812-1.015-3.631-2.258-5.449-3.767c-0.195-0.162-0.222-0.451-0.06-0.646      c0.162-0.197,0.452-0.22,0.646-0.06c20.086,16.677,40.73,0.135,40.937-0.034c0.195-0.159,0.482-0.133,0.645,0.065      c0.16,0.196,0.131,0.485-0.065,0.645C3441.19,950.459,3423.507,964.616,3404.729,954.098z" style="fill:#723917;"/>
			</g>
			<path d="M3426.568,878.571c2.853,7.093-4.832,21.35-21.477,8.807c1.104,7.858-8.76,19.548-18.049,10.264     c-0.002,16.069-14.375,36.388-10.125,61.078c-25.052-13.209-60.73-56.091-26.302-89.532     c-1.922-24.166,40.623-31.748,60.914-31.228c27.216-3.263,45.185,8.902,51.157,21.326     C3469.93,874.353,3459.526,889.801,3426.568,878.571z" style="fill:#0E0E0E;"/>
			
				<ellipse ry="10.055" rx="10.055" cy="932.435" cx="3375.178" style="fill:#F7A58E;" transform="matrix(0.9337 -0.3581 0.3581 0.9337 -110.0914 1270.3082)"/>
			<path d="M3439.602,923.522c0.342,2.437,4.87,3.815,10.113,3.078c5.242-0.737,9.215-3.309,8.873-5.746     c-0.343-2.437-4.87-3.815-10.113-3.078C3443.232,918.512,3439.259,921.085,3439.602,923.522z" style="fill:#F59176;"/>
			<path d="M3392.311,935.682c0.343,2.437,5.068,3.787,10.554,3.016c5.486-0.771,9.656-3.371,9.314-5.808     c-0.343-2.437-5.068-3.787-10.554-3.016C3396.138,930.645,3391.968,933.245,3392.311,935.682z" style="fill:#F59176;"/>
		</g>
		<g>
			<path d="M3550.362,1057.837c0,0,2.129-25.832,21.413-30.061c4.734-0.668,9.261,8.141,9.261,8.141     s32.936-22.542,35.304-18.223c3.727,6.795-19.98,24.112-19.98,24.112s13.432,19.634,3.428,26.013     c-10.003,6.379-24.198,14.361-30.257,15.643C3563.471,1084.745,3548.615,1071.234,3550.362,1057.837z" style="fill:#F7A58E;"/>
			<path d="M3340.861,1009.63l113.063,64.906l95.276-16.107c10.092,2.631,25.291,23.869,20.266,28.076     c0,0-73.909,55.377-122.527,41.397c-48.619-13.98-139.567-47.887-139.567-47.887L3340.861,1009.63z" style="fill:#666EAE;"/>
			<path d="M3463.425,1130.032c-8.184,0-16.289-0.987-23.203-3.632     c-63.229-17.203-118.146-40.47-118.693-40.703c-0.671-0.285-0.983-1.062-0.697-1.732c0.285-0.669,1.061-0.984,1.732-0.697     c0.546,0.232,55.34,23.446,118.416,40.602l0.127,0.042c23.739,9.124,62.11-2.004,66.579-4.395     c0.644-0.343,1.443-0.101,1.788,0.542c0.344,0.644,0.101,1.443-0.542,1.788     C3505.619,1123.617,3484.276,1130.031,3463.425,1130.032z" style="fill:#3B4166;"/>
			<path d="M3453.623,1075.917l-0.421-0.274c-27.548-17.964-106.604-58.88-107.398-59.291     c-0.647-0.335-0.901-1.132-0.566-1.779c0.334-0.649,1.129-0.902,1.779-0.566c0.793,0.409,79.172,40.976,107.207,59.149     c21.997-3.316,45.06-7.269,45.291-7.309c0.723-0.117,1.401,0.36,1.525,1.078c0.123,0.719-0.359,1.401-1.078,1.525     c-0.234,0.04-23.669,4.057-45.842,7.392L3453.623,1075.917z" style="fill:#3B4166;"/>
		</g>
	</g>
</g>
<g id="Message">
	<g id="phone">
		<g>
			<g>
				<path d="M1199.035,513.373c-9.259-54.85-93.727-79.613-92.073-43.813l-387.215,2.268      c-26.819,0.157-48.566,24.285-48.589,53.918l-0.803,1018.377c-0.024,30.699,22.101,55.798,49.435,56.033l395.285,3.391      c2.453,5.152,7.045,9.84,14.28,13.754c45.332,0.966,67.075-21.422,75.018-46.73c2.587-6.792,3.994-14.301,3.929-22.215      C1206.719,1535.098,1201.9,526.235,1199.035,513.373z" style="fill:#408BFF;"/>
				<path d="M1125.129,1617.462l-453.73-2.925c-28.314-0.182-51.216-25.961-51.164-57.548l1.703-1047.309      c0.049-30.459,22.589-55.202,50.355-55.292l444.915-1.445c27.986-0.091,50.873,24.616,51.107,55.214l8.064,1052.151      C1176.623,1592.044,1153.672,1617.646,1125.129,1617.462z" style="fill:#408BFF;"/>
				<path d="M1131.392,1609.844c-1.885,0.252-3.814,0.373-5.733,0.359l-453.591-3.432c-24.33-0.184-44.216-22.784-44.174-50.355      l1.567-1046.159c0.04-26.591,19.612-48.292,43.476-48.395l444.886-1.935c0.696-0.003,1.399,0.012,2.09,0.044      c11.196,0.519,21.658,5.619,29.477,14.347c7.992,8.92,12.438,20.742,12.534,33.307l7.958,1053.217      C1170.072,1585.803,1153.582,1606.87,1131.392,1609.844z"/>
				<polygon points="1146.324,512.919 1153.976,1562.469 642.985,1559.409 644.289,512.919" style="fill:#AAE0FF;"/>
			</g>
		</g>
		<g>
			<g>
				<g>
					<g>
						<g>
							<path d="M899.033,670.266c-0.06-0.065-0.125-0.127-0.185-0.192         c-25.01,26.791-64.918,48.747-107.623,58.101c-0.013,2.852-0.084,18.654-0.409,91.489         c-0.435,97.16,92.033,144.638,106.388,151.925C855.031,800.869,888.069,697.612,899.033,670.266z" style="fill:#F5F9FF;"/>
							<path d="M899.033,670.266c-10.964,27.346-44.002,130.603-1.828,301.322         c13.909-6.402,107.542-53.807,107.976-150.967c0.326-72.835,0.397-88.636,0.41-91.489         C963.073,719.421,923.813,697.192,899.033,670.266z" style="fill:#E3EEFF;"/>
						</g>
						<path d="M897.167,973.597l-0.78-0.396c-27.991-14.208-47.645-31.006-59.202-42.596        c-32.152-32.241-48.361-69.57-48.176-110.95l0.414-92.938l1.415-0.31c41.674-9.128,81.557-30.648,106.688-57.568l1.329-1.423        l1.51,1.625c24.953,27.115,64.441,48.92,105.629,58.329l1.413,0.323l-0.007,1.449c-0.012,2.454-0.066,14.491-0.288,64.177        l-0.122,27.31c-0.446,99.747-97.915,147.487-109.028,152.602L897.167,973.597z M793.028,729.627l-0.402,90.045        c-0.387,86.467,72.382,133.387,104.615,149.904c14.056-6.624,105.705-53.493,106.132-148.963l0.122-27.31        c0.194-43.413,0.259-58.084,0.281-62.734c-40.747-9.592-79.745-31.099-104.935-57.855        C873.459,699.186,834.151,720.337,793.028,729.627z" style="fill:none;"/>
					</g>
					<path d="M897.347,954.248l-1.651-0.859c-10.055-5.231-29.718-16.787-48.434-35.414       c-28.709-28.572-43.183-61.582-43.019-98.113l0.36-80.437l2.701-0.697c34.554-8.914,66.074-25.282,88.755-46.088l2.485-2.28       l2.626,2.479c22.482,20.927,53.784,37.513,88.14,46.702l2.695,0.721l-0.36,80.438c-0.162,36.531-14.929,69.411-43.893,97.726       c-18.309,17.898-37.543,29.155-47.378,34.271l-0.245,0.127c-0.385,0.2-0.769,0.4-1.125,0.581L897.347,954.248z        M811.813,745.021l-0.334,74.873c-0.155,34.523,13.602,65.797,40.887,92.953c17.057,16.975,34.93,27.857,45.015,33.251       c9.578-5.012,27.884-15.806,45.315-32.847c27.527-26.911,41.562-58.061,41.715-92.584l0.336-74.875       c-33.303-9.314-63.723-25.401-86.26-45.607C875.771,720.189,845.217,735.998,811.813,745.021z" style="fill:#296ACC;"/>
				</g>
			</g>
			<g>
				<path d="M855.389,806.479v63.774c0,7.1,86.705,7.1,86.705,0v-63.774H855.389z M903.127,840.345v18.075      c0,2.408-1.958,4.407-4.366,4.407c-2.448,0-4.406-1.999-4.406-4.407v-18.116c-3.714-1.673-6.325-5.427-6.325-9.752      c0-5.917,4.814-10.69,10.731-10.69c5.916,0,10.691,4.774,10.691,10.69C909.452,834.918,906.881,838.672,903.127,840.345z" style="fill:#296ACC;"/>
				<path d="M934.504,801.933h-8.777v-4.294c0-14.879-12.105-26.985-26.982-26.985      c-14.88,0-26.985,12.105-26.985,26.985v4.294h-8.777v-4.294c0-19.719,16.042-35.762,35.762-35.762      c19.716,0,35.759,16.042,35.759,35.762V801.933z" style="fill:#296ACC;"/>
			</g>
		</g>
		<g>
			<g>
				<rect height="49.538" width="250.633" style="fill:none;" y="1022.154" x="769.313"/>
				<g>
					<circle r="10.819" cy="1048.625" cx="819.415" style="fill:#296ACC;"/>
					<circle r="10.819" cy="1048.625" cx="856.507" style="fill:#296ACC;"/>
					<circle r="10.819" cy="1048.625" cx="893.6" style="fill:#296ACC;"/>
					<circle r="10.819" cy="1048.625" cx="930.693" style="fill:#296ACC;"/>
					<circle r="10.819" cy="1048.625" cx="967.786" style="fill:#296ACC;"/>
				</g>
			</g>
			<path d="M927.148,1141.329h-67.082c-9.51,0-17.219-7.709-17.219-17.219l0,0     c0-9.51,7.709-17.219,17.219-17.219h67.082c9.51,0,17.219,7.709,17.219,17.219l0,0     C944.367,1133.62,936.658,1141.329,927.148,1141.329z" style="fill:#296ACC;"/>
		</g>
		<g>
			<rect height="15.503" width="206.71" style="fill:#80D1FF;" y="1200.885" x="794.863"/>
			<rect height="15.503" width="342.792" style="fill:#80D1FF;" y="1235.337" x="728.257"/>
			<rect height="15.503" width="314.082" style="fill:#80D1FF;" y="1269.788" x="742.612"/>
		</g>
	</g>
	<g id="male_02">
		<g>
			<path d="M488.702,1213.592c-24.809,25.112-46.467,49.834-67.286,95.786     c-5.767-14.966-4.354-11.68-18.264-44.597c-6.399-15.473-47.756-6.724-48.799,6.892c0,0-7.43,94.814,36.358,132.155     c43.787,37.34,167.226-118.566,167.226-118.566C597.366,1231.392,531.128,1179.92,488.702,1213.592z" style="fill:#007382;"/>
			<g>
				<path d="M806.461,1548.1c-46.542,90.811-386.037,58.476-444.471,9.055      c-43.184-63.392,113.248-94.371,116.716-94.466c76.889-2.095,182.832,4.738,221.874,4.738      C791.361,1481.375,816.683,1513.531,806.461,1548.1z" style="fill:#092E66;"/>
				<path d="M477.985,1509.991c63.149,14.969,119.18,19.874,188.053,9.315c0,0-105.489,46.628-106.063,48.35      C559.4,1569.379,477.985,1509.991,477.985,1509.991z" style="fill:#051733;"/>
				<path d="M798.365,1558.626c-68.002,75.294-358.213,68.055-302.389-0.405      c50.659-6.332,189.858-40.178,202.132-46.825C740.882,1476.719,826.026,1517.875,798.365,1558.626z" style="fill:#092E66;"/>
				<g>
					<g>
						<path d="M754.819,1612.433c-3.366-15.15-20.833-24.803-39.491-30.879        c-9.075,10.613-21.432,31.539-22.218,62.803C734.51,1653.653,760.604,1638.457,754.819,1612.433z" style="fill:#73CCFF;"/>
						<path d="M662.8,1574.785c0,0-17.354-2.963-22.433,17.777c-1.724,7.04-6.772,21.163,10.158,32.167        c16.887,9.3,28.57,16.482,42.584,19.629c0.787-31.264,13.144-52.19,22.218-62.803        C691.092,1573.657,662.8,1574.785,662.8,1574.785z" style="fill:#AAE0FF;"/>
					</g>
					<path d="M657.365,1577.178c33.115,7.939,16.104,48.766-0.951,46.349       c18.577,2.632-328.86,2.674-294.969-102.413c0.135,0,0.135,0,0.135,0c12.955-22.131,53.438-41.256,86.227-26.821       C523.755,1534.604,595.436,1562.572,657.365,1577.178z" style="fill:#092E66;"/>
					<g>
						<path d="M669.77,1621.267c0,0-29.548-2.31-19.303-26.059c10.245-23.75,31.033-9.819,31.033-9.819        S692.588,1609.625,669.77,1621.267z" style="fill:#AAE0FF;"/>
						<path d="M671.193,1623.307c-0.724,0-1.322-0.574-1.348-1.303        c-0.748-21.692,12.583-35.767,13.151-36.354c0.518-0.536,1.372-0.551,1.907-0.035c0.537,0.517,0.552,1.371,0.036,1.908        c-0.131,0.136-13.104,13.875-12.397,34.388c0.025,0.745-0.557,1.37-1.302,1.396        C671.225,1623.306,671.208,1623.307,671.193,1623.307z" style="fill:none;"/>
						<path d="M679.544,1626.5c-0.724,0-1.322-0.574-1.348-1.303c-0.748-21.692,12.583-35.767,13.151-36.354        c0.518-0.535,1.371-0.55,1.907-0.035c0.537,0.517,0.552,1.371,0.036,1.908c-0.131,0.136-13.104,13.875-12.397,34.388        c0.025,0.745-0.557,1.37-1.302,1.396C679.576,1626.499,679.56,1626.5,679.544,1626.5z" style="fill:none;"/>
						<path d="M688.388,1628.711c-0.724,0-1.322-0.574-1.348-1.303c-0.748-21.692,12.583-35.768,13.15-36.355        c0.518-0.535,1.371-0.55,1.907-0.035c0.537,0.517,0.552,1.371,0.036,1.907c-0.131,0.137-13.104,13.877-12.396,34.39        c0.025,0.745-0.557,1.37-1.302,1.396C688.419,1628.71,688.403,1628.711,688.388,1628.711z" style="fill:none;"/>
					</g>
				</g>
				<path d="M660.865,1622.179c-7.083,3.92-186.129,12.246-285.801-51.948      c-32.438-20.892-15.372-50.874-15.372-50.874S382.909,1606.263,660.865,1622.179z" style="fill:#051733;"/>
				<path d="M640.868,1576.363c-0.19,0-0.384-0.027-0.576-0.084      c-129.06-38.229-188.512-77.816-189.097-78.211c-0.926-0.626-1.17-1.884-0.544-2.811c0.625-0.926,1.883-1.171,2.81-0.545      c0.582,0.393,59.603,39.657,187.981,77.686c1.072,0.317,1.684,1.443,1.366,2.516      C642.547,1575.794,641.741,1576.363,640.868,1576.363z" style="fill:#051733;"/>
				<path d="M559.127,1547.462c-0.962,0-1.815-0.688-1.99-1.668c-0.197-1.101,0.536-2.152,1.636-2.349      c0.818-0.146,82.189-14.785,113.694-28.288c1.026-0.439,2.217,0.036,2.658,1.063c0.44,1.027-0.036,2.217-1.063,2.657      c-31.932,13.686-111.217,27.951-114.577,28.552C559.365,1547.451,559.245,1547.462,559.127,1547.462z" style="fill:#051733;"/>
			</g>
			<path d="M705.416,1467.331c2.832,21.709-151.711,26.888-230.755-4.579     c-11.821-49.007-52.629-272.056,69.262-271.383C675.527,1192.096,692.909,1408.168,705.416,1467.331z" style="fill:none;"/>
			<path d="M358.974,1270.783l-1.821-27.612l29.029-4.374l10.966,24.828     C398.387,1270.967,360.213,1278.126,358.974,1270.783z" style="fill:#F7A594;"/>
			<g>
				<path d="M387.509,1243.09l7.033-44.752c0,0-10.229-2.877-11.188,9.27      c-0.959,12.147-20.778,19.819-15.663,31.646C372.805,1251.081,387.509,1243.09,387.509,1243.09z" style="fill:#F7A594;"/>
				<path d="M358.101,1244.369c0,0-21.767-33.25-23.655-52.104c-0.196-6.906,2.877-8.95,2.877-8.95      l49.547,48.588c0,0,3.197,9.909-0.639,14.065C382.395,1250.122,368.01,1256.196,358.101,1244.369z" style="fill:#F7A594;"/>
				<path d="M388.716,1232.579c0,0,0.5,7.873-4.008,6.252c-13.237-3.878-14.02-23.318-14.02-23.318      L388.716,1232.579z" style="fill:#CC7767;"/>
				<g>
					<path d="M408.153,1242.375l-92.165-85.606c0,0-3.204-0.25-5.273,1.173l97.199,89.137       C408.581,1244.942,408.153,1242.375,408.153,1242.375z" style="fill:#404040;"/>
					<path d="M310.715,1157.942c-1.403,0.965-2.294,2.685-1.255,5.857c2.57,7.84,83.929,82.799,92.165,85.603       c4.019,1.367,5.651-0.283,6.289-2.323L310.715,1157.942z"/>
				</g>
				<path d="M334.629,1187.631c0,0,0.938-7.697,14.811,1.748c16.849,11.472,28.165,31.933,24.366,37.175      C368.961,1233.24,330.956,1202.973,334.629,1187.631z" style="fill:#F7A594;"/>
			</g>
			<path d="M518.955,1195.063c-87.414,19.172-63.851,227.941-57.724,273.182     c16.531,6.582,69.913,19.592,90.918,23.153C510.126,1391.988,488.065,1204.548,518.955,1195.063z" style="fill:#007382;"/>
			<path d="M570.241,1198.035c-9.715,47.362-61.801,46.146-62.477,19.565     c-0.135-0.675-0.135-1.486-0.135-2.158l-4.182-57.486l-0.539-7.014l4.587-0.945l41.424-8.229l1.486-0.27l1.212,3.644     l5.264,14.976L570.241,1198.035z" style="fill:#F7A594;"/>
			<path d="M569.032,1194.427c-16.468,38.708,5.302,240.83,20.382,301.152     c40.774,13.778,102.276-6.369,118.711-27.046C696.463,1413.37,677.811,1220.659,569.032,1194.427z" style="fill:#007382;"/>
			<g>
				<path d="M564.931,1264.741c-6.353,34.804,5.752,95.165,15.164,126.538      c24.977,18.376,63.792,8.89,63.792-19.345c1.071-25.498-1.165-54.112-7.302-86.39      C630.541,1212.826,568.068,1213.499,564.931,1264.741z" style="fill:#007382;"/>
				<g>
					<path d="M526.658,1311.595c-25.729-9.279-38.976,27.67-20.245,40.491       c44.541,30.054,113.715,70.474,126.02,44.716C650.429,1359.138,585.284,1330.172,526.658,1311.595z" style="fill:#007382;"/>
				</g>
				<g>
					<path d="M502.941,1340.661l-19.045-10.071c-11.971-9.278,9.108-28.365,17.657-25.289l14.814,9.296       C523.87,1321.705,513.208,1339.871,502.941,1340.661z" style="fill:#F7A594;"/>
					<g>
						<g>
							<path d="M485.716,1331.007c-15.587-3.323-10.198-19.064-6.686-37.046         C466.481,1240.009,535.123,1332.443,485.716,1331.007z" style="fill:#F7A594;"/>
						</g>
						<path d="M492.575,1287.045c0,0-5.088-7.931-16.292-25.637c-5.047,0.955-7.748,9.821-0.962,17.58        C481.284,1285.806,489.913,1290.427,492.575,1287.045z" style="fill:#F7A594;"/>
						<g>
							<defs>
								<path d="M477.255,1282.32c-11.259-6.376-19.278,12.187-16.321,26.685          c4.525,22.184,21.033,11.227,25.965,5.305C495.921,1303.477,491.05,1290.133,477.255,1282.32z" id="XMLID_2_"/>
							</defs>
							
							<clipPath id="XMLID_00000070103282679676450900000014572083076997570436_">
								
							</clipPath>
						</g>
					</g>
				</g>
				<path d="M566.371,1327.084c-0.648,0-1.22-0.469-1.33-1.129c-0.082-0.493-8.064-49.672,1.803-82.904      c0.212-0.715,0.962-1.121,1.677-0.91c0.715,0.213,1.122,0.964,0.91,1.678c-9.688,32.633-1.809,81.208-1.728,81.695      c0.122,0.735-0.375,1.43-1.11,1.552C566.518,1327.078,566.444,1327.084,566.371,1327.084z" style="fill:#003331;"/>
				<path d="M613.288,1403.023c-22.228,0-48.576-13.969-50.115-14.796c-0.656-0.353-0.902-1.171-0.55-1.827      c0.352-0.656,1.171-0.903,1.827-0.55c0.51,0.273,51.224,27.16,69.771,6.82c16.269-17.844,4.15-95.126,4.025-95.904      c-0.118-0.736,0.384-1.428,1.12-1.545c0.74-0.121,1.428,0.384,1.545,1.119c0.516,3.231,12.442,79.352-4.696,98.148      C630.494,1400.765,622.221,1403.023,613.288,1403.023z" style="fill:#003331;"/>
				<path d="M595.257,1338.772c-0.183,0-0.369-0.037-0.547-0.116c-32.495-14.443-73.183-27.531-73.59-27.661      c-0.71-0.228-1.101-0.987-0.874-1.697c0.227-0.71,0.989-1.102,1.697-0.873c0.409,0.131,41.232,13.262,73.863,27.765      c0.681,0.303,0.988,1.101,0.685,1.781C596.268,1338.474,595.774,1338.772,595.257,1338.772z" style="fill:none;"/>
			</g>
			<path d="M507.612,1216.348c-1.21-12.701-8.189-60.53-0.116-66.351l41.424-8.229     C558.416,1193.97,523.032,1220.034,507.612,1216.348z" style="fill:#D97661;"/>
		</g>
		<g>
			<path d="M564.34,1132.452c-2.01,42.687-40.022,75.813-68.299,74.246     c-28.277-1.567-63.029-37.65-61.019-80.337c2.01-42.687,32.589-75.928,68.299-74.246     C539.031,1053.797,566.35,1089.765,564.34,1132.452z" style="fill:#F7A594;"/>
			<path d="M525.897,1058.148c-35.752-29.337-59.944-8.873-82.272,13.243     c-15.669,15.521-26.789,26.689-43.972,27.195c27.397,44.917,95.603,25.92,121.098-12.564     c-0.865,23.589,24.265,46.313,43.589,46.43C573.713,1107.239,562.195,1052.516,525.897,1058.148z" style="fill:#0E0E0E;"/>
			
				<ellipse ry="14.74" rx="14.74" cy="1134.244" cx="557.623" style="fill:#F7A594;" transform="matrix(0.9647 -0.2633 0.2633 0.9647 -279.0101 186.8802)"/>
			<g>
				<path d="M478.585,1175.675c-1.095,0-2.121-0.238-2.971-0.838c-3.7-2.611-0.068-24.512,1.133-31.161      c0.085-0.474,0.538-0.783,1.014-0.704c0.474,0.086,0.79,0.54,0.704,1.015c-2.367,13.106-3.745,28.082-1.844,29.425      c2.496,1.758,8.39-1.369,10.451-2.725c0.402-0.264,0.944-0.152,1.208,0.25c0.265,0.402,0.153,0.943-0.249,1.209      C487.359,1172.588,482.526,1175.674,478.585,1175.675z" style="fill:#BD4A31;"/>
				<path d="M504.696,1138.686c0.753,3.411,2.733,5.874,4.423,5.501c1.69-0.373,2.45-3.441,1.697-6.852      c-0.753-3.411-2.733-5.874-4.423-5.501C504.704,1132.207,503.944,1135.275,504.696,1138.686z" style="fill:#0E0E0E;"/>
				<path d="M450.625,1152.02c0.702,3.184,2.551,5.482,4.128,5.134c1.577-0.348,2.287-3.211,1.584-6.395      c-0.702-3.184-2.551-5.483-4.128-5.135C450.631,1145.973,449.922,1148.836,450.625,1152.02z" style="fill:#0E0E0E;"/>
				<path d="M503.724,1184.442c-1.383,0-2.278-0.112-2.394-0.128c-0.477-0.063-0.813-0.503-0.749-0.98      c0.063-0.478,0.504-0.807,0.979-0.75c0.088,0.011,8.935,1.105,15.239-4.229c4.038-3.417,6.211-8.732,6.46-15.798      c0.017-0.481,0.404-0.889,0.903-0.842c0.482,0.017,0.858,0.421,0.841,0.902c-0.267,7.586-2.652,13.333-7.09,17.081      C513.052,1183.804,507.011,1184.442,503.724,1184.442z" style="fill:#803221;"/>
				<path d="M498.377,1129.866c-0.013,0-0.027-0.001-0.04-0.001c-0.481-0.022-0.854-0.431-0.832-0.912      c0.161-3.493,2.52-6.339,6.156-7.425c3.703-1.107,7.418,0.005,9.463,2.832c0.283,0.391,0.195,0.937-0.195,1.219      c-0.39,0.284-0.936,0.197-1.219-0.195c-1.604-2.217-4.567-3.075-7.549-2.183c-2.277,0.68-4.763,2.568-4.912,5.832      C499.228,1129.501,498.841,1129.866,498.377,1129.866z" style="fill:#803221;"/>
				<path d="M446.51,1142.299c-0.026,0-0.052-0.001-0.078-0.004c-0.48-0.042-0.835-0.466-0.793-0.946      c0.463-5.236,3.566-7.47,6.316-7.813c3.336-0.417,6.522,1.726,7.742,5.21c0.159,0.455-0.08,0.952-0.535,1.112      c-0.456,0.159-0.953-0.08-1.112-0.536c-0.945-2.701-3.355-4.368-5.878-4.054c-2.074,0.26-4.422,2.033-4.794,6.235      C447.338,1141.957,446.957,1142.299,446.51,1142.299z" style="fill:#803221;"/>
			</g>
		</g>
	</g>
	<g id="message">
		<g>
			<g>
				<path d="M335.148,1049.311H148.037c-10.188,0-18.447-8.259-18.447-18.447v-74.296      c0-10.188,8.259-18.447,18.447-18.447h187.111c10.188,0,18.447,8.259,18.447,18.447v74.296      C353.595,1041.052,345.336,1049.311,335.148,1049.311z" style="fill:#AAE0FF;"/>
				<polygon points="316.621,1031.343 316.621,1081.506 265.494,1030.379" style="fill:#AAE0FF;"/>
			</g>
			<g>
				
					<ellipse ry="9.761" rx="9.761" cy="994.751" cx="172.441" style="fill:none;" transform="matrix(0.7071 -0.7071 0.7071 0.7071 -652.8882 413.2896)"/>
				
					<ellipse ry="9.761" rx="9.761" cy="994.751" cx="205.169" style="fill:none;" transform="matrix(0.2288 -0.9735 0.9735 0.2288 -810.1368 966.8832)"/>
				
					<ellipse ry="9.761" rx="9.761" cy="994.751" cx="237.898" style="fill:none;" transform="matrix(0.2288 -0.9735 0.9735 0.2288 -784.8961 998.744)"/>
				
					<ellipse ry="9.761" rx="9.761" cy="994.751" cx="270.627" style="fill:none;" transform="matrix(0.1602 -0.9871 0.9871 0.1602 -754.6283 1102.5424)"/>
				
					<ellipse ry="9.761" rx="9.761" cy="994.751" cx="303.356" style="fill:none;" transform="matrix(0.7071 -0.7071 0.7071 0.7071 -614.5439 505.8608)"/>
			</g>
		</g>
		<g>
			<g>
				<g>
					<path d="M541.034,895.389H422.323c-12.071,0-21.856-9.785-21.856-21.856v-88.025       c0-12.071,9.785-21.856,21.856-21.856h118.711c12.071,0,21.856,9.785,21.856,21.856v88.025       C562.89,885.604,553.105,895.389,541.034,895.389z" style="fill:#AAE0FF;"/>
					<polygon points="459.224,891.291 477.833,923.947 498.325,891.291" style="fill:#AAE0FF;"/>
				</g>
			</g>
			<g>
				<polygon points="478.168,826.439 445.748,802.001 510.427,802.001" style="fill:#296ACC;"/>
				<polygon points="513.142,808.297 513.142,850.709 443.035,850.709 443.035,808.297 478.168,834.649" style="fill:#296ACC;"/>
			</g>
		</g>
	</g>
	<g id="shadow_1_">
		<path d="M1498.247,1630.523H300.88c-3.726,0-6.747-3.021-6.747-6.747s3.021-6.747,6.747-6.747h1197.367    c3.726,0,6.747,3.021,6.747,6.747S1501.973,1630.523,1498.247,1630.523z" style="fill:#2E5B99;"/>
	</g>
</g>
<g id="Face_scan">
	<g id="gear">
		<g>
			<path d="M1594.389,920.232c-4.721,18.195-5.63,36.481-3.224,54.008l15.159-2.061     c2.245,16.526,7.804,32.294,16.066,46.425l-13.155,7.736c9.149,15.56,21.268,29.374,35.89,40.48l2.079-2.698l7.189-9.463     c12.762,9.724,27.683,17.132,44.193,21.416l-3.847,14.826c18.195,4.721,36.481,5.629,54.023,3.168l-2.061-15.16     c16.511-2.189,32.279-7.748,46.41-16.01l7.736,13.156c15.56-9.149,29.389-21.326,40.495-35.946l-0.056-0.015l-3.494-2.705     l-8.61-6.549c9.725-12.762,17.117-27.626,21.401-44.137l14.827,3.847c4.721-18.195,5.643-36.537,3.182-54.078l-15.16,2.061     c-2.19-16.512-7.762-32.224-16.025-46.355l13.156-7.735c-9.149-15.561-21.324-29.389-35.946-40.495l-9.269,12.161     c-12.762-9.724-27.625-17.118-44.137-21.402l3.846-14.825c-18.195-4.721-36.536-5.644-54.078-3.182l2.061,15.16     c-16.511,2.188-32.224,7.763-46.355,16.024l-7.734-13.155c-15.616,9.134-29.389,21.325-40.496,35.946l0.098,0.085l8.009,6.095     l4.054,3.089c-9.725,12.762-17.133,27.683-21.403,44.137L1594.389,920.232z M1664.419,938.401     c9.384-36.166,46.304-57.875,82.47-48.491c36.222,9.398,57.932,46.319,48.549,82.485c-9.398,36.222-46.32,57.931-82.542,48.533     C1676.729,1011.545,1655.02,974.624,1664.419,938.401z" style="fill:#AAE0FF;"/>
		</g>
		<g>
			<path d="M1760.948,647.687     c-5.732,8.735-9.474,18.198-11.335,27.853l8.347,1.621c-1.768,9.1-1.655,18.391,0.172,27.304l-8.305,1.725     c2.039,9.823,5.953,19.257,11.668,27.712l1.576-1.049l5.473-3.698c4.982,7.396,11.514,13.958,19.44,19.159l-4.67,7.117     c8.735,5.732,18.198,9.473,27.871,11.308l1.621-8.348c9.082,1.794,18.373,1.682,27.286-0.146l1.724,8.306     c9.823-2.039,19.275-5.981,27.73-11.695l-0.027-0.018l-1.356-2.047l-3.363-4.984c7.396-4.982,13.94-11.487,19.141-19.414     l7.118,4.671c5.732-8.735,9.49-18.225,11.325-27.897l-8.347-1.621c1.794-9.082,1.664-18.347-0.163-27.26l8.305-1.724     c-2.039-9.823-5.98-19.275-11.694-27.73l-7.049,4.747c-4.982-7.396-11.487-13.94-19.413-19.142l4.67-7.117     c-8.735-5.732-18.224-9.491-27.897-11.326l-1.621,8.348c-9.082-1.794-18.347-1.664-27.26,0.162l-1.724-8.305     c-9.85,2.021-19.275,5.981-27.731,11.694l0.036,0.062l3.128,4.638l1.583,2.349c-7.396,4.982-13.958,11.514-19.142,19.413     L1760.948,647.687z M1794.567,669.748c11.393-17.362,34.701-22.201,52.063-10.807c17.389,11.411,22.228,34.719,10.835,52.081     c-11.411,17.389-34.72,22.227-52.109,10.817C1787.994,710.445,1783.156,687.137,1794.567,669.748z" style="fill:none;stroke:#135BCC;stroke-width:2.1377;stroke-miterlimit:10;"/>
		</g>
	</g>
	<g id="shadow">
		<path d="M2885.683,1630.523H1745.876c-3.726,0-6.747-3.021-6.747-6.747s3.021-6.747,6.747-6.747h1139.806    c3.726,0,6.747,3.021,6.747,6.747S2889.408,1630.523,2885.683,1630.523z" style="fill:#2E5B99;"/>
	</g>
	<g id="phone_02">
		<g>
			<g>
				<path d="M1837.615,513.373c9.259-54.85,93.727-79.613,92.072-43.813l387.215,2.268      c26.82,0.157,48.566,24.285,48.59,53.918l0.803,1018.377c0.024,30.699-22.101,55.798-49.435,56.033l-395.285,3.391      c-2.453,5.152-7.045,9.84-14.28,13.754c-45.332,0.966-67.075-21.422-75.018-46.73c-2.587-6.792-3.994-14.301-3.929-22.215      C1829.931,1535.098,1834.75,526.235,1837.615,513.373z" style="fill:#408BFF;"/>
				<path d="M1911.521,1617.462l453.73-2.925c28.314-0.182,51.216-25.961,51.164-57.548l-1.703-1047.309      c-0.05-30.459-22.589-55.202-50.355-55.292l-444.915-1.445c-27.986-0.091-50.873,24.616-51.107,55.214l-8.064,1052.151      C1860.027,1592.044,1882.978,1617.646,1911.521,1617.462z" style="fill:#408BFF;"/>
				<path d="M1905.257,1609.844c1.885,0.252,3.814,0.373,5.733,0.359l453.591-3.432c24.33-0.184,44.216-22.784,44.174-50.355      l-1.567-1046.159c-0.04-26.591-19.612-48.292-43.476-48.395l-444.886-1.935c-0.696-0.003-1.399,0.012-2.09,0.044      c-11.196,0.519-21.658,5.619-29.477,14.347c-7.992,8.92-12.438,20.742-12.534,33.307l-7.958,1053.217      C1866.578,1585.803,1883.068,1606.87,1905.257,1609.844z"/>
				<polygon points="1890.326,510.483 1882.674,1560.033 2393.664,1556.973 2392.361,510.483" style="fill:#AAE0FF;"/>
			</g>
		</g>
		<g>
			<rect height="15.503" width="206.71" style="fill:#80D1FF;" y="1347.812" x="2035.077"/>
			
				<rect height="15.503" width="342.792" style="fill:#80D1FF;" transform="matrix(-1 -1.224647e-16 1.224647e-16 -1 4273.9932 2780.031)" y="1382.264" x="1965.601"/>
			
				<rect height="15.503" width="314.082" style="fill:#80D1FF;" transform="matrix(-1 -1.224647e-16 1.224647e-16 -1 4273.9932 2848.9338)" y="1416.715" x="1979.955"/>
		</g>
		<path d="M2301.838,1045.941h-313.458c-23.167,0-41.948-18.781-41.948-41.948V680.601    c0-23.167,18.781-41.948,41.948-41.948h313.458c23.167,0,41.948,18.781,41.948,41.948v323.392    C2343.786,1027.16,2325.006,1045.941,2301.838,1045.941z" style="fill:#66C8FF;"/>
		<g>
			<path d="M2081.71,1104.083c18.979-55.33-16.567-149.822-58.286-126.224     c-42.708,23.726-68.534,84.379-65.485,126.224H2081.71z" style="fill:#FFA599;"/>
			<path d="M2214.915,1104.083c-18.979-55.33,16.567-149.822,58.286-126.224     c42.708,23.726,68.534,84.379,65.485,126.224H2214.915z" style="fill:#FFA599;"/>
			<path d="M2280.618,986.875c5.984-59.193,16.413-299.728-130.875-299.728     c-148.527,0-134.999,239.104-129.995,295.132L2280.618,986.875z" style="fill:#0E0E0E;"/>
			<path d="M2016.306,983.553c52.198-38.911,218.757-39.86,267.634,2.373l0.664,118.494H2015.67     L2016.306,983.553z" style="fill:#008C86;"/>
			<g>
				<g>
					<path d="M2105.536,955.873c0,0-61.27,37.083-24.797,71.368c30.241,28.426,74.392-13.911,74.392-13.911       L2105.536,955.873z" style="fill:none;"/>
					<path d="M2190.717,955.268c0,0,61.271,37.083,24.797,71.368c-30.241,28.426-74.392-13.911-74.392-13.911       L2190.717,955.268z" style="fill:none;"/>
				</g>
				<path d="M2196.834,993.272c0,34.001-97.001,34.001-97.001,0l5.14-52.349l3.372-34.049h80.138l5.46,56.531      L2196.834,993.272z" style="fill:#FFA599;"/>
				<polygon points="2193.943,963.405 2104.974,940.923 2108.346,906.874 2188.483,906.874" style="fill:#E87C5D;"/>
			</g>
			<path d="M2249.154,814.263c3.001,71.112-40.7,128.755-97.61,128.755s-100.611-57.644-97.61-128.755     c2.827-66.992,46.464-118.518,97.61-118.518C2202.691,695.746,2246.327,747.271,2249.154,814.263z" style="fill:#FFA599;"/>
			<path d="M2042.448,806.338h216.782c0,0-10.948-119.189-109.486-119.189     C2051.206,687.149,2042.448,806.338,2042.448,806.338z" style="fill:#0E0E0E;"/>
			<path d="M2146.413,865.704c-2.526,0-4.982-0.541-6.412-2.257c-3.521-4.227,5.202-25.477,6.986-29.693     c0.224-0.528,0.833-0.776,1.361-0.552c0.528,0.223,0.775,0.833,0.552,1.361c-4.231,10.001-9.295,25.163-7.303,27.554     c2.325,2.793,10.067,1.009,12.854,0.086c0.545-0.182,1.132,0.114,1.313,0.659c0.181,0.544-0.114,1.132-0.659,1.313     C2154.399,864.41,2150.322,865.704,2146.413,865.704z" style="fill:#BD4A31;"/>
			<path d="M2121.456,885.944c0,0,29.319,11.573,70.597-5.787     C2167.749,909.862,2137.659,927.222,2121.456,885.944z" style="fill:#BD4A31;"/>
			<g>
				<path d="M2094.622,830.982c0,5.234,2.103,9.478,4.696,9.478s4.696-4.243,4.696-9.478      c0-5.234-2.103-9.478-4.696-9.478S2094.622,825.748,2094.622,830.982z" style="fill:#0E0E0E;"/>
				<path d="M2108.232,819.413c-0.296,0-0.591-0.126-0.796-0.372c-7.628-9.094-17.15-1.481-17.552-1.152      c-0.443,0.362-1.098,0.297-1.462-0.146c-0.363-0.444-0.298-1.099,0.146-1.462c0.115-0.093,11.528-9.225,20.459,1.425      c0.369,0.44,0.311,1.095-0.128,1.463C2108.705,819.333,2108.467,819.413,2108.232,819.413z" style="fill:#BD4A31;"/>
			</g>
			<g>
				<ellipse ry="9.478" rx="4.696" cy="830.983" cx="2200.764" style="fill:#0E0E0E;"/>
				<path d="M2209.678,819.413c-0.296,0-0.591-0.126-0.796-0.372c-7.628-9.094-17.15-1.481-17.552-1.152      c-0.443,0.362-1.099,0.297-1.462-0.146c-0.363-0.444-0.298-1.099,0.146-1.462c0.114-0.093,11.529-9.225,20.459,1.425      c0.369,0.44,0.311,1.095-0.128,1.463C2210.151,819.333,2209.914,819.413,2209.678,819.413z" style="fill:#BD4A31;"/>
			</g>
			<ellipse ry="6.627" rx="12.607" cy="859.346" cx="2099.075" style="fill:#FF8F80;"/>
			<ellipse ry="6.627" rx="12.607" cy="859.346" cx="2198.058" style="fill:#FF8F80;"/>
		</g>
		<g>
			<path d="M2066.163,970.342h-27.368c-20.326,0-36.862-16.537-36.862-36.862v-28.356h10.215v28.356     c0,14.693,11.954,26.648,26.647,26.648h27.368V970.342z" style="fill:none;"/>
			<path d="M2254.269,970.342h-26.745v-10.215h26.745c14.693,0,26.647-11.954,26.647-26.648v-29.341h10.215     v29.341C2291.131,953.805,2274.595,970.342,2254.269,970.342z" style="fill:none;"/>
			<path d="M2291.131,758.383h-10.215v-25.398c0-14.693-11.954-26.647-26.647-26.647h-25.76v-10.215h25.76     c20.326,0,36.862,16.537,36.862,36.862V758.383z" style="fill:none;"/>
			<path d="M2012.148,763.308h-10.215v-30.322c0-20.326,16.537-36.862,36.862-36.862h26.383v10.215h-26.383     c-14.693,0-26.647,11.954-26.647,26.647V763.308z" style="fill:none;"/>
		</g>
		<g>
			<g>
				<path d="M2104.773,1218.344v63.774c0,7.099,86.705,7.099,86.705,0v-63.774H2104.773z" style="fill:#296ACC;"/>
				<path d="M2183.888,1215.249h-8.777v-21.28c0-14.88-12.105-26.985-26.982-26.985      c-14.88,0-26.985,12.105-26.985,26.985v4.294h-8.777v-4.294c0-19.719,16.042-35.762,35.762-35.762      c19.716,0,35.759,16.042,35.759,35.762V1215.249z" style="fill:#296ACC;"/>
			</g>
			<path d="M2140.041,1272.425c-0.903,0-1.805-0.356-2.464-1.067l-14.291-15.312     c-1.272-1.37-1.199-3.505,0.165-4.77c1.357-1.278,3.492-1.199,4.764,0.158l12.011,12.874l33.595-30.756     c1.384-1.252,3.512-1.16,4.77,0.211c1.259,1.37,1.16,3.505-0.211,4.77l-36.06,33.009     C2141.668,1272.135,2140.858,1272.425,2140.041,1272.425z" style="fill:#AAE0FF;"/>
		</g>
	</g>
	<g id="lady">
		<g>
			<polygon points="2803.08,807.512 2605.867,807.824 2647.721,922.073" style="fill:#AAE0FF;"/>
			<path d="M2601.76,806.931c0,0-72.903,11.827-62.887,160.86c13.17,12.751,147.568-0.501,147.568-0.501     c-22.527-23.093-29.945-71.06-31.365-128.903C2655.076,838.387,2652.118,801.443,2601.76,806.931z" style="fill:#0E0E0E;"/>
			<path d="M2670.528,946.288l79.105-21.391l74.759-67.53l14.53,12.38c0,0-57.645,72.881-72.136,85.891     c-12.862,11.547-88.643,43.912-88.643,43.912L2670.528,946.288z" style="fill:#FFA599;"/>
			<path d="M2571.305,1008.77c3.36,18.205,36.097,99.113,36.097,99.113c0,19.765,95.763,19.765,95.763,0     c1.154-30.212,3.849-86.851,3.441-120.335c-4.492-13.475-16.814-33.656-38.079-46.599     C2628.395,932.18,2553.864,942.479,2571.305,1008.77z" style="fill:#008C86;"/>
			<path d="M2577.267,1229.443h85.231c-2.118,17.35-11.161,36.197-15.037,51.699     c-34.701,95.08-51.629,222.37-88.26,306.226c0,0-15.762,8.169-26.226,0c7.153-63.105,6.646-102.24,27.198-206.776     C2567.343,1350.184,2564.458,1277.517,2577.267,1229.443z" style="fill:#FFA599;"/>
			<path d="M2720.621,1229.443c11.051,105.431,31.368,333.17,33.606,356.675l-27.086,0.138     c-17.762-60.344-40.421-114.488-42.422-191.038c-13.818-42.12-36.822-112.964-54.073-165.775H2720.621z" style="fill:#FFA599;"/>
			<path d="M2574.938,1250.469l64.349,5.304l15.623,1.291l69.076,5.731     c2.995,29.265,6.336,64.016,9.608,99.747c-20.788,8.614-49.807,21.071-52.302,22.183l-33.834-103.585     c-9.906,32.271-22.014,74.465-31.16,107.396c-17.396-8.162-36.016-15.103-54.201-18.981     C2565.474,1331.408,2569.661,1287.554,2574.938,1250.469z" style="fill:#E87C5D;"/>
			<path d="M2658.546,938.054c0,0,26.94,18.425,16.876,32.204c-8.666,11.865-30.037-1.657-30.037-1.657     s-3.593,18.352-17.96,15.902c-19.973-3.406-24.153-32.824-15.792-42.423C2619.993,932.48,2648.792,933.1,2658.546,938.054z" style="fill:none;"/>
			<path d="M2614.108,948.239c0.685,7.976,12.963,18.468,28.643,16.189     c9.956-1.447,15.006-8.592,12.658-16.713l-2.638-10.437l-7.402-29.749l-36.601,4.312L2614.108,948.239z" style="fill:#FFA599;"/>
			<path d="M2609.169,906.483c6.127,11.999,16.958,20.673,41.013,19.999l-7.402-29.749l-33.972,4.086     L2609.169,906.483z" style="fill:#E87C5D;"/>
			<path d="M2521.531,1351.517c25.324,9.171,57.196,14.117,89.068,16.156     c63.603,3.638,136.618-6.894,143.167-18.392c-13.006-118.909-50.748-241.397-50.748-241.397h-95.617     c-16.885,13.243-32.167,36.385-42.063,61.126C2558.645,1188.513,2531.864,1273.943,2521.531,1351.517z" style="fill:#008C86;"/>
			<g>
				<path d="M2803.183,1613.533c0-0.338-16.096-0.353-33.311-0.277c-19.809,0.061-44.472,0.277-44.472,0.277      c-0.491-7.652-0.785-15.568,1.742-27.28l31.033-0.157c0,0,8.609,1.45,23.68,6.047c0.99,0.302,2.056,0.521,3.146,0.782      C2809.106,1598.511,2803.183,1614.239,2803.183,1613.533z" style="fill:#296ACC;"/>
				<path d="M2803.183,1613.533c0-0.338-16.096-0.353-33.311-0.277c-0.537-1.565-0.814-3.237-0.814-4.956      c0-7.473,5.355-13.824,12.797-16.157c0.998,0.276,2.056,0.521,3.146,0.782      C2809.106,1598.511,2803.183,1614.239,2803.183,1613.533z" style="fill:#80B3FF;"/>
				<rect height="4.887" width="80.434" style="fill:#80B3FF;" y="1608.668" x="2724.331"/>
			</g>
			<g>
				<path d="M2560.973,1614.639c-0.461,0.015-8.347-0.092-18.121-0.184      c-15.912-0.154-36.825-0.276-38.79,0.184c-5.539-13.395,5.954-20.269,16.541-24.059c4.511-1.596,8.868-2.639,11.661-3.376      l26.959,0.154C2561.756,1599.065,2561.464,1606.983,2560.973,1614.639z" style="fill:#296ACC;"/>
				
					<rect height="4.887" width="59.56" style="fill:#80B3FF;" transform="matrix(-1 -1.224647e-16 1.224647e-16 -1 5064.5156 3224.4287)" y="1609.771" x="2502.478"/>
			</g>
			<path d="M2542.852,1614.455c-15.912-0.154-36.825-0.276-38.79,0.184     c-5.539-13.395,5.954-20.269,16.541-24.059c6.137-0.644,13.303,0.368,18.934,6.245     C2545.491,1603.054,2544.985,1609.468,2542.852,1614.455z" style="fill:#80B3FF;"/>
			<path d="M2654.326,1119.802c-14.419,0-30.86-2.472-47.761-9.886c-1.104-0.484-1.606-1.771-1.122-2.876     s1.773-1.606,2.876-1.122c48.6,21.318,93.285,0.249,93.73,0.034c1.084-0.525,2.39-0.072,2.916,1.015     c0.524,1.085,0.071,2.39-1.013,2.915C2703.645,1110.031,2682.985,1119.802,2654.326,1119.802z" style="fill:none;"/>
			<g>
				<path d="M2658.087,913.062c-26.889,13.909-57.221,3.311-67.951-19.869      c-19.736-26.356-25.961-58.413-3.709-75.898c25.961-20.263,65.037-10.859,72.056,28.878c2.783,3.046,7.153,10.2,9.803,19.471      c0.661,1.986,1.192,4.24,1.324,6.49C2671.862,884.585,2670.009,899.551,2658.087,913.062z" style="fill:#FFA599;"/>
				<path d="M2573.733,876.245c0,0,65.012-25.011,93.111-29.508c-7.301-22.299-36.29-57.177-77.968-34.43      C2553.555,830.867,2573.733,876.245,2573.733,876.245z" style="fill:#0E0E0E;"/>
				<path d="M2603.196,840.456c-6.372,27.093-4.379,73.609,37.694,126.501l-17.171,2.763      c0,0-19.478-3.504-49.776-72.116C2556.086,851.057,2584.658,833.751,2603.196,840.456z" style="fill:#0E0E0E;"/>
			</g>
			<path d="M2604.98,987.638c-2.998,18.087-31.347,80.303-31.347,80.303l21.574,110.52l-17.196,6.788     c0,0-42.582-91.471-42.278-117.875c0.386-33.477,28.836-94.431,28.836-94.431C2579.264,946.559,2610.415,954.851,2604.98,987.638     z" style="fill:#FFA599;"/>
			<path d="M2576.685,1178.762c0,0-11.417,36.652,0.308,44.023c11.725,7.371,18.81-32.21,18.81-32.21     s5.033,6.56,7.344,5.338c2.312-1.222-4.523-15.962-9.23-20.259C2589.211,1171.359,2579.881,1169.506,2576.685,1178.762z" style="fill:#FFA599;"/>
			<g>
				<path d="M2813.661,855.29c0,0,5.336-5.432,7.825,2.839c8.672,3.101,16.564-6.929,20.019,2.177      C2846.955,874.672,2818.926,880.343,2813.661,855.29z" style="fill:#FFA599;"/>
				<path d="M2839.324,847.111c0,0-6.908-17.171-19.323-24.313c-4.7-2.274-7.062-0.789-7.062-0.789      l18.152,49.212C2839.883,877.402,2847.279,864.006,2839.324,847.111z" style="fill:#FFA599;"/>
				<g>
					<path d="M2831.72,889.14l-30.475-90.063c0,0,0.82-2.286,2.442-3.272l31.351,94.628       C2833.357,890.23,2831.72,889.14,2831.72,889.14z" style="fill:#404040;"/>
					<path d="M2803.687,795.805c1.1-0.669,2.562-0.75,4.427,0.949c4.61,4.2,31.091,83.515,30.473,90.062       c-0.302,3.195-1.946,3.809-3.549,3.617L2803.687,795.805z"/>
				</g>
				<path d="M2816.75,821.489c0,0-5.598-1.737-3.383,10.753c2.69,15.171,11.289,23.439,16.08,22.443      C2834.581,853.619,2827.85,823.592,2816.75,821.489z" style="fill:#FFA599;"/>
			</g>
			<path d="M2654.254,874.074c-0.205,0-0.394-0.136-0.451-0.343c-0.069-0.248,0.076-0.507,0.325-0.576     c1.274-0.356,4.617-1.636,4.784-3.265c0.144-1.395-5.563-5.79-9.66-8.466c-0.217-0.142-0.277-0.432-0.136-0.648     c0.142-0.217,0.432-0.276,0.647-0.136c1.728,1.128,10.334,6.88,10.08,9.346c-0.263,2.551-4.933,3.923-5.464,4.071     C2654.338,874.069,2654.295,874.074,2654.254,874.074z" style="fill:#BD4A31;"/>
			<path d="M2660.46,887.378c0,0-11.134,7.32-29.715,3.7C2643.367,901.272,2657.318,905.859,2660.46,887.378z" style="fill:#BD4A31;"/>
			<path d="M2629.636,865.565c0.585,1.8,0.337,3.494-0.554,3.784c-0.892,0.29-2.089-0.934-2.675-2.733     c-0.586-1.8-0.337-3.494,0.554-3.784C2627.853,862.542,2629.05,863.765,2629.636,865.565z" style="fill:#0E0E0E;"/>
			<path d="M2660.422,855.465c0.509,1.563,0.293,3.034-0.481,3.286c-0.774,0.252-1.814-0.811-2.323-2.373     s-0.293-3.034,0.481-3.286C2658.874,852.84,2659.914,853.902,2660.422,855.465z" style="fill:#0E0E0E;"/>
			<path d="M2625.546,881.268c0.375,1.786,3.434,2.656,6.833,1.943c3.399-0.714,5.85-2.74,5.475-4.527     c-0.375-1.786-3.434-2.656-6.833-1.943C2627.623,877.455,2625.171,879.481,2625.546,881.268z" style="fill:#FF8F80;"/>
			<path d="M2669.611,872.135h-0.133c-3.444,0.663-6.49-0.133-6.888-1.986     c-0.398-1.724,2.12-3.712,5.431-4.505c0.133,0,0.133,0,0.265,0C2668.948,867.63,2669.478,869.884,2669.611,872.135z" style="fill:#FF8F80;"/>
		</g>
	</g>
</g>
</svg>